<?xml version="1.0" encoding="utf-8"?>
<!-- Generator: Adobe Illustrator 22.1.0, SVG Export Plug-In . SVG Version: 6.00 Build 0)  -->
<svg version="1.1" id="レイヤー_1" xmlns="http://www.w3.org/2000/svg" xmlns:xlink="http://www.w3.org/1999/xlink" x="0px"
	 y="0px" viewBox="0 0 787 139" style="enable-background:new 0 0 787 139;" xml:space="preserve">
<style type="text/css">
	.st0{fill:#E37617;}
	.st1{fill:#B82232;}
</style>
<g>
	<path class="st0" d="M60.9,106.3c-0.1-1.1,1.1-2.2,0.9-3.1c-0.2-1.1-0.7-2.1-1.1-2.9c-0.4-1-1.1-2-1.7-2.7
		c-0.7-0.7-2.3-0.1-3.2-0.5c-0.9-0.3-1.6-1.3-2.7-1.3c-1,0-2.1-0.2-3.1,0.1c-0.9,0.2-2.1,0.1-3.1,0.4c-0.9,0.3-1.1,2.5-2,3
		c-0.8,0.4-2.4-0.5-3.4,0c-0.8,0.5-0.9,2.3-1.8,2.9c-0.8,0.5-2.8-0.7-3.7-0.1c-0.7,0.7-1.1,1.9-1.8,2.6c-0.7,0.7-1.6,1.3-2.2,2
		c-0.7,0.7-1.5,1.3-2.1,2.1c-0.6,0.7-0.5,2.1-1.2,2.9c-0.6,0.7-0.8,1.8-1.5,2.6c-0.6,0.7-1.6,1.2-2.3,2c-0.6,0.7-1.1,1.6-1.8,2.4
		c-0.6,0.7-2.3,0.7-2.9,1.5c-0.6,0.7-0.1,2.3-0.8,3.2c-0.6,0.8-0.6,1.9-1.3,2.8c-0.6,0.8-1.2,1.5-1.9,2.3c-0.9,1.2-1.8,2.3-2.6,2.9
		c-1,0.8-2.6,1.3-3.9,1.3c-0.9,0-1.7-1.4-2.5-1.7c-0.8-0.3-1.7-0.6-2.3-1.2c-0.7-0.6-1.4-1.2-1.8-2C2.8,126.9,2,125.9,2,125
		c0-1.2,0.9-2,1.3-2.9c0.3-0.7,0.3-1.9,1-2.9c0.5-0.7,1.2-1.4,1.9-2.3c0.6-0.7,2.4-0.4,3.1-1.3c0.6-0.8,1-1.7,1.6-2.5
		c0.6-0.8,0-2.6,0.6-3.3c0.6-0.8,1.8-1,2.5-1.7c0.6-0.8,1.1-1.6,1.8-2.3c0.6-0.8,1.4-1.4,2-2.1c0.6-0.7,2.2-0.7,2.9-1.4
		c0.6-0.7,0.9-1.8,1.6-2.5c0.6-0.8,1.1-1.6,1.8-2.3c0.6-0.8,1.1-1.6,1.7-2.4c0.6-0.7,1.3-1.4,2-2.2c0.6-0.7,1-1.7,1.6-2.5
		c0.6-0.7,1.3-1.5,1.9-2.2c0.6-0.7,1.6-1.2,2.2-1.9c0.6-0.7,1.1-1.6,1.7-2.3c0.6-0.7,1.9-0.9,2.5-1.7c0.6-0.7,1-1.8,1.6-2.5
		c0.6-0.7,1.6-1.2,2.2-1.9c0.6-0.7,0.7-2,1.4-2.7c0.6-0.7,1.5-1.3,2.1-2c0.6-0.7,1.6-1.2,2.3-1.9c0.6-0.7,0-2.6,0.6-3.3
		c0.6-0.7,1.9-0.9,2.5-1.6c0.6-0.7,0.9-1.8,1.5-2.5c0.6-0.7,2.1-0.7,2.7-1.5c0.6-0.7,0.7-2,1.3-2.7c0.6-0.7,2.3-0.5,3-1.2
		c0.6-0.7,0.1-2.6,0.7-3.3c0.6-0.7,1.3-0.7,2-1.5c-0.9,0.2-1.4-0.3-2.3-0.1c-0.9,0.2-1.9,0.1-2.8,0.3c-0.9,0.2-1.7,1.2-2.6,1.3
		c-0.9,0.2-1.9,0-2.8,0.1c-0.9,0.2-1.7,1.3-2.6,1.5c-0.9,0.1-2.1-1.6-3-1.5c-0.9,0.1-1.6,2.1-2.5,2.2c-0.9,0.1-2-1.4-3-1.3
		c-0.9,0.1-1.7,1.4-2.6,1.5c-0.9,0.1-1.9-0.6-2.8-0.5c-0.9,0.1-1.9-0.1-2.8,0c-0.9,0.1-1.9,0.2-2.7,0.2c-1,0-1.9,1.4-2.8,1.4
		c-1,0-1.8-1.4-2.6-1.5c-1-0.2-1.6-0.6-2.3-1c-0.8-0.5-1-1-1.3-1.9c-0.3-0.7-0.7-1.3-0.7-2.4c0-1-1.2-2.1-1-2.9
		c0.3-0.9,1.6-1.5,2.1-2.1c0.6-0.6,1.4-1,2.3-1.3c0.8-0.2,1.6-0.6,2.6-0.6c1.6,0,1.6-0.7,3.2-0.7s1.6,0.6,3.1,0.7
		c0.9,0,1.8-0.2,2.9-0.2c0.9,0,1.9-0.1,2.9-0.1c0.9-0.1,1.9,0.5,2.9,0.4c0.9-0.1,1.9-0.4,2.9-0.4c0.9-0.1,2,0.3,2.9,0.2
		c0.9-0.1,1.9-0.6,2.8-0.7c1-0.1,2,0.5,3,0.4c1-0.1,1.7-1.9,2.6-2.1c1-0.1,2,0.2,2.9,0.1c1-0.1,2.1,0.7,3,0.5c1-0.2,1.9-0.6,2.8-0.7
		c1-0.2,1.7-1.5,2.6-1.7c1-0.2,2.1,0.5,3,0.3c2.3-0.5,3-1,4.1-1c1.1,0,2.4-0.6,3.3-0.3c1,0.3,1.5,1.9,2.3,2.5
		c0.8,0.6,0.8,1.7,1.3,2.6c0.5,0.9,1.4,1.4,1.4,2.4c0,1.2-0.9,1.6-1.4,2.7c-0.4,0.8-0.4,1.9-1.3,2.9c-0.6,0.7-1.4,1.4-2.3,2.3
		c-0.7,0.6-1.9,0.7-2.6,1.3c-0.6,0.6-0.1,2.5-0.8,3.2c-0.6,0.6-1.3,1.2-2,1.9c-0.6,0.6-1.6,1-2.2,1.7c-0.6,0.6-0.9,1.6-1.6,2.3
		c-0.6,0.6-1.9,0.7-2.5,1.5c-0.6,0.7-1.4,1.2-2,1.9c-0.6,0.7-0.1,2.3-0.8,3.1c-0.6,0.7-2.3,0.4-3,1.1c-0.6,0.7-0.6,1.9-1.3,2.6
		c-0.6,0.7-0.7,1.8-1.4,2.5c-0.6,0.7-2,0.7-2.6,1.4c-0.6,0.7-1.5,1.1-2.2,1.8c-0.6,0.7-0.5,2-1.2,2.7c-0.6,0.7-2.2,0.5-2.8,1.2
		c-0.7,0.8,0.3,1.8-0.4,2.6c-0.7,0.8-1.8,0-2.3,1c1-0.4,2.3-0.2,3.2-0.5c1-0.4,1.7-1.1,2.6-1.4c1-0.3,1.8-1.2,2.7-1.4
		c1-0.2,2-0.4,3-0.5c1-0.1,2-0.8,3-0.8c1,0,1.8,1.4,2.7,1.5c0.9,0.2,2.1-0.4,2.9,0c0.9,0.3,1.7,1,2.4,1.6c0.7,0.5,1.2,1.4,1.9,2.1
		c0.6,0.7,1.7,1.1,2.1,1.9c0.4,0.8,1.1,1.6,1.4,2.5c0.3,0.8,0.9,1.7,1.1,2.7c0.2,0.9-0.2,2,0,2.9c0.1,0.9-0.3,1.9-0.2,2.8
		c0.1,1.4-0.6,1.5-0.5,2.9c0.1,1.4,1.9,1.3,2,2.7c0.1,1.4,0.3,1.4,0.4,2.8c0.1,1.4-0.4,1.5-0.3,2.9c0.1,1,0,1.9,0.2,2.7
		c0.3,0.9,1.2,1.1,1.8,1.7c0.6,0.6,0.8,1.7,1.8,2.1c0.8,0.3,1.7,0.3,2.7,0.5c0.8,0.1,1.7,0.7,2.7,0.7c0.9,0,1.8-0.4,2.8-0.4
		c1.1,0,2.1-0.1,3.1-0.2c1.1,0,2.1,0.5,3.1,0.4c1.1,0,2.1,0.4,3.1,0.3c1.1-0.1,2.1-0.1,3.1-0.2c1.1-0.1,2-1,3-1.1
		c1.1-0.2,2.1-0.1,3.1-0.3c0.8-0.2,1.4-1.6,1.9-1.6c0.9,0,2.3,0.1,3,0.4c0.8,0.4,0.5,2.4,1.1,3.1c0.5,0.7,0.8,1.2,1,2.1
		c0.3,0.8,1,1.4,1,2.4c0,1,0,1.9-0.4,2.7c-0.3,0.8-0.9,1.6-1.6,2.2c-0.6,0.5-1.5,0.8-2.5,1.1c-0.8,0.3-1.5,1.2-2.5,1.4
		c-0.8,0.2-1.7,0.9-2.7,1c-0.9,0.1-1.9-0.9-2.9-0.8c-0.9,0.1-1.8-0.1-2.8-0.1c-0.9,0-1.8-0.3-2.8-0.3c-0.9,0-1.8,1.2-2.8,1.2
		c-1,0-1.9-0.7-2.8-0.7c-1,0-1.9,0.4-2.8,0.4c-1,0-1.9-0.1-2.8-0.1c-1-0.1-1.8-1-2.7-1.1c-1-0.1-1.8-0.5-2.7-0.7c-1-0.1-2.2,1.2-3,1
		c-1-0.2-1.7-1.1-2.6-1.4c-1-0.3-2.3,0.5-3.1,0.1c-0.9-0.4-1.2-2.1-1.9-2.6c-0.8-0.5-2.2-0.5-2.8-1.1c-0.6-0.7-1.7-1.4-2.1-2.2
		c-0.4-0.8,0.9-2.4,0.6-3.4c-0.3-0.9-1.5-1.5-1.7-2.5c-0.1-0.9-0.7-1.8-0.7-2.8c-0.1-1.5,0.7-1.5,0.6-2.9c-0.1-1.5-0.1-1.4-0.2-2.9
		c-0.1-1.5-0.9-1.3-1.1-2.8C60.3,107.8,61,107.7,60.9,106.3z"/>
	<path class="st0" d="M103.7,136.9c-0.8,0-1.6-0.3-2.1-0.6c-0.2-0.1-0.5-0.2-0.6-0.3c-0.5,0-1,0-1.6,0c-0.4,0-0.8,0-1.2,0
		c-0.7,0-1.3-0.1-1.8-0.2c-0.3-0.1-0.6-0.1-0.9-0.1c-0.1,0.1-0.3,0.2-0.4,0.3c-0.6,0.4-1.4,0.9-2.5,0.9c-0.8,0-1.6-0.3-2.1-0.5
		c-0.2-0.1-0.6-0.2-0.7-0.2c-0.3,0-0.6,0.1-1,0.1c-0.6,0.1-1.2,0.2-1.9,0.2l-0.8,0c-0.7,0-1.4,0-2-0.1c-1-0.1-1.8-0.5-2.3-0.8
		c-0.2-0.1-0.5-0.3-0.6-0.3c-0.7-0.1-1.3-0.3-1.9-0.4c-0.3-0.1-0.5-0.2-0.7-0.2c-0.1,0.1-0.3,0.2-0.5,0.3c-0.7,0.4-1.7,1-2.8,0.7
		c-0.9-0.2-1.6-0.7-2.2-1.1c-0.2-0.1-0.5-0.3-0.6-0.4c0,0-0.4,0.1-0.6,0.1c-0.7,0.2-1.7,0.4-2.7-0.1c-1.2-0.5-1.7-1.6-2.1-2.3
		c-0.1-0.1-0.2-0.3-0.2-0.4c-0.2-0.1-0.4-0.1-0.6-0.2c-0.7-0.2-1.7-0.4-2.5-1.2c-0.2-0.2-0.4-0.4-0.6-0.6c-0.6-0.5-1.3-1.2-1.8-2
		c-0.7-1.2-0.2-2.5,0.2-3.4c0.1-0.1,0.1-0.3,0.2-0.4c-0.1-0.1-0.1-0.2-0.2-0.2c-0.5-0.5-1.2-1.3-1.4-2.4c0-0.2-0.1-0.5-0.3-0.8
		c-0.2-0.6-0.5-1.3-0.5-2.2c-0.1-1.2,0.3-2,0.5-2.4c0.1-0.3,0.1-0.3,0.1-0.5c0-0.7-0.1-1.1-0.1-1.4c0-0.4-0.1-0.7-0.1-1.5
		c0-0.1,0-0.2,0-0.2c0-0.1-0.1-0.1-0.1-0.2c-0.3-0.4-0.8-1.1-0.9-2.2c-0.2-1.2,0.1-2,0.2-2.5c0.1-0.3,0.1-0.4,0.1-0.7l0,0
		c-0.1-1,0.4-1.9,0.7-2.6c0.1-0.1,0.2-0.3,0.2-0.5c-0.1-0.6-0.4-1.3-0.7-1.9l-0.2-0.5c-0.3-0.7-0.7-1.4-1.1-1.9c-0.2,0-0.4,0-0.5,0
		c-0.6,0-1.4,0.1-2.2-0.2c-0.6-0.2-1.1-0.5-1.4-0.8c-0.2-0.1-0.5-0.4-0.6-0.4c-0.3,0-0.6,0-0.9,0c-0.6,0-1.2-0.1-1.7,0
		c-0.5,0.1-1,0.1-1.5,0.2c-0.4,0-0.7,0-1,0.1c-0.1,0.1-0.1,0.3-0.2,0.4c-0.4,0.8-0.9,2-2.1,2.6c-1,0.5-2,0.3-2.8,0.2
		c-0.1,0-0.3,0-0.4-0.1c0,0.1-0.1,0.2-0.1,0.3c-0.3,0.8-0.8,1.9-1.8,2.5c-1.1,0.6-2.3,0.4-3.2,0.2c-0.1,0-0.3-0.1-0.5-0.1
		c-0.1,0.1-0.2,0.3-0.3,0.5c-0.3,0.5-0.6,1.1-1.2,1.7c-0.4,0.4-0.8,0.7-1.2,1.1c-0.4,0.3-0.7,0.6-1,0.9c-0.3,0.4-0.7,0.7-1.1,1
		c-0.4,0.3-0.7,0.6-1,1c0,0.1-0.1,0.4-0.2,0.6c-0.2,0.7-0.4,1.6-1,2.3c-0.1,0.1-0.3,0.5-0.4,0.8c-0.2,0.5-0.5,1.2-1,1.8
		c-0.4,0.6-1,0.9-1.4,1.3c-0.3,0.2-0.6,0.5-0.8,0.7c-0.3,0.3-0.5,0.7-0.8,1.1c-0.3,0.4-0.6,0.9-1,1.3c-0.7,0.9-1.7,1.2-2.4,1.4
		c-0.1,0-0.3,0.1-0.5,0.1c0,0.1,0,0.3,0,0.4c-0.1,0.8-0.1,1.8-0.8,2.7c-0.1,0.1-0.2,0.5-0.3,0.8c-0.2,0.6-0.5,1.3-1,2
		c-0.3,0.4-0.6,0.8-0.9,1.2c-0.3,0.4-0.6,0.8-0.9,1.2c-1.1,1.5-2,2.6-2.9,3.2c-1.4,1-3.4,1.7-5.1,1.7c-1.3,0-2.3-0.9-2.9-1.5
		c-0.1-0.1-0.3-0.3-0.4-0.4l-0.2-0.1c-0.8-0.3-1.8-0.7-2.7-1.4l-0.3-0.2c-0.7-0.6-1.5-1.3-2-2.4c-0.1-0.2-0.2-0.4-0.3-0.6
		c-0.5-0.8-1-1.8-1-2.9c0-1.3,0.6-2.3,1.1-3c0.2-0.2,0.3-0.5,0.4-0.7c0-0.1,0.1-0.3,0.1-0.5c0.2-0.7,0.4-1.8,1.2-2.8
		c0.3-0.4,0.7-0.9,1.2-1.5c0.2-0.3,0.5-0.6,0.8-0.9c0.7-0.9,1.7-1.1,2.5-1.2c0.2,0,0.5-0.1,0.7-0.2c0.2-0.2,0.3-0.5,0.5-0.8
		c0.2-0.4,0.5-0.9,0.8-1.3c0-0.2,0-0.4,0-0.6c0-0.9,0-2,0.8-3c0.6-0.7,1.3-1,1.8-1.3c0.2-0.1,0.6-0.3,0.6-0.4c0.3-0.3,0.5-0.7,0.8-1
		c0.3-0.4,0.6-0.9,1-1.3c0.3-0.4,0.7-0.8,1.1-1.2c0.3-0.3,0.6-0.6,0.9-1c0.7-0.8,1.7-1.1,2.4-1.3c0.2,0,0.4-0.1,0.5-0.2
		c0.2-0.2,0.3-0.5,0.5-0.8c0.3-0.5,0.6-1,1-1.6c0.3-0.3,0.5-0.7,0.8-1c0.3-0.4,0.6-0.9,1-1.3c0.2-0.3,0.5-0.6,0.7-1
		c0.3-0.4,0.6-0.9,1-1.4c0.3-0.4,0.7-0.8,1.1-1.2c0.3-0.3,0.6-0.7,0.9-1c0.2-0.2,0.4-0.6,0.6-0.9c0.3-0.5,0.6-1,1-1.5
		c0.3-0.4,0.6-0.7,0.9-1.1c0.3-0.4,0.6-0.8,1-1.1c0.5-0.5,1-0.9,1.4-1.3c0.3-0.2,0.6-0.5,0.8-0.7c0.3-0.3,0.5-0.6,0.7-1
		c0.3-0.4,0.6-0.9,1-1.3c0.6-0.7,1.3-1,1.9-1.3c0.2-0.1,0.5-0.3,0.6-0.3c0.2-0.2,0.4-0.5,0.5-0.9c0.3-0.5,0.6-1.1,1-1.6
		c0.5-0.5,1-0.9,1.5-1.3c0.3-0.2,0.6-0.4,0.8-0.6c0.1-0.1,0.2-0.5,0.3-0.7c0.2-0.6,0.5-1.3,1-1.9c0.4-0.5,0.9-0.9,1.3-1.2
		c0.3-0.3,0.6-0.5,0.8-0.8c0.5-0.5,1-0.9,1.5-1.3c0.2-0.2,0.4-0.3,0.6-0.4c0-0.2,0-0.4,0-0.5c0-0.9,0-2.1,0.8-3
		c0.6-0.7,1.3-1,1.9-1.3c0.2-0.1,0.6-0.3,0.6-0.3c0.1-0.2,0.3-0.5,0.5-0.8c0.3-0.5,0.6-1.1,1.1-1.7c0.7-0.7,1.5-1,2.2-1.3
		c0.2-0.1,0.4-0.2,0.6-0.2c0.1-0.1,0.2-0.4,0.2-0.6c0.2-0.6,0.5-1.4,1.1-2c0.8-0.8,1.8-1,2.5-1.2c0.1,0,0.2,0,0.3-0.1
		c0-0.1,0-0.2,0-0.3c0-0.3,0-0.6,0.1-1c-0.2,0-0.3,0-0.4,0.1c-0.1,0-0.3,0.2-0.5,0.3c-0.5,0.4-1.2,0.9-2.1,1
		c-0.7,0.1-1.3,0.1-1.8,0.1c-0.3,0-0.7,0-0.9,0c-0.1,0.1-0.3,0.2-0.5,0.3c-0.5,0.4-1.2,1-2.2,1.1c-1.3,0.2-2.3-0.5-3-1.1
		c-0.5,0.7-1.3,1.7-2.6,1.9c-1.2,0.2-2.2-0.5-2.9-1c-0.1,0-0.1-0.1-0.2-0.1c-0.1,0-0.1,0.1-0.2,0.1c-0.6,0.5-1.3,1.1-2.4,1.2
		c-0.9,0.1-1.6-0.1-2.2-0.3c-0.2-0.1-0.5-0.2-0.7-0.2c-0.6,0-1.2,0-1.7,0c-0.4,0-0.7,0-1.1,0c-0.4,0-0.8,0.1-1.1,0.1
		c-0.5,0-1,0.1-1.5,0.1c-0.1,0.1-0.3,0.2-0.4,0.3c-0.6,0.5-1.4,1.1-2.6,1.1c-1.3,0-2.2-0.8-2.8-1.3c-0.1-0.1-0.2-0.2-0.3-0.3
		c-1.3-0.3-2.1-0.8-2.8-1.3c-1.3-0.8-1.7-1.8-2-2.7l-0.2-0.4c-0.3-0.7-0.7-1.5-0.7-2.7c-0.1-0.1-0.2-0.4-0.3-0.6
		c-0.4-0.7-1-1.7-0.7-2.9c0.4-1.3,1.4-2.1,2.1-2.6c0.2-0.1,0.4-0.3,0.5-0.4c0.8-0.8,1.8-1.4,3.1-1.9l0.1,0c0.8-0.3,1.9-0.6,3.1-0.6
		c0.4,0,0.5,0,0.8-0.2c0.5-0.2,1.2-0.5,2.5-0.5c1.1,0,1.8,0.3,2.3,0.5c0.3,0.1,0.4,0.2,0.9,0.2c0.3,0,0.8,0,1.3-0.1
		c0.5,0,1-0.1,1.5-0.1c0.9,0,1.8-0.1,2.8-0.1c0.8,0,1.5,0.1,2,0.3c0.3,0.1,0.7,0.2,0.9,0.2c0.4,0,0.8-0.1,1.2-0.2
		c0.5-0.1,1-0.2,1.6-0.2c0.7-0.1,1.4,0,1.9,0.1c0.4,0.1,0.7,0.1,1,0.1c0.3,0,0.7-0.1,1-0.3c0.5-0.2,1.1-0.3,1.8-0.4
		c0.8-0.1,1.6,0.1,2.2,0.3c0.2,0,0.4,0.1,0.5,0.1c0.1-0.1,0.2-0.2,0.3-0.3c0.6-0.6,1.3-1.5,2.6-1.7c0.7-0.1,1.4,0,1.9,0
		c0.4,0,0.7,0.1,0.9,0.1c0.9-0.1,1.8,0.1,2.4,0.3c0.2,0.1,0.5,0.2,0.6,0.2c0.3-0.1,0.7-0.2,1.1-0.3c0.5-0.1,1-0.3,1.5-0.4
		c0.1-0.1,0.3-0.3,0.5-0.4c0.5-0.5,1.2-1.1,2.2-1.3c0.9-0.2,1.7,0,2.4,0.1c0.2,0,0.5,0.1,0.6,0.1c0.9-0.2,1.5-0.4,2.1-0.6
		c0.8-0.2,1.5-0.5,2.4-0.5c0.2,0,0.6-0.1,1-0.1c0.8-0.2,1.9-0.4,2.9,0c1.3,0.4,2,1.4,2.5,2.2c0.1,0.2,0.4,0.5,0.4,0.6
		c1,0.8,1.4,1.9,1.6,2.6c0.1,0.2,0.1,0.5,0.2,0.6c0.1,0.1,0.2,0.3,0.4,0.5c0.5,0.6,1.3,1.5,1.3,2.9c0,1.5-0.8,2.4-1.2,3
		c-0.2,0.2-0.3,0.4-0.4,0.6c0,0.1-0.1,0.3-0.2,0.5c-0.2,0.7-0.5,1.8-1.5,2.8l-0.1,0.1c-0.6,0.7-1.4,1.4-2.3,2.3
		c-0.6,0.6-1.3,0.8-1.9,1c-0.1,0-0.3,0.1-0.4,0.1c0,0.1,0,0.2,0,0.3c-0.1,0.9-0.1,2.1-1,2.9c-0.3,0.3-0.6,0.6-0.9,0.9
		c-0.4,0.3-0.7,0.7-1.1,1c-0.5,0.5-1,0.8-1.4,1.1c-0.3,0.2-0.6,0.4-0.8,0.6c-0.1,0.2-0.3,0.4-0.5,0.8c-0.3,0.5-0.6,1-1.1,1.5
		c-0.6,0.6-1.3,0.9-1.9,1.2c-0.2,0.1-0.5,0.2-0.6,0.3c-0.3,0.4-0.7,0.7-1.1,1c-0.3,0.2-0.5,0.4-0.7,0.7c0,0.1,0,0.3,0,0.4
		c-0.1,0.8-0.1,1.9-0.9,2.8c-0.8,0.8-1.8,1-2.6,1.1c-0.1,0-0.3,0.1-0.4,0.1c0,0.1-0.1,0.3-0.2,0.4c-0.2,0.6-0.5,1.4-1.1,2
		c-0.1,0.1-0.2,0.4-0.3,0.6c-0.2,0.6-0.5,1.3-1.1,1.9c-0.6,0.7-1.5,1-2.1,1.2c-0.2,0.1-0.5,0.2-0.6,0.2c-0.4,0.4-0.9,0.8-1.3,1.1
		c-0.3,0.2-0.6,0.4-0.8,0.6c0,0-0.1,0.3-0.1,0.5c0,0.1-0.1,0.3-0.1,0.4c0,0,0.1,0,0.1,0c1.1-0.3,2.2-0.5,3.2-0.6
		c0.2,0,0.6-0.2,1-0.3c0.7-0.2,1.4-0.5,2.3-0.5c1.2,0,2.1,0.7,2.8,1.3c0.1,0.1,0.3,0.2,0.4,0.3c0.2,0,0.4,0,0.6-0.1
		c0.7-0.1,1.6-0.2,2.6,0.1c0.9,0.4,1.7,0.9,2.3,1.4c0.2,0.1,0.3,0.3,0.5,0.4c0.7,0.5,1.2,1.2,1.7,1.8c0.2,0.2,0.3,0.4,0.5,0.6
		c0.1,0.1,0.4,0.3,0.6,0.5c0.6,0.4,1.3,0.9,1.8,1.8c0.1,0.2,0.3,0.4,0.4,0.6c0.4,0.6,0.8,1.3,1.2,2.1c0.1,0.3,0.2,0.5,0.4,0.8
		c0.3,0.6,0.6,1.3,0.8,2.1c0.2,0.8,0.1,1.6,0.1,2.2c0,0.3-0.1,0.7,0,0.9c0.1,0.8,0,1.5-0.1,2.1c-0.1,0.3-0.1,0.7-0.1,0.8
		c0.1,1.2-0.2,1.9-0.4,2.4c-0.1,0.1-0.1,0.2-0.1,0.3c0,0,0.1,0.1,0.1,0.1c0.6,0.4,1.7,1.2,1.9,2.8c0.1,0.6,0.1,0.8,0.2,1.1
		c0.1,0.4,0.2,0.8,0.3,1.7c0.1,1,0,1.6-0.2,2.1c-0.1,0.3-0.1,0.4-0.1,0.7c0,0.4,0,0.8,0,1.2c0,0.4,0,0.8,0.1,1c0,0,0.2,0.1,0.4,0.2
		c0.3,0.2,0.6,0.4,1,0.7c0.5,0.4,0.7,0.9,1,1.3c0.1,0.1,0.2,0.3,0.2,0.4c0.3,0.1,0.8,0.2,1.4,0.2c0.3,0,0.6,0.1,0.9,0.1
		c0.6,0.1,1.1,0.3,1.5,0.4c0.4,0.1,0.8,0.3,1,0.3c0.2,0,0.5-0.1,0.8-0.1c0.5-0.1,1.1-0.2,1.8-0.2c0.5,0,1,0,1.5-0.1
		c0.5,0,1-0.1,1.5-0.1c0.8,0,1.5,0.1,2,0.3c0.4,0.1,0.8,0.2,1,0.2c0.8,0,1.4,0.1,2,0.2c0.4,0.1,0.8,0.1,1,0.1c0.5,0,0.9,0,1.4-0.1
		c0.6,0,1.1,0,1.6-0.1c0.2,0,0.6-0.2,0.9-0.4c0.6-0.3,1.2-0.6,2-0.7c0.5-0.1,1-0.1,1.6-0.2c0.4,0,0.8-0.1,1.1-0.1
		c0.1-0.1,0.2-0.2,0.3-0.3c0.4-0.6,1.1-1.4,2.3-1.4c1.1,0,2.8,0.1,3.9,0.6c1.4,0.7,1.7,2.2,1.8,3.2c0,0.2,0.1,0.4,0.1,0.6
		c0.7,0.9,1,1.7,1.3,2.6c0,0.1,0.2,0.3,0.3,0.5c0.3,0.6,0.8,1.4,0.8,2.5c0,1.1,0,2.3-0.5,3.5c-0.5,1.2-1.2,2.2-2.3,3
		c-0.9,0.7-1.8,1-2.8,1.4l-0.2,0.1c-0.1,0-0.3,0.2-0.5,0.3c-0.5,0.4-1.3,1-2.3,1.2c-0.1,0-0.4,0.2-0.7,0.3c-0.6,0.3-1.3,0.6-2.2,0.7
		C103.9,136.9,103.8,136.9,103.7,136.9z M103.8,132.9L103.8,132.9L103.8,132.9z M101,132c0.9,0,1.7,0.4,2.3,0.6
		c0.1,0.1,0.3,0.1,0.4,0.2c0.2-0.1,0.5-0.2,0.8-0.3c0.5-0.2,1-0.5,1.6-0.6c0.1,0,0.5-0.3,0.7-0.5c0.4-0.3,0.9-0.6,1.5-0.9l0.2-0.1
		c0.8-0.3,1.4-0.5,1.8-0.8c0.5-0.4,0.8-0.8,1-1.3c0.2-0.4,0.2-1.1,0.2-1.9c0,0-0.2-0.3-0.3-0.5c-0.2-0.3-0.5-0.8-0.6-1.3
		c-0.3-0.8-0.4-1.1-0.7-1.4c-0.6-0.7-0.7-1.7-0.9-2.4c0-0.1,0-0.2,0-0.2c-0.2,0-0.6-0.1-1-0.1c-0.5,0.6-1.1,1.3-2.2,1.5
		c-0.6,0.1-1.3,0.2-1.9,0.2c-0.4,0-0.8,0.1-1.2,0.1c-0.1,0-0.5,0.2-0.7,0.3c-0.6,0.3-1.4,0.7-2.3,0.8c-0.6,0.1-1.3,0.1-1.9,0.1
		c-0.4,0-0.8,0-1.3,0.1c-0.7,0-1.4-0.1-2-0.2c-0.4-0.1-0.8-0.2-1.1-0.1c-0.8,0-1.4-0.1-2-0.3c-0.4-0.1-0.8-0.2-1.1-0.2
		c-0.4,0-0.8,0-1.3,0.1c-0.6,0-1.2,0.1-1.8,0.1c-0.3,0-0.6,0.1-1,0.2c-0.6,0.1-1.2,0.2-1.9,0.2c-0.9,0-1.6-0.3-2.2-0.5
		c-0.3-0.1-0.6-0.2-0.7-0.2c-0.3,0-0.5-0.1-0.8-0.1c-0.8-0.1-1.6-0.2-2.3-0.5c-1.3-0.5-1.9-1.5-2.3-2.1c-0.1-0.1-0.2-0.3-0.2-0.4
		c-0.1-0.1-0.2-0.2-0.4-0.3c-0.6-0.4-1.5-1-1.9-2.2c-0.3-0.8-0.3-1.6-0.3-2.3c0-0.3,0-0.6,0-0.9c-0.1-1,0-1.6,0.2-2.1
		c0.1-0.3,0.1-0.4,0.1-0.7c-0.1-0.6-0.1-0.8-0.2-1.1c-0.1-0.4-0.2-0.7-0.2-1.4c0,0-0.1-0.1-0.1-0.1c-0.6-0.4-1.7-1.2-1.9-2.8
		c-0.1-1.2,0.2-1.9,0.4-2.4c0.1-0.3,0.1-0.3,0.1-0.5c-0.1-0.7,0.1-1.4,0.2-1.9c0-0.2,0.1-0.6,0.1-0.8c-0.1-0.7,0-1.4,0-1.9
		c0-0.3,0.1-0.7,0-0.8c-0.1-0.4-0.3-0.8-0.6-1.3c-0.2-0.4-0.4-0.8-0.5-1.1c-0.2-0.5-0.5-1-0.8-1.5c-0.2-0.3-0.3-0.5-0.5-0.7
		c-0.1-0.1-0.4-0.4-0.7-0.6c-0.4-0.3-0.8-0.6-1.2-1c-0.2-0.3-0.5-0.6-0.7-0.9c-0.3-0.4-0.6-0.8-0.8-0.9c-0.2-0.1-0.4-0.3-0.6-0.4
		c-0.5-0.3-0.9-0.7-1.3-0.9c-0.1,0-0.4,0-0.6,0.1c-0.5,0.1-1.2,0.2-2,0.1c-0.9-0.2-1.6-0.7-2.1-1.2c-0.1-0.1-0.3-0.2-0.4-0.3
		c-0.2,0-0.5,0.2-0.8,0.3c-0.5,0.2-1.1,0.4-1.8,0.5c-0.8,0.1-1.8,0.3-2.8,0.5c-0.1,0-0.5,0.3-0.8,0.4c-0.5,0.3-1.1,0.7-1.8,0.9
		c-0.2,0.1-0.5,0.3-0.9,0.5c-0.5,0.3-1,0.6-1.7,0.9c-0.7,0.3-1.4,0.3-2.1,0.3c-0.4,0-0.8,0-1,0.1l-4.8,2.1l2.2-4.7
		c0.6-1.2,1.5-1.6,2.2-1.7c-0.1-0.7,0-1.6,0.8-2.4c0.7-0.8,1.7-1,2.5-1.2c0.1,0,0.3-0.1,0.4-0.1c0-0.1,0.1-0.3,0.1-0.5
		c0.2-0.6,0.4-1.4,1-2.1c0.5-0.5,1-0.9,1.4-1.2c0.3-0.2,0.6-0.4,0.7-0.6c0.7-0.7,1.5-1,2.2-1.3c0.2-0.1,0.4-0.1,0.5-0.2
		c0.1-0.1,0.2-0.4,0.3-0.7c0.2-0.5,0.5-1.2,1-1.8c0.1-0.1,0.2-0.4,0.3-0.7c0.2-0.6,0.5-1.3,1-2c0.8-0.9,1.9-1.1,2.7-1.2
		c0.1,0,0.1,0,0.2,0c0-0.1,0-0.2,0-0.2c0.1-0.8,0.1-1.9,0.9-2.7c0.4-0.4,0.8-0.8,1.2-1.2c0.3-0.3,0.6-0.5,0.8-0.8
		c0.6-0.7,1.4-1,2-1.3c0.2-0.1,0.5-0.2,0.6-0.3c0.1-0.2,0.3-0.5,0.5-0.8c0.3-0.5,0.6-1,1-1.5c0.5-0.5,1.1-0.9,1.5-1.2
		c0.3-0.2,0.6-0.4,0.7-0.5c0.4-0.4,0.8-0.8,1.2-1.2c0.2-0.2,0.4-0.4,0.6-0.6c0-0.2,0-0.4,0-0.5c0.1-0.8,0.1-2,1-2.8
		c0.7-0.6,1.4-0.9,2.1-1.1c0.2-0.1,0.5-0.2,0.6-0.2c0.8-0.8,1.5-1.5,2.1-2.1l0.1-0.1c0.3-0.3,0.4-0.6,0.5-1.1
		c0.1-0.4,0.3-0.9,0.5-1.4c0.3-0.5,0.6-0.9,0.8-1.2c0.1-0.1,0.3-0.3,0.3-0.4c-0.1-0.1-0.2-0.3-0.3-0.4c-0.3-0.3-0.6-0.7-0.9-1.2
		c-0.3-0.5-0.4-1-0.6-1.4c-0.1-0.2-0.2-0.5-0.2-0.6c-0.5-0.4-0.9-1-1.3-1.5c-0.1-0.2-0.3-0.5-0.5-0.6c-0.2,0-0.6,0.1-0.9,0.1
		c-0.5,0.1-1.1,0.2-1.7,0.2c-0.3,0-0.6,0.1-1.2,0.3c-0.6,0.2-1.4,0.4-2.5,0.7c-0.9,0.2-1.7,0-2.3-0.1c-0.2,0-0.5-0.1-0.6-0.1
		c-0.1,0.1-0.3,0.2-0.4,0.3c-0.5,0.5-1.3,1.1-2.3,1.3c-0.3,0.1-0.7,0.2-1.1,0.3c-0.5,0.2-1.1,0.3-1.8,0.5c-0.9,0.2-1.8-0.1-2.4-0.3
		C58.3,45.1,58,45,57.9,45c-0.7,0.1-1.3,0-1.9,0c-0.3,0-0.5-0.1-0.7-0.1c-0.1,0.1-0.2,0.3-0.3,0.4c-0.6,0.7-1.4,1.6-2.6,1.7
		c-0.9,0.1-1.6-0.1-2.2-0.2c-0.2-0.1-0.6-0.1-0.7-0.2c-0.3,0-0.7,0.1-1,0.3c-0.5,0.2-1.1,0.3-1.8,0.4c-0.8,0.1-1.5,0-2-0.1
		c-0.3-0.1-0.7-0.1-0.9-0.1c-0.4,0-0.8,0.1-1.2,0.2c-0.5,0.1-1.1,0.2-1.7,0.2c-0.8,0.1-1.6-0.1-2.2-0.3c-0.3-0.1-0.7-0.2-0.8-0.2
		c-1,0.1-2,0.1-2.9,0.1c-0.4,0-0.8,0.1-1.2,0.1c-0.5,0.1-1.1,0.1-1.7,0.1c-1.2,0-1.8-0.3-2.3-0.5c-0.3-0.1-0.4-0.2-0.9-0.2
		c-0.3,0-0.4,0-0.7,0.2c-0.5,0.2-1.2,0.5-2.4,0.5c-0.6,0-1.2,0.2-1.8,0.4l-0.1,0c-0.7,0.2-1.1,0.5-1.4,0.8c-0.3,0.4-0.7,0.7-1.1,0.9
		c-0.1,0.1-0.2,0.2-0.4,0.3c0,0,0,0,0,0.1c0.3,0.6,0.8,1.5,0.8,2.5c0,0.4,0.1,0.6,0.3,1.2l0.2,0.4c0.3,0.8,0.3,0.8,0.6,0.9
		c0.6,0.4,0.9,0.6,1.6,0.7c0.9,0.2,1.5,0.7,2,1.1c0.1,0.1,0.1,0.1,0.2,0.2c0,0,0.1-0.1,0.1-0.1c0.6-0.5,1.4-1.1,2.6-1.2
		c0.5,0,1-0.1,1.4-0.1c0.4,0,0.8-0.1,1.3-0.1c0.5,0,1,0,1.5,0c0.4,0,0.9,0,1.3,0c0.8-0.1,1.5,0.2,2.1,0.3c0.2,0.1,0.4,0.1,0.6,0.2
		c0.1-0.1,0.2-0.2,0.3-0.3c0.6-0.5,1.3-1.1,2.4-1.2c1.2-0.1,2.1,0.5,2.8,1c0.5-0.7,1.3-1.7,2.6-1.9c1.3-0.2,2.3,0.6,3,1.1
		c0.1,0,0.1,0.1,0.2,0.2c0.1,0,0.1-0.1,0.2-0.1c0.5-0.4,1.2-1,2.2-1.1c0.6-0.1,1.2-0.1,1.7-0.1c0.4,0,0.8,0,1.1,0
		c0,0,0.3-0.2,0.5-0.3c0.5-0.4,1.2-0.8,2.1-1c0.6-0.1,1.1-0.1,1.6-0.2c0.4,0,0.8-0.1,1.2-0.1c0.9-0.2,1.5,0,2,0.1
		c0.1,0,0.3,0.1,0.3,0.1l6.1-1.3L63,55.2c-0.5,0.6-1.1,0.9-1.5,1.1c-0.1,0.1-0.2,0.1-0.3,0.2c0,0.2,0,0.4,0,0.5c0,0.9-0.1,2-0.9,2.9
		c-0.8,0.8-1.8,1.1-2.6,1.2c-0.1,0-0.3,0.1-0.5,0.1c-0.1,0.1-0.1,0.4-0.2,0.5c-0.2,0.6-0.5,1.4-1.1,2c-0.7,0.7-1.5,1-2.2,1.3
		c-0.2,0.1-0.5,0.2-0.6,0.3c-0.1,0.1-0.2,0.4-0.4,0.7c-0.3,0.5-0.6,1.1-1.1,1.7c-0.6,0.7-1.3,1-1.9,1.3c-0.1,0.1-0.3,0.1-0.5,0.2
		c0,0.1,0,0.3,0,0.4c0,0.9,0,2.1-0.8,3c-0.5,0.5-1,0.9-1.4,1.2c-0.3,0.2-0.6,0.5-0.8,0.7c-0.4,0.5-0.9,0.8-1.3,1.2
		c-0.3,0.3-0.6,0.5-0.9,0.8c-0.1,0.1-0.2,0.5-0.3,0.7c-0.2,0.6-0.5,1.3-1.1,2c-0.5,0.5-1,0.9-1.4,1.2c-0.3,0.2-0.6,0.5-0.8,0.7
		c-0.2,0.2-0.3,0.5-0.5,0.9c-0.3,0.5-0.6,1.1-1.1,1.6c-0.6,0.7-1.3,1-1.9,1.3c-0.2,0.1-0.6,0.3-0.7,0.4c-0.2,0.3-0.5,0.6-0.7,1
		c-0.3,0.4-0.6,0.9-1,1.4c-0.4,0.5-0.9,0.9-1.4,1.2c-0.3,0.2-0.6,0.5-0.8,0.7c-0.3,0.4-0.6,0.7-0.9,1.1c-0.3,0.4-0.6,0.7-0.9,1.1
		c-0.2,0.2-0.4,0.5-0.6,0.9c-0.3,0.5-0.6,1-1,1.6c-0.3,0.4-0.7,0.7-1,1.1c-0.3,0.3-0.6,0.7-0.9,1c-0.2,0.3-0.4,0.6-0.7,1
		c-0.3,0.4-0.6,0.9-1,1.4c-0.3,0.3-0.5,0.7-0.8,1c-0.3,0.4-0.6,0.9-1,1.3c-0.2,0.2-0.3,0.5-0.5,0.9c-0.3,0.5-0.6,1.1-1,1.6
		c-0.7,0.8-1.7,1.1-2.4,1.3c-0.2,0.1-0.4,0.1-0.6,0.2c-0.3,0.4-0.6,0.7-1,1c-0.3,0.3-0.6,0.6-0.9,1c-0.3,0.3-0.5,0.7-0.8,1
		c-0.3,0.4-0.6,0.9-1,1.3c-0.6,0.6-1.2,1-1.8,1.3c-0.1,0.1-0.3,0.2-0.5,0.3c0,0.1,0,0.3,0,0.4c0,0.9,0,2-0.8,3
		c-0.2,0.2-0.4,0.6-0.6,0.9c-0.3,0.5-0.6,1-1,1.5c-0.8,1-2,1.2-2.9,1.4c-0.1,0-0.3,0.1-0.4,0.1c-0.2,0.3-0.4,0.5-0.6,0.8
		c-0.4,0.5-0.7,0.9-1,1.3c-0.3,0.3-0.3,0.8-0.5,1.3c-0.1,0.4-0.2,0.8-0.3,1.2c-0.2,0.5-0.5,0.9-0.7,1.3C4.2,124.4,4,124.8,4,125
		c0,0.1,0.3,0.6,0.5,0.9c0.2,0.3,0.4,0.6,0.5,0.9c0.1,0.3,0.6,0.7,1,1.1l0.3,0.3c0.3,0.3,0.8,0.4,1.4,0.7l0.3,0.1
		c0.7,0.3,1.2,0.8,1.7,1.2c0.1,0.1,0.3,0.3,0.4,0.4c0.8-0.1,1.8-0.4,2.5-0.9c0.6-0.5,1.7-1.8,2.2-2.5c0.3-0.4,0.7-0.9,1-1.3
		c0.3-0.4,0.6-0.7,0.9-1.1c0.1-0.2,0.2-0.5,0.4-0.9c0.2-0.5,0.4-1.2,0.9-1.8c0-0.1,0.1-0.5,0.1-0.7c0.1-0.7,0.1-1.7,0.8-2.6
		c0.7-0.9,1.8-1.2,2.5-1.5c0.2,0,0.4-0.1,0.5-0.2c0.3-0.3,0.5-0.7,0.7-1c0.3-0.4,0.6-0.9,0.9-1.3c0.5-0.6,1.1-1.1,1.6-1.4
		c0.3-0.2,0.6-0.4,0.7-0.6c0.2-0.2,0.3-0.6,0.5-0.9c0.2-0.5,0.5-1.2,1-1.7c0-0.1,0.1-0.4,0.2-0.7c0.2-0.7,0.4-1.5,1-2.3
		c0.4-0.5,0.9-0.9,1.3-1.3c0.3-0.3,0.6-0.5,0.9-0.8c0.4-0.5,0.9-0.9,1.4-1.2c0.3-0.3,0.7-0.5,0.9-0.8c0.1-0.1,0.3-0.5,0.5-0.8
		c0.3-0.6,0.7-1.2,1.3-1.8l0.3-0.3c1.2-0.7,2.5-0.4,3.4-0.2c0.1,0,0.2,0,0.3,0.1c0-0.1,0.1-0.2,0.1-0.3c0.3-0.8,0.7-1.8,1.8-2.4
		c1.1-0.6,2.3-0.4,3.1-0.2c0.1,0,0.2,0,0.3,0c0.1-0.1,0.1-0.3,0.2-0.4c0.4-0.8,0.9-2,2.1-2.5c0.9-0.3,1.8-0.4,2.5-0.4
		c0.4,0,0.7,0,0.9-0.1c1-0.2,1.9-0.2,2.7-0.1c0.3,0,0.5,0,0.8,0c1.3,0,2.2,0.7,2.9,1.1c0.2,0.1,0.4,0.3,0.5,0.3c0.1,0,0.4,0,0.6,0
		c0.9,0,2.3-0.1,3.3,1c0.8,0.8,1.6,2.1,2.1,3.3l0.2,0.4c0.4,0.8,0.8,1.8,1,3s-0.3,2.1-0.6,2.8c-0.1,0.2-0.3,0.5-0.3,0.7
		c0,1-0.2,1.7-0.3,2.1c-0.1,0.3-0.1,0.4-0.1,0.7c0,0.2,0,0.2,0.2,0.5c0.3,0.4,0.8,1.1,0.9,2.5c0,0.7,0.1,1.1,0.1,1.4
		c0,0.4,0.1,0.7,0.1,1.5c0.1,1.2-0.3,1.9-0.5,2.4c-0.1,0.3-0.1,0.3-0.1,0.5c0,0.3,0.2,0.7,0.3,1.1s0.3,0.9,0.4,1.4
		c0.1,0.1,0.3,0.3,0.4,0.4c0.4,0.5,1,1,1.2,1.9c0.4,1.1-0.1,2.2-0.4,3c0,0.1-0.1,0.2-0.1,0.3c0.2,0.2,0.5,0.4,0.7,0.6
		c0.3,0.3,0.6,0.5,0.8,0.8c0.1,0.1,0.4,0.1,0.6,0.2c0.6,0.1,1.3,0.3,1.9,0.8c0.8,0.5,1.2,1.3,1.5,1.9c0,0.1,0.1,0.2,0.2,0.3
		c0.1,0,0.2,0,0.3-0.1c0.7-0.1,1.6-0.3,2.6-0.1c0.7,0.2,1.3,0.6,1.7,0.9c0.1,0.1,0.3,0.2,0.5,0.3c0.1-0.1,0.2-0.1,0.3-0.2
		c0.7-0.4,1.7-0.9,2.8-0.8c0.6,0.1,1.1,0.2,1.5,0.4c0.4,0.1,0.8,0.2,1.1,0.3c0.9,0.1,1.5,0.5,2.1,0.8c0.2,0.1,0.5,0.3,0.6,0.3
		c0.6,0,1.2,0.1,1.9,0.1l0.9,0c0.2,0,0.6-0.1,0.9-0.1c0.5-0.1,1.2-0.2,1.9-0.2c0.8,0,1.5,0.3,2,0.5c0.2,0.1,0.5,0.2,0.7,0.2
		c0.1-0.1,0.3-0.2,0.5-0.3c0.6-0.4,1.4-0.9,2.4-0.9c0.7,0,1.3,0.1,1.8,0.2c0.4,0.1,0.7,0.1,0.9,0.1c0.6,0,1.1,0,1.6,0
		c0.4,0,0.8,0,1.2,0C100.9,132,100.9,132,101,132z M75.5,131.7L75.5,131.7L75.5,131.7z M70.9,130.8L70.9,130.8L70.9,130.8z
		 M61.8,123.9L61.8,123.9L61.8,123.9z M21.6,121.5L21.6,121.5L21.6,121.5z M21.9,121.1L21.9,121.1L21.9,121.1z M113,120.7
		C113,120.7,113,120.7,113,120.7C113,120.7,113,120.7,113,120.7z M104.7,118.3L104.7,118.3L104.7,118.3z M105,118.1
		C105,118.1,105,118.1,105,118.1C105,118.1,105,118.1,105,118.1z M21.7,117.2L21.7,117.2L21.7,117.2z M31.3,109.9L31.3,109.9
		L31.3,109.9z M59.9,103.2L59.9,103.2L59.9,103.2z M19.3,100.8L19.3,100.8L19.3,100.8z M48,97.8L48,97.8L48,97.8z M43.7,97.5
		L43.7,97.5L43.7,97.5z M60,75L60,75L60,75z M57.2,61.3L57.2,61.3L57.2,61.3z M29.4,59.6L29.4,59.6L29.4,59.6z M23.1,59.4L23.1,59.4
		L23.1,59.4z M71.3,58.9L71.3,58.9L71.3,58.9z M40.5,58.3L40.5,58.3L40.5,58.3z M51.6,57.4C51.6,57.4,51.6,57.4,51.6,57.4L51.6,57.4
		z M48.1,55L48.1,55L48.1,55z M17.5,52.4L17.5,52.4L17.5,52.4z M20.4,50.1C20.4,50.1,20.4,50.1,20.4,50.1
		C20.4,50.1,20.4,50.1,20.4,50.1z M55.4,44.8L55.4,44.8L55.4,44.8z M66.6,43L66.6,43L66.6,43z"/>
</g>
<path class="st1" d="M46.4,4.8c5.8,3.5,17.1,7.8,24.6,9.5c4,1,5.5,2.7,5.5,6.1c0,3.8-2.5,6.3-6.3,6.3c-4.3,0-16.3-4-24.4-8.1
	c-7-3.7-9.5-6-9.5-9.1c0-3.3,2.8-6.1,6-6.1C43.6,3.3,44.1,3.5,46.4,4.8z"/>
<g>
	<path class="st0" d="M163.2,44.8c-0.9,0-1.7-0.3-2.5-0.6c-0.7-0.4-2.1-0.4-2.7-1c-0.5-0.6-0.2-2-0.5-2.8c-0.3-0.8-0.3-1.6-0.3-2.4
		c0-1-0.6-2.3-0.1-3.2c0.5-0.9,2-1,2.8-1.5c0.7-0.4,0.6-1.9,2.4-2.3c0.7-0.2,2,1.6,3.3,1.4c1-0.2,1.5-2.2,2.5-2.4
		c0.9-0.2,2.4,1.8,3.3,1.6c0.9-0.2,1.5-2,2.4-2.3c0.9-0.2,2.3,1.1,3.2,0.9c0.9-0.2,1.5-1.7,2.5-2c0.9-0.3,1.5-1.6,2.5-1.9
		c0.9-0.3,2.1,0.4,3.1,0.1c0.9-0.3,1.9-0.4,2.8-0.7c0.9-0.3,1.5-1.5,2.4-1.8c0.9-0.3,2.2,0.4,3.1,0c0.9-0.3,1.8-0.8,2.7-1.1
		c0.9-0.3,1.5-1.6,2.4-1.9c0.9-0.3,2.1,0,3-0.4c0.9-0.3,1.9-0.4,2.8-0.8c0.9-0.4,1.8-0.6,2.8-0.9c0.9-0.4,1.9-0.4,2.8-0.8
		c0.9-0.4,1.6-0.5,2.1-0.7c0.9-0.3,1.3-1.4,2.1-1.4c1,0,2,0.4,2.9,0.7c0.9,0.4,1.7,1,2.4,1.7c0.7,0.7,1.7,1.3,2.1,2.3
		c0.3,0.9-1,2.1-1,3.1c0,1.3,0.7,2,0.2,2.8c-0.4,0.7-0.1,2.2-1.1,3.1c-0.6,0.5-2.2,0.2-3.2,1c-0.7,0.6-1.9,0.9-2.6,1.6
		c-0.7,0.7-0.7,2.1-1.4,2.8c-0.7,0.7-1.7,1.1-2.4,1.8c-0.6,0.7-0.4,2.2-1,3c-0.6,0.8-0.9,1.8-1.5,2.5c-0.6,0.8-2.2,0.8-2.8,1.6
		c-0.6,0.8-1.3,1.5-1.8,2.3c-0.6,0.8-0.2,2.3-0.7,3.1c-0.6,0.8-2.1,1-2.6,1.8c-0.5,0.8-1.5,1.4-2,2.3c-0.5,0.9-0.9,1.8-1.4,2.6
		c-0.5,0.9,0.6,2.6,0.1,3.4c-0.5,0.9-2.2,1.1-2.7,2c-0.4,0.8-1.5,1.4-1.9,2.2c-0.4,0.8-0.8,1.7-1.1,2.6c-0.3,0.9,0.3,2.1,0,3
		c-0.3,0.9,0.8,2.2,0.5,3.1c-0.3,0.9-0.8,1.6-1.1,2.5c-0.3,0.9-1.9,1.4-2.1,2.3c-0.2,0.9,0.7,2.1,0.5,3c-0.2,0.9-2.2,1.5-2.4,2.4
		c-0.2,0.9,0.8,2,0.7,2.9c-0.1,0.9-0.5,1.8-0.6,2.7c-0.1,0.9-0.4,1.9-0.4,2.8c0,0.9,1.6,1.9,1.6,2.8c0,1-0.6,1.9-0.5,2.8
		c0.1,1-0.3,1.9-0.2,2.8c0.1,0.9,0.1,1.9,0.3,2.8c0.2,0.9,0.5,1.8,0.8,2.7c0.3,0.9,0.6,1.8,1,2.6c0.4,0.9,0.7,1.7,1.2,2.6
		c0.4,0.8,1.4,1.4,1.9,2.1c0.5,0.8,1.1,1.4,1.7,2.2c0.6,0.7,0.8,1.7,1.5,2.4c0.7,0.7,0.7,2.1,1.5,2.7c0.7,0.6,2.2,0.1,3,0.6
		c0.8,0.5,1,2.2,1.8,2.6c0.8,0.4,1.8,0.7,2.7,1c0.9,0.3,1.9,0.3,2.9,0.5c0.9,0.2,2-1,3-0.9c0.9,0.1,1.8,0.9,2.7,0.9
		c1,0,1.9,0,2.8-0.1c1-0.1,2.1,1.1,3,0.9c0.9-0.1,1.5-2.3,2.4-2.5c0.9-0.2,2,0,2.8-0.3c0.9-0.3,1.5-1.3,2.3-1.7
		c0.9-0.4,2.1,0,2.9-0.4c0.8-0.5,1.4-1.3,2.2-1.8c0.8-0.5,0.9-1.8,1.7-2.4c0.7-0.6,2.1-0.5,2.7-1.1c0.7-0.7,0.9-1.7,1.5-2.4
		c0.6-0.7,2.2-0.6,2.8-1.4c0.5-0.8-0.4-2.5,0.1-3.3c0.5-0.8,2.4-0.8,2.8-1.6c0.4-0.8-0.1-2.1,0.3-3c0.4-0.8,1.1-1.6,1.4-2.5
		c0.3-0.9,1.5-1.5,1.8-2.4c0.3-0.9,1.3-1.6,1.6-2.5c0.2-0.9-1.3-2.3-1.1-3.2c0.2-0.9,1-1.7,1.2-2.6c0.2-0.9,0.5-1.8,0.7-2.8
		c0.1-0.9,0.5-1.8,0.6-2.8c0.1-0.9-0.9-2-0.8-2.9c0.1-0.9,0.7-1.8,0.8-2.8c0.1-0.9,0.5-1.9,0.5-2.8c0-0.9,0.9-1.9,0.9-2.9
		c0-0.9-0.7-1.9-0.7-2.8c0-0.9-1.1-1.8-1.1-2.8c0-0.9-0.2-1.9-0.3-2.8c0-0.9,0.4-1.9,0.3-2.8c-0.1-0.9,0.7-1.9,0.6-2.9
		c-0.1-0.9,0.4-1.9,0.3-2.9c-0.1-0.9-1.6-1.7-1.7-2.7c-0.1-0.9,0.5-1.9,0.4-2.9c-0.1-0.9,0.5-2,0.4-2.9c-0.1-0.9-1-1.8-1.1-2.7
		c-0.2-0.9-2-1.5-2.2-2.5c-0.2-0.9,1.1-2.1,0.9-3c-0.2-0.9-1.4-1.6-1.6-2.5c-0.2-0.9,0.7-2.1,0.5-3c-0.2-0.9-0.7-1.8-0.9-2.7
		c-0.3-0.9,0.4-2.1,0.1-3c-0.3-0.9-1.6-1.5-1.9-2.3c-0.3-1.3-0.7-1.8-0.7-2.8c0-0.9,0.7-1.6,1.2-2.4c0.4-0.8,0.4-2,1.2-2.5
		c0.7-0.5,1.4-1.7,2.3-2c0.8-0.2,2,0.1,2.9,0.1c1.2,0,2.3,0.3,3.1,0.7c0.8,0.3,1.8,1.1,2.4,2c0.5,0.6-0.5,2.3,0,3.3
		c0.5,0.9,2,1.2,2.5,2c0.5,0.9,0.4,2.1,0.8,2.9c0.5,0.9,0.5,2,1,2.9c0.5,0.9,1,1.7,1.5,2.5c0.5,0.9,1.9,1.2,2.4,2
		c0.5,0.9,0.6,2,1.1,2.8c0.5,0.8,1.2,1.6,1.7,2.4c0.5,0.8,2,1.1,2.5,1.9c0.5,0.8-0.1,2.4,0.4,3.3c0.5,0.8,1.6,1.3,2.1,2.1
		c0.6,0.8,1.2,1.6,1.8,2.4c0.6,0.8,0.2,2.3,0.7,3.1c0.6,0.8,2.3,0.8,2.9,1.6c0.6,0.8,0.7,1.9,1.3,2.7c0.6,0.8,1.3,1.5,1.9,2.3
		c0.6,0.8,1.9,1,2.5,1.7c0.6,0.8,1.4,1.3,2.1,2.1c0.7,0.7,1.4,1.4,2.1,2.1c0.7,0.7,0.9,1.8,1.6,2.5c0.7,0.7,0.4,2.5,1.1,3.1
		c0.9,0.9,1.3,1.5,1.8,2.2c0.6,0.9,2.9,1.2,2.9,2.3c0,0.8-0.8,1.9-1.2,2.7c-0.3,0.8-1.5,1.1-2.1,1.7c-0.6,0.6-0.4,2.6-1.2,3
		c-0.8,0.4-2.2-0.5-3.1-0.5c-1,0-1.9-0.2-2.7-0.6c-0.7-0.4-2.1-0.2-2.9-1c-0.6-0.6-1.7-1-2.4-1.8c-0.6-0.7-0.5-2-1.1-2.7
		c-0.6-0.7,0.2-2.5-0.4-3.3c-0.6-0.7-2.3-0.5-2.9-1.3c-0.6-0.7-1.1-1.5-1.7-2.2c-0.5-0.7-1-1.6-1.5-2.3c-0.5-0.8-0.6-1.8-1.1-2.6
		c-0.5-0.8-1.2-1.4-1.8-2.2c-0.5-0.8-2.1-0.9-2.6-1.7c-0.5-0.8,0.5-2.5,0-3.3c-0.5-0.8-2.1-0.9-2.6-1.7c-0.5-0.8-0.4-1.9-0.9-2.7
		c-0.5-0.8-1.9-1.1-2.3-1.9c-0.4-0.8,1.1-2.7,0.7-3.5c-0.4-0.8-1.4-1.3-1.9-2.2c-0.4-0.8-1.3-0.8-1.7-1.6c0.2,0.9,1.4,1.1,1.5,2
		c0.2,0.9-1.6,2.2-1.5,3.1c0.2,0.9,0.8,1.7,0.9,2.7c0.2,0.9,0.1,1.9,0.2,2.8c0.1,0.9,1.6,1.7,1.7,2.6c0.1,0.9,0,1.9,0.2,2.8
		c0.1,0.9,0.6,1.8,0.7,2.7c0.1,0.9,0.4,1.8,0.5,2.8c0.1,0.9,0.1,1.9,0.2,2.8c0.1,0.9-1.2,2-1.2,2.9c0.1,0.9,0.7,1.8,0.7,2.8
		c0,0.9-0.7,1.9-0.7,2.8c0,0.9-0.1,1.9-0.1,2.8c0,0.9,1.2,1.9,1.1,2.8c0,0.9-0.9,1.8-1,2.8c0,0.9,0.5,1.9,0.4,2.8
		c-0.1,0.9-0.9,1.8-1,2.7c-0.1,0.9-0.3,1.8-0.4,2.7c-0.1,0.9,1.6,2.2,1.5,3.1c-0.2,0.9-1.2,1.7-1.4,2.6c-0.2,0.9-0.7,1.8-1,2.7
		c-0.2,0.9-0.7,1.8-0.9,2.6c-0.3,0.9,0.8,2.3,0.4,3.1c-0.3,0.9-1.2,1.6-1.6,2.4c-0.4,0.9-0.9,1.7-1.3,2.5c-0.4,0.8-1.3,1.5-1.7,2.3
		c-0.5,0.8-1.4,1.3-1.9,2.1c-0.5,0.8-1.5,1.2-2.1,1.9c-0.6,0.8-0.7,1.8-1.3,2.6c-0.6,0.7-1.3,1.3-2,2c-0.7,0.7-0.7,2-1.4,2.6
		c-0.7,0.6-1.5,1.2-2.2,1.8c-0.7,0.6-1.7,0.9-2.4,1.5c-0.8,0.5-1,2-1.8,2.5c-0.8,0.5-1.9,0.7-2.7,1.1c-0.8,0.4-1.8,0.7-2.7,1.1
		c-0.9,0.4-1.7,0.9-2.6,1.3c-0.9,0.3-1.8,0.8-2.7,1c-0.9,0.3-2-0.2-3,0c-0.9,0.2-1.7,1.3-2.6,1.4c-0.9,0.2-2-0.5-3-0.4
		c-0.9,0.1-1.9-0.2-2.9-0.2c-0.9,0.1-1.9,1.3-2.8,1.3c-1,0-2-0.5-2.9-0.6c-1-0.1-2.1,0.8-3,0.7c-1-0.1-1.6-2.7-2.5-2.9
		c-1-0.2-1.8-0.5-2.7-0.7c-0.9-0.3-2.2,0.7-3.1,0.3c-0.9-0.3-1.4-1.7-2.3-2.1c-0.9-0.4-2.8,1.2-3.7,0.8c-0.9-0.5-1-2.1-1.8-2.7
		c-0.8-0.6-1.9-0.8-2.6-1.4c-0.7-0.6-1.4-1.4-2.1-2.1c-0.7-0.7-1.1-1.6-1.8-2.4c-0.6-0.7-1-1.7-1.6-2.5c-0.6-0.8-1.2-1.5-1.7-2.3
		c-0.5-0.8-1-1.7-1.4-2.5c-0.4-0.9-2-1.3-2.3-2.2c-0.4-0.9,1.3-2.5,1-3.5c-0.3-0.9-2.6-1.3-2.9-2.2c-0.2-0.9,1.3-2.3,1.1-3.3
		c-0.2-0.9-1.8-1.7-2-2.6c-0.1-0.9,0.9-2.1,0.8-3.1c-0.1-1,1.1-2,1-3c0-1-2.4-1.9-2.4-2.9c0-0.9,0.7-1.9,0.7-2.9
		c0-0.9-0.5-2-0.4-2.9c0.1-0.9,0.9-1.8,1-2.8c0.1-0.9,0.5-1.8,0.7-2.8c0.2-0.9,0-1.9,0.2-2.9c0.2-0.9-0.2-2,0.1-2.9
		c0.2-0.9,0.1-2,0.4-2.9c0.3-0.9,1.7-1.5,2-2.4c0.3-0.9,1.8-1.4,2.1-2.3c0.3-0.9-0.5-2.2-0.2-3.1c0.3-0.9-0.1-2.1,0.3-3
		c0.4-0.9,2.2-1.1,2.6-2c0.4-0.9,1.2-1.5,1.6-2.4c0.4-0.9-1.2-2.7-0.7-3.6c0.4-0.8,2.1-1,2.6-1.9c0.5-0.8,0.1-2.1,0.6-2.9
		c0.5-0.8,2.8-0.5,3.3-1.3c0.5-0.8-0.1-2.4,0.4-3.1c0.5-0.8,0.3-2.1,0.9-2.9c0.6-0.8,2.5-0.5,3.1-1.2c0.6-0.7,1.3-1.4,1.9-2.1
		c0.6-0.7,0.7-1.9,1.4-2.6c0.6-0.7,1.6-1.1,2.2-1.8c0.7-0.7,0.7-2,1.4-2.7c0.7-0.7,2.6,0,3.3-0.6c0.7-0.6,0.9-2.3,1.6-2.8
		c-0.8,0.4-1.9,0.9-2.8,1.3c-0.8,0.4-2.2-0.3-3,0.1c-0.8,0.4-0.8,2.7-1.7,3.1c-0.9,0.4-2.1-0.1-3,0.3c-0.9,0.4-2.1-0.3-3,0.1
		c-0.9,0.4-0.9,2.9-1.8,3.2c-0.9,0.3-2.2-0.4-3.1-0.1c-0.9,0.3-2.1-0.2-3,0.1c-0.9,0.3-1.3,2.1-2.2,2.4c-0.9,0.3-2.4-1.1-3.3-0.8
		c-0.9,0.3-1.2,2.3-2.1,2.6c-0.9,0.3-2.2-0.4-3-0.2c-0.9,0.3-1.6,1.4-2.5,1.7c-1,0.3-2.3-1.2-3.2-0.9c-1,0.3-1.8,0.7-2.6,0.9
		C164.6,43.6,163.9,44.8,163.2,44.8z"/>
	<path class="st0" d="M206.3,139.2c-0.1,0-0.3,0-0.4,0c-1.5-0.2-2.2-1.5-2.8-2.5c-0.1-0.2-0.2-0.4-0.3-0.5c-0.6-0.1-1.1-0.3-1.6-0.4
		c-0.2-0.1-0.5-0.1-0.7-0.2c-0.1,0-0.4,0.1-0.6,0.1c-0.7,0.2-1.7,0.5-2.8,0.1c-1-0.4-1.6-1.1-2.1-1.7c0-0.1-0.1-0.1-0.2-0.2
		c-0.1,0.1-0.3,0.1-0.4,0.2c-1,0.4-2.3,1-3.6,0.3c-1-0.6-1.5-1.5-1.8-2.3c-0.1-0.2-0.2-0.4-0.3-0.6c-0.2-0.1-0.5-0.2-0.8-0.4
		c-0.6-0.3-1.3-0.5-1.9-1.1c-0.6-0.5-1.1-1-1.6-1.5c-0.2-0.2-0.4-0.5-0.7-0.7c-0.5-0.5-0.9-1.1-1.3-1.6c-0.2-0.3-0.4-0.6-0.6-0.9
		c-0.5-0.6-0.8-1.2-1.1-1.7c-0.2-0.3-0.3-0.6-0.6-0.9c-0.2-0.3-0.4-0.5-0.6-0.8c-0.4-0.5-0.8-1-1.2-1.7l-0.3-0.5
		c-0.4-0.7-0.8-1.3-1.2-2.1c-0.1-0.1-0.3-0.3-0.5-0.4c-0.6-0.4-1.5-1-1.9-2.1c-0.5-1.3,0.1-2.5,0.6-3.4c0,0,0,0,0-0.1c0,0,0,0-0.1,0
		c-0.9-0.4-2.2-1.1-2.5-2.4c-0.3-1.2,0.3-2.3,0.7-3.1c0-0.1,0.1-0.2,0.2-0.3c-0.1-0.1-0.1-0.1-0.2-0.2c-0.6-0.6-1.4-1.3-1.6-2.5
		c-0.1-1,0.3-2,0.5-2.6c0.1-0.2,0.2-0.5,0.2-0.6c-0.1-1,0.4-1.9,0.7-2.5c0,0,0.1-0.1,0.1-0.2c-0.1-0.1-0.2-0.1-0.2-0.2
		c-0.8-0.7-2-1.6-2-3c0-0.8,0.3-1.6,0.5-2.2c0.1-0.3,0.2-0.6,0.2-0.8c0-0.2-0.1-0.5-0.1-0.9c-0.1-0.6-0.3-1.3-0.2-2.1
		c0.1-0.8,0.4-1.5,0.7-2.1c0.1-0.3,0.3-0.6,0.3-0.7c0.1-0.7,0.3-1.3,0.4-1.8c0.1-0.4,0.2-0.7,0.3-1.1c0-0.3,0.1-0.7,0.1-1.1
		c0-0.6,0-1.2,0.2-1.9c0-0.2,0-0.5,0-0.9c0-0.6-0.1-1.3,0.1-2.1c0.1-0.3,0.1-0.6,0.1-1c0-0.6,0.1-1.2,0.3-1.9c0.3-1,1-1.7,1.6-2.2
		c0.1-0.1,0.3-0.3,0.4-0.4c0.3-1,1.1-1.6,1.7-2c0.1-0.1,0.2-0.2,0.3-0.2c0-0.1-0.1-0.3-0.1-0.4c-0.2-0.7-0.4-1.7,0-2.7
		c0-0.1,0-0.4,0-0.7c0-0.7-0.1-1.5,0.3-2.4c0.5-1.1,1.5-1.6,2.3-2c0.1-0.1,0.4-0.2,0.5-0.3c0.3-0.5,0.6-1,0.9-1.4
		c0.1-0.2,0.2-0.3,0.3-0.4c-0.1-0.2-0.1-0.3-0.2-0.5c-0.4-0.9-1-2.2-0.3-3.5c0.5-1,1.5-1.5,2.2-1.8c0.1-0.1,0.3-0.1,0.4-0.2
		c0-0.1,0-0.3,0-0.5c0-0.7,0.1-1.6,0.6-2.4c0.7-1.2,2-1.4,3-1.6c0.1,0,0.1,0,0.2,0c0,0,0-0.1,0-0.1c0-0.8-0.1-1.9,0.6-2.8
		c0-0.1,0.1-0.4,0.1-0.6c0.1-0.7,0.3-1.5,0.8-2.3c0.8-1,1.9-1.2,2.8-1.4c0.2,0,0.4-0.1,0.5-0.1c0.3-0.4,0.7-0.7,1-1.1
		c0.3-0.3,0.5-0.5,0.8-0.8c0.1-0.1,0.2-0.5,0.3-0.7c0.2-0.5,0.4-1.1,0.9-1.7c-0.8,0.2-1.5,0.1-2.1,0c0,0-0.1,0-0.1,0
		c0,0.1-0.1,0.2-0.1,0.3c-0.3,1-0.7,2.4-2.1,2.9c-1,0.4-1.9,0.2-2.6,0.1c-0.2,0-0.4-0.1-0.6-0.1c-0.9,0.3-1.7,0.2-2.3,0.1
		c-0.1,0-0.3,0-0.4,0c-0.1,0.1-0.2,0.2-0.2,0.3c-0.4,0.7-1,1.6-2.1,2c-1.2,0.4-2.4-0.1-3.2-0.5c0,0,0,0,0,0c0,0,0,0,0,0.1
		c-0.4,0.8-1,1.8-2.2,2.2c-1,0.3-1.9,0.1-2.6,0c-0.2,0-0.4-0.1-0.5-0.1c-0.1,0.1-0.3,0.3-0.5,0.4c-0.5,0.4-1.1,1-2,1.3
		c-1.3,0.4-2.4-0.2-3.2-0.6c-0.1-0.1-0.3-0.1-0.4-0.2c-0.2,0.1-0.5,0.2-0.8,0.3c-0.5,0.2-1,0.4-1.7,0.5c-0.1,0-0.5,0.3-0.7,0.5
		c-0.5,0.4-1.3,1-2.3,1c-1.1,0-2.3-0.3-3.4-0.9c-0.1,0-0.4-0.1-0.6-0.2c-0.8-0.2-1.9-0.4-2.7-1.3c-0.8-0.9-0.8-2.1-0.8-2.9
		c0-0.2,0-0.5,0-0.6c-0.4-1-0.4-2-0.4-2.9l0-0.2c0-0.2-0.1-0.5-0.1-0.8c-0.2-0.9-0.4-2.2,0.2-3.4c0.7-1.2,1.9-1.7,2.8-2
		c0.2-0.1,0.4-0.1,0.5-0.2c0,0,0,0,0-0.1c0.4-0.7,1.1-2.1,3.1-2.5c1.1-0.3,2,0.4,2.7,0.8c0.1,0.1,0.3,0.2,0.4,0.3
		c0-0.1,0.1-0.1,0.1-0.2c0.5-0.7,1.2-1.7,2.4-2c1.4-0.3,2.5,0.5,3.3,1.2c0,0,0.1,0,0.1,0.1c0.5-0.7,1.2-1.6,2.3-1.9
		c1.2-0.3,2.2,0.2,3,0.6c0.1,0,0.2,0.1,0.3,0.1c0.1-0.1,0.1-0.2,0.2-0.2c0.5-0.5,1.1-1.2,2.1-1.6c0.1-0.1,0.3-0.3,0.4-0.4
		c0.5-0.5,1.1-1.2,2.1-1.5c0.9-0.3,1.7-0.1,2.4,0c0.2,0,0.6,0.1,0.7,0.1c0.5-0.2,1-0.3,1.5-0.4c0.4-0.1,0.9-0.2,1.2-0.3
		c0,0,0.3-0.3,0.4-0.4c0.5-0.5,1.1-1.1,2-1.4c0.9-0.3,1.8-0.2,2.5-0.1c0.2,0,0.5,0.1,0.6,0.1c0.4-0.1,0.8-0.3,1.2-0.5
		c0.5-0.2,0.9-0.4,1.4-0.6c0,0,0.2-0.3,0.4-0.4c0.5-0.5,1.1-1.1,2-1.5c0.8-0.3,1.5-0.3,2.1-0.3c0.3,0,0.7,0,0.8-0.1
		c0.6-0.2,1.2-0.4,1.7-0.5c0.4-0.1,0.8-0.2,1.1-0.3c0.5-0.2,1-0.3,1.5-0.5c0.4-0.1,0.9-0.3,1.3-0.4c0.6-0.2,1.2-0.4,1.7-0.5
		c0.4-0.1,0.8-0.2,1.1-0.3c0.8-0.3,1.4-0.5,2-0.7l0.3-0.1c0.1-0.1,0.2-0.2,0.2-0.2c0.4-0.4,1.2-1.2,2.5-1.2c1.3,0,2.5,0.4,3.6,0.9
		c1.1,0.5,2.2,1.2,3.1,2.1c0.2,0.2,0.3,0.3,0.5,0.5c0.7,0.6,1.5,1.3,2,2.5c0.5,1.3-0.1,2.5-0.6,3.3c-0.1,0.2-0.2,0.4-0.3,0.6
		c0,0.2,0.1,0.5,0.1,0.7c0.2,0.7,0.5,1.7-0.1,2.9c0,0.1,0,0.3-0.1,0.4c-0.1,0.8-0.4,2.2-1.5,3.3c-0.7,0.7-1.7,0.8-2.4,0.9
		c-0.3,0-0.7,0.1-0.9,0.2c-0.5,0.4-1.1,0.7-1.6,0.9c-0.4,0.2-0.7,0.4-0.9,0.5c0,0-0.1,0.4-0.2,0.6c-0.2,0.7-0.5,1.5-1.1,2.2
		c-0.5,0.5-1,0.9-1.5,1.2c-0.3,0.2-0.6,0.4-0.8,0.6c0,0.1-0.1,0.4-0.1,0.6c-0.1,0.7-0.3,1.7-0.9,2.5c-0.2,0.2-0.3,0.6-0.5,0.9
		c-0.2,0.5-0.5,1-1,1.6c-0.7,0.8-1.6,1.2-2.3,1.4c-0.2,0.1-0.4,0.2-0.6,0.2c-0.3,0.3-0.5,0.7-0.8,1c-0.3,0.4-0.6,0.7-0.9,1.1
		c0,0.1-0.1,0.4-0.1,0.6c-0.1,0.7-0.1,1.6-0.7,2.5c-0.6,0.9-1.5,1.3-2.1,1.6c-0.2,0.1-0.4,0.2-0.6,0.3c-0.4,0.6-0.8,1-1.2,1.4
		c-0.3,0.3-0.6,0.5-0.7,0.7c-0.3,0.5-0.5,0.9-0.8,1.4c-0.2,0.3-0.3,0.6-0.5,0.9c0,0.2,0.1,0.4,0.1,0.6c0.2,0.8,0.5,2-0.1,3.1
		c-0.5,1-1.5,1.5-2.2,1.9c-0.2,0.1-0.4,0.2-0.5,0.3c-0.4,0.6-0.9,1.1-1.3,1.5c-0.2,0.2-0.4,0.4-0.5,0.5l-0.3,0.6
		c-0.3,0.6-0.5,1.2-0.8,1.8c0,0.1,0,0.4,0.1,0.6c0.1,0.6,0.2,1.4,0,2.2c0,0.1,0.1,0.3,0.2,0.5c0.3,0.7,0.6,1.8,0.3,2.8
		c-0.2,0.5-0.4,1-0.6,1.5c-0.2,0.4-0.3,0.7-0.4,1c-0.3,1.1-1.2,1.7-1.8,2.2c-0.1,0-0.1,0.1-0.2,0.1c0,0.1,0.1,0.2,0.1,0.2
		c0.2,0.7,0.5,1.5,0.3,2.5c-0.3,1.2-1.3,1.9-2.1,2.4c0,0-0.1,0.1-0.2,0.1c0,0,0,0.1,0.1,0.1c0.3,0.6,0.6,1.5,0.5,2.5
		c-0.1,0.5-0.2,1.1-0.3,1.5c-0.1,0.4-0.2,0.8-0.2,1.1c0,0.5-0.1,1-0.2,1.4c-0.1,0.3-0.1,0.6-0.2,0.9c0.1,0.1,0.2,0.2,0.3,0.4
		c0.5,0.6,1.3,1.5,1.3,2.7c0,0.8-0.2,1.4-0.4,1.9c-0.1,0.2-0.2,0.6-0.2,0.7c0,0.7,0,1.3-0.1,1.8c-0.1,0.4-0.1,0.7-0.1,0.9
		c0.1,0.4,0.1,0.9,0.1,1.3c0,0.5,0.1,1,0.2,1.4c0.1,0.6,0.3,1.2,0.5,1.9l0.2,0.7c0.2,0.6,0.4,1.3,0.7,1.9l0.2,0.6
		c0.3,0.8,0.7,1.6,1.1,2.4c0.1,0.2,0.3,0.4,0.6,0.6c0.4,0.3,0.8,0.8,1.2,1.3c0.3,0.4,0.6,0.8,1,1.2c0.2,0.2,0.4,0.5,0.6,0.8
		c0.4,0.5,0.7,1,0.9,1.5c0.2,0.3,0.3,0.6,0.4,0.8c0.6,0.6,0.9,1.4,1.1,2c0,0.1,0.1,0.3,0.2,0.4c0.1,0,0.3,0,0.4,0
		c0.7,0,1.6,0,2.5,0.6c0.9,0.5,1.3,1.5,1.6,2.1c0.1,0.1,0.2,0.3,0.2,0.5c0.6,0.3,1.3,0.5,2,0.7l0.4,0.1c0.3,0.1,0.8,0.2,1.3,0.2
		c0.4,0,0.7,0.1,1.1,0.2c0.1-0.1,0.3-0.2,0.4-0.2c0.6-0.3,1.5-0.8,2.6-0.7c0.8,0.1,1.4,0.4,2,0.7c0.2,0.1,0.5,0.3,0.6,0.3
		c0.8,0,1.8,0,2.7-0.1c1-0.1,1.9,0.4,2.5,0.7c0,0,0.1,0,0.1,0.1c0-0.1,0.1-0.1,0.1-0.2c0.5-0.8,1.2-1.8,2.4-2.1
		c0.7-0.2,1.3-0.2,1.8-0.2c0.3,0,0.7,0,0.9,0c0.1,0,0.4-0.3,0.5-0.5c0.4-0.4,0.9-0.9,1.6-1.2c0.8-0.4,1.6-0.4,2.2-0.4
		c0.2,0,0.5,0,0.6,0c0.1-0.1,0.4-0.4,0.7-0.6c0.3-0.3,0.7-0.7,1.2-1.1c0,0,0.1-0.3,0.2-0.5c0.3-0.5,0.6-1.2,1.3-1.8
		c0.7-0.6,1.5-0.8,2.1-0.9c0.2,0,0.4-0.1,0.5-0.1c0.1-0.1,0.2-0.4,0.3-0.7c0.2-0.5,0.5-1.1,1-1.6c0.7-0.8,1.6-1.1,2.3-1.3
		c0,0,0.1,0,0.1,0c0,0,0-0.1,0-0.1c-0.1-0.8-0.3-2,0.3-3c0.6-1,1.7-1.4,2.4-1.6c0.1,0,0.2-0.1,0.3-0.1c0-0.1,0-0.2,0-0.2
		c0-0.7-0.1-1.6,0.3-2.5c0.2-0.5,0.5-1,0.8-1.4c0.2-0.3,0.4-0.7,0.6-1c0.3-0.8,0.9-1.4,1.3-1.8c0.2-0.2,0.4-0.4,0.5-0.5
		c0.2-0.7,0.7-1.3,1.1-1.8c0.1-0.1,0.2-0.2,0.3-0.3c-0.1-0.1-0.1-0.2-0.2-0.3c-0.5-0.8-1.1-1.8-0.8-3.1c0.2-0.7,0.5-1.3,0.8-1.8
		c0.2-0.3,0.3-0.6,0.4-0.8c0.1-0.5,0.2-0.9,0.3-1.4c0.1-0.5,0.2-0.9,0.3-1.3c0.1-0.5,0.2-1,0.3-1.4c0.1-0.4,0.2-0.8,0.2-1.2
		c0-0.1-0.1-0.4-0.2-0.5c-0.3-0.6-0.7-1.5-0.6-2.4c0.1-0.7,0.3-1.4,0.5-1.9c0.1-0.3,0.3-0.7,0.3-0.8c0-0.6,0.2-1.2,0.3-1.7
		c0.1-0.4,0.2-0.8,0.2-1.1c0-0.9,0.4-1.6,0.6-2.2c0.1-0.2,0.3-0.5,0.3-0.7c0-0.1-0.1-0.4-0.2-0.7c-0.2-0.5-0.4-1.2-0.5-2
		c0-0.1-0.2-0.4-0.3-0.5c-0.3-0.6-0.8-1.4-0.8-2.3c0-0.4-0.1-0.8-0.1-1.3c-0.1-0.5-0.1-1-0.1-1.5c0-0.7,0.1-1.4,0.2-1.9
		c0.1-0.3,0.1-0.7,0.1-0.9c-0.1-0.9,0.2-1.6,0.4-2.2c0.1-0.2,0.2-0.5,0.2-0.6c-0.1-0.7,0.1-1.3,0.2-1.9c0-0.3,0.1-0.5,0.1-0.7
		c-0.1-0.1-0.2-0.3-0.3-0.4c-0.5-0.6-1.2-1.3-1.3-2.4c-0.1-0.8,0.1-1.5,0.2-2.1c0.1-0.2,0.1-0.6,0.1-0.7c-0.1-0.8,0.1-1.6,0.2-2.2
		c0.1-0.2,0.1-0.6,0.1-0.7c0-0.1-0.2-0.4-0.3-0.7c-0.2-0.4-0.5-1-0.7-1.6c-0.1-0.1-0.3-0.2-0.4-0.3c-0.7-0.5-1.6-1.2-1.9-2.5
		c-0.2-1.1,0.3-2.1,0.6-2.8c0-0.1,0.1-0.2,0.1-0.3c-0.1-0.1-0.2-0.2-0.2-0.3c-0.4-0.5-1-1.2-1.2-2.1c-0.2-1,0.1-1.9,0.3-2.6
		c0.1-0.2,0.1-0.4,0.2-0.5c-0.1-0.3-0.2-0.7-0.4-1.1c-0.2-0.4-0.3-0.9-0.5-1.4c-0.2-0.9-0.1-1.7,0-2.4c0-0.2,0.1-0.4,0.1-0.5
		c-0.1-0.1-0.3-0.2-0.4-0.4c-0.5-0.4-1.2-1.1-1.5-2l0-0.2c-0.1-0.4-0.2-0.8-0.3-1.1c-0.2-0.6-0.5-1.3-0.5-2.2c0-1.3,0.6-2.2,1.1-2.8
		c0.1-0.2,0.2-0.3,0.3-0.5c0-0.1,0.1-0.4,0.2-0.6c0.2-0.7,0.5-1.9,1.6-2.6c0.1-0.1,0.3-0.3,0.5-0.5c0.6-0.6,1.3-1.5,2.4-1.8
		c0.9-0.3,1.8-0.2,2.6-0.1c0.3,0,0.6,0.1,0.9,0.1c1.5,0,2.9,0.5,3.8,0.8c1.2,0.5,2.4,1.5,3.3,2.7c0.7,1,0.5,2.1,0.4,3
		c0,0.2-0.1,0.4-0.1,0.6c0.1,0.1,0.3,0.2,0.4,0.3c0.6,0.4,1.5,0.9,1.9,1.8c0.4,0.7,0.5,1.5,0.6,2.1c0,0.3,0.1,0.7,0.2,0.8
		c0.4,0.7,0.5,1.4,0.7,1.9c0.1,0.4,0.2,0.7,0.3,0.9c0.3,0.5,0.6,1,0.8,1.4c0.2,0.4,0.4,0.7,0.7,1.1c0,0,0.3,0.2,0.5,0.4
		c0.6,0.4,1.3,0.8,1.8,1.7c0.4,0.6,0.6,1.3,0.7,1.9c0.1,0.4,0.2,0.7,0.3,0.9c0.2,0.3,0.5,0.7,0.8,1.1c0.3,0.4,0.6,0.8,0.9,1.2
		c0.1,0.1,0.4,0.2,0.6,0.3c0.6,0.3,1.5,0.8,2,1.6c0.6,1,0.6,2,0.5,2.8c0,0.2,0,0.4,0,0.5c0.1,0.2,0.4,0.3,0.6,0.5
		c0.5,0.4,1,0.8,1.4,1.5c0.3,0.4,0.6,0.8,0.9,1.2c0.3,0.4,0.6,0.8,0.9,1.2c0.6,0.9,0.7,1.8,0.7,2.6c0,0.1,0,0.3,0,0.4
		c0.1,0.1,0.3,0.1,0.4,0.1c0.7,0.2,1.7,0.6,2.4,1.5c0.5,0.6,0.7,1.3,0.9,1.8c0.1,0.3,0.3,0.7,0.4,0.8c0.3,0.4,0.7,0.8,1,1.2
		c0.3,0.3,0.6,0.7,0.8,1c0.1,0.1,0.4,0.2,0.6,0.4c0.6,0.3,1.3,0.7,1.9,1.3c0.3,0.3,0.6,0.6,0.9,0.9c0.4,0.3,0.8,0.7,1.1,1.1
		c0.3,0.3,0.7,0.7,1,1c0.3,0.3,0.7,0.7,1,1c0.5,0.6,0.8,1.2,1.1,1.7c0.2,0.3,0.3,0.6,0.5,0.8c0.8,0.8,1,1.9,1.1,2.7
		c0,0.2,0.1,0.4,0.1,0.6c0.9,0.9,1.4,1.6,1.9,2.3c0.1,0.1,0.5,0.2,0.7,0.3c0.9,0.4,2.6,1.2,2.6,3.2c0,1.1-0.6,2.1-1,2.9
		c-0.1,0.2-0.3,0.4-0.3,0.6c-0.5,1-1.3,1.5-1.9,1.9c-0.1,0.1-0.3,0.2-0.4,0.2c0,0.2-0.1,0.4-0.1,0.5c-0.2,0.9-0.4,2.3-1.7,2.9
		c-1.2,0.7-2.5,0.2-3.5-0.1c-0.2-0.1-0.5-0.2-0.6-0.2c0,0,0,0,0,0c-1.2,0-2.3-0.3-3.5-0.8c-0.1,0-0.3-0.1-0.5-0.1
		c-0.8-0.1-2-0.3-2.9-1.2c-0.1-0.1-0.4-0.3-0.6-0.4c-0.6-0.4-1.3-0.8-1.9-1.5c-0.6-0.7-0.8-1.5-1-2.2c-0.1-0.2-0.1-0.5-0.2-0.6
		c-0.8-0.9-0.7-2.1-0.7-3c0,0,0-0.1,0-0.2c0,0-0.1,0-0.1,0c-0.8-0.2-1.8-0.4-2.6-1.4c-0.4-0.6-0.8-1.1-1.3-1.7l-0.4-0.6
		c-0.3-0.4-0.6-0.9-0.9-1.4c-0.2-0.3-0.4-0.7-0.7-1c-0.4-0.6-0.7-1.3-0.8-1.8c-0.1-0.3-0.2-0.6-0.3-0.8c-0.2-0.3-0.4-0.5-0.7-0.8
		c-0.3-0.4-0.7-0.8-1-1.2c-0.1-0.1-0.3-0.2-0.5-0.2c-0.7-0.3-1.6-0.7-2.2-1.6c-0.7-1.1-0.4-2.3-0.2-3.1c0-0.1,0-0.1,0-0.2
		c0,0-0.1,0-0.1-0.1c-0.5-0.2-1.1-0.5-1.7-1c0,0.3,0,0.6,0,0.9c0,0.4,0,0.8,0.1,1.1c0,0.3,0.1,0.6,0.3,1c0.2,0.5,0.3,1.1,0.4,1.8
		c0,0.3,0.1,0.7,0.2,1.1c0.1,0.5,0.2,1.1,0.3,1.7c0.1,0.5,0.1,1.1,0.1,1.7c0,0.4,0,0.8,0.1,1.2c0.1,1.1-0.5,2-0.9,2.7
		c-0.1,0.1-0.2,0.3-0.2,0.4c0,0.2,0.1,0.4,0.2,0.6c0.2,0.5,0.4,1.2,0.5,2c0,0.9-0.2,1.6-0.5,2.2c-0.1,0.2-0.2,0.5-0.2,0.6
		c0,0.5,0,1.1,0,1.6c0,0.3,0,0.7,0,1c0.1,0.1,0.2,0.3,0.3,0.5c0.4,0.6,0.9,1.4,0.9,2.5c0,0.9-0.4,1.7-0.7,2.3
		c-0.1,0.2-0.2,0.5-0.3,0.6c0,0.1,0.1,0.5,0.2,0.8c0.1,0.6,0.3,1.3,0.2,2.1c-0.1,0.9-0.4,1.6-0.7,2.1c-0.1,0.2-0.3,0.5-0.3,0.6
		c-0.1,0.6-0.2,1.2-0.3,1.8c0,0.2-0.1,0.5-0.1,0.7c0.1,0.1,0.2,0.3,0.3,0.4c0.6,0.8,1.3,1.8,1.1,3.1c-0.2,0.9-0.7,1.6-1.1,2.2
		c-0.1,0.2-0.3,0.4-0.4,0.5c-0.1,0.6-0.4,1.2-0.6,1.7c-0.1,0.3-0.3,0.7-0.4,1c-0.2,0.6-0.4,1.2-0.6,1.7c-0.1,0.3-0.2,0.5-0.3,0.8
		c0,0.1,0.1,0.4,0.2,0.5c0.3,0.8,0.6,1.8,0.2,2.9c-0.3,0.8-0.8,1.4-1.1,1.9c-0.2,0.2-0.4,0.5-0.5,0.7c-0.3,0.6-0.6,1.2-0.9,1.7
		c-0.2,0.3-0.4,0.6-0.5,0.9c-0.3,0.7-0.8,1.2-1.2,1.7c-0.2,0.3-0.5,0.5-0.6,0.7c-0.4,0.7-1,1.2-1.4,1.6c-0.2,0.2-0.5,0.4-0.6,0.6
		c-0.5,0.7-1.1,1.2-1.6,1.5c-0.2,0.2-0.5,0.4-0.6,0.5c-0.1,0.1-0.2,0.4-0.3,0.7c-0.2,0.6-0.5,1.3-1,1.9c-0.4,0.5-0.9,1-1.3,1.4
		c-0.2,0.2-0.5,0.5-0.7,0.7c0,0.1-0.2,0.4-0.2,0.6c-0.2,0.6-0.5,1.4-1.3,2.1c-0.5,0.5-1,0.9-1.6,1.3c-0.3,0.2-0.5,0.4-0.8,0.6
		c-0.6,0.4-1.1,0.8-1.6,1c-0.3,0.2-0.6,0.3-0.8,0.5c-0.1,0.1-0.2,0.4-0.3,0.5c-0.3,0.7-0.8,1.6-1.7,2.1c-0.6,0.4-1.3,0.6-1.9,0.8
		c-0.4,0.1-0.7,0.2-1,0.4c-0.6,0.3-1.2,0.5-1.8,0.8c-0.3,0.1-0.7,0.2-1,0.4c-0.3,0.1-0.6,0.3-0.9,0.5c-0.5,0.3-1.1,0.6-1.8,0.8
		c-0.3,0.1-0.6,0.3-1,0.4c-0.6,0.2-1.2,0.5-1.9,0.7c-0.9,0.3-1.7,0.2-2.3,0.1c-0.3,0-0.6-0.1-0.8,0c-0.1,0-0.4,0.2-0.5,0.4
		c-0.6,0.4-1.3,0.9-2.2,1.1c-0.9,0.2-1.7-0.1-2.4-0.2c-0.2-0.1-0.6-0.2-0.7-0.2c-0.7,0.1-1.4,0-2-0.1c-0.3,0-0.6-0.1-0.8-0.1
		c-0.1,0.1-0.3,0.2-0.5,0.3c-0.6,0.4-1.5,1-2.6,1c-0.8,0-1.5-0.2-2.1-0.4c-0.4-0.1-0.7-0.2-0.9-0.2c-0.1,0-0.4,0.1-0.7,0.2
		C207.8,138.9,207.1,139.2,206.3,139.2z M211.9,135.1L211.9,135.1L211.9,135.1z M209.1,134.5c0.1,0,0.1,0,0.2,0
		c0.7,0,1.3,0.2,1.8,0.4c0.3,0.1,0.6,0.2,0.9,0.2c0.1-0.1,0.3-0.2,0.5-0.3c0.6-0.4,1.4-0.9,2.4-1c0.6,0,1.2,0,1.7,0.1
		c0.4,0.1,0.8,0.1,1,0.1c0.8-0.1,1.6,0.1,2.2,0.3c0.2,0.1,0.6,0.2,0.7,0.2c0,0,0.3-0.2,0.5-0.4c0.5-0.4,1.2-0.8,2-1
		c0.8-0.2,1.5-0.1,2.1,0c0.3,0,0.6,0.1,0.8,0c0.4-0.1,0.9-0.3,1.4-0.5c0.4-0.2,0.7-0.3,1.1-0.4c0.4-0.1,0.8-0.4,1.2-0.6
		c0.4-0.2,0.8-0.4,1.2-0.6c0.4-0.2,0.8-0.3,1.2-0.5c0.5-0.2,1-0.4,1.3-0.6c0.5-0.3,1.1-0.5,1.5-0.6c0.4-0.1,0.7-0.2,1-0.4
		c0.1-0.1,0.2-0.4,0.3-0.5c0.3-0.6,0.7-1.4,1.5-2c0.4-0.3,0.9-0.5,1.3-0.8c0.4-0.2,0.8-0.4,1.1-0.6c0.3-0.2,0.6-0.5,0.9-0.7
		c0.5-0.3,0.9-0.7,1.3-1c0,0,0.1-0.4,0.2-0.6c0.2-0.6,0.5-1.3,1.1-2c0.3-0.3,0.6-0.6,0.9-0.9c0.4-0.4,0.7-0.7,1-1
		c0.1-0.1,0.2-0.5,0.3-0.7c0.2-0.5,0.4-1.1,0.9-1.7c0.4-0.6,1-1,1.4-1.3c0.2-0.2,0.5-0.4,0.6-0.5c0.4-0.6,0.9-1,1.2-1.4
		c0.2-0.2,0.5-0.5,0.6-0.6c0.3-0.6,0.7-1,1.1-1.4c0.2-0.3,0.5-0.6,0.6-0.8c0.2-0.4,0.4-0.8,0.6-1.2c0.2-0.4,0.5-0.8,0.6-1.2
		c0.3-0.7,0.7-1.2,1-1.6c0.1-0.2,0.3-0.4,0.4-0.5c0-0.1-0.1-0.3-0.1-0.4c-0.2-0.7-0.6-1.7-0.2-2.8c0.1-0.4,0.3-0.9,0.5-1.3
		c0.2-0.4,0.3-0.9,0.4-1.2c0.1-0.6,0.4-1.1,0.5-1.5c0.2-0.4,0.3-0.8,0.4-1.1c0.2-0.9,0.7-1.5,1.1-2c0.1-0.1,0.1-0.2,0.2-0.2
		c-0.1-0.1-0.1-0.2-0.2-0.2c-0.6-0.7-1.3-1.7-1.1-3c0.1-0.4,0.1-0.8,0.2-1.2c0.1-0.5,0.2-1,0.2-1.5c0.1-0.8,0.4-1.5,0.7-2
		c0.1-0.2,0.3-0.5,0.3-0.7c0-0.1-0.1-0.5-0.1-0.8c-0.1-0.5-0.3-1.2-0.3-2c0-0.9,0.4-1.6,0.7-2.2c0.1-0.1,0.2-0.3,0.2-0.5
		c-0.1-0.1-0.2-0.3-0.2-0.4c-0.4-0.6-0.9-1.4-0.9-2.5c0-0.4,0-0.9,0-1.3c0-0.5,0-0.9,0-1.4c0-0.9,0.3-1.6,0.5-2.1
		c0.1-0.2,0.2-0.5,0.2-0.7c0-0.1-0.1-0.5-0.2-0.8c-0.2-0.5-0.4-1.2-0.5-1.9c-0.1-1.1,0.5-2,0.9-2.6c0.1-0.1,0.2-0.3,0.3-0.4
		c0-0.4,0-0.7-0.1-1.1c0-0.5,0-1-0.1-1.5c0-0.4-0.1-0.8-0.2-1.2c-0.1-0.5-0.2-1-0.3-1.5c0-0.3-0.1-0.6-0.3-1
		c-0.2-0.5-0.3-1.1-0.4-1.7c-0.1-0.6-0.1-1.1-0.1-1.6c0-0.4,0-0.7,0-1c-0.1-0.1-0.2-0.3-0.3-0.4c-0.5-0.5-1.2-1.3-1.4-2.3
		c-0.1-0.6-0.1-1.1-0.1-1.6c0-0.4,0-0.8-0.1-1.1c0-0.2-0.2-0.5-0.3-0.9c-0.2-0.5-0.5-1.1-0.6-1.7c-0.2-1.3,0.5-2.4,1.1-3.1
		c0,0,0,0,0-0.1c-0.4-0.4-1-1-1.2-1.9l-3.1-14.6l6.8,13.2c0.1,0,0.1,0.1,0.2,0.1c0.4,0.3,1.1,0.7,1.5,1.6c0.1,0.1,0.3,0.4,0.5,0.6
		c0.4,0.4,1,0.9,1.3,1.6c0.7,1.3,0.1,2.6-0.3,3.5c0,0.1-0.1,0.1-0.1,0.2c0,0,0.1,0,0.1,0c0.6,0.3,1.4,0.8,1.9,1.7
		c0.4,0.7,0.5,1.4,0.7,1.9c0,0.2,0.1,0.4,0.1,0.6c0.1,0.1,0.3,0.1,0.4,0.2c0.7,0.3,1.6,0.7,2.2,1.6c0.7,1.1,0.4,2.3,0.2,3.1
		c0,0.1,0,0.1,0,0.2c0.1,0,0.1,0,0.2,0.1c0.7,0.3,1.6,0.7,2.1,1.6c0.2,0.3,0.5,0.6,0.7,0.9c0.3,0.4,0.7,0.8,1,1.2
		c0.4,0.6,0.6,1.3,0.8,1.8c0.1,0.3,0.2,0.6,0.3,0.8c0.3,0.4,0.5,0.8,0.8,1.1c0.2,0.4,0.5,0.8,0.8,1.1l0.4,0.6
		c0.3,0.5,0.7,0.9,1.1,1.4c0.1,0,0.3,0.1,0.5,0.1c0.8,0.2,1.8,0.4,2.5,1.3c0.8,1,0.7,2.2,0.7,3c0,0.2,0,0.4,0,0.5
		c0.4,0.6,0.6,1.3,0.7,1.8c0.1,0.2,0.1,0.5,0.2,0.6c0.2,0.2,0.6,0.5,1,0.7c0.4,0.3,0.8,0.5,1.2,0.9c0.1,0.1,0.6,0.2,0.9,0.2
		c0.5,0.1,1,0.2,1.5,0.4c0.6,0.3,1.2,0.4,1.9,0.4c0.6,0,1.2,0.2,1.8,0.4c0.1-0.7,0.4-1.6,1-2.2c0.4-0.5,0.9-0.8,1.3-1
		c0.1-0.1,0.4-0.2,0.5-0.3c0.1-0.3,0.3-0.5,0.5-0.8c0.1-0.1,0.1-0.2,0.2-0.4c0,0-0.1,0-0.1,0c-0.7-0.3-1.7-0.8-2.2-1.7
		c-0.4-0.7-0.7-1.1-1.5-1.8c-0.9-0.8-1-1.9-1.2-2.7c0-0.2-0.1-0.5-0.1-0.6c-0.5-0.5-0.8-1.1-1-1.6c-0.2-0.3-0.3-0.6-0.5-0.8
		c-0.3-0.3-0.6-0.6-0.8-0.8c-0.4-0.4-0.8-0.8-1.3-1.3c-0.2-0.3-0.5-0.5-0.8-0.8c-0.4-0.4-0.9-0.8-1.3-1.3c-0.1-0.1-0.4-0.2-0.6-0.3
		c-0.6-0.3-1.4-0.7-2-1.4c-0.2-0.3-0.5-0.6-0.8-0.9c-0.4-0.5-0.8-0.9-1.1-1.4c-0.5-0.6-0.7-1.3-1-1.8c-0.1-0.3-0.2-0.5-0.3-0.7
		c-0.1-0.1-0.4-0.1-0.5-0.2c-0.8-0.2-1.8-0.6-2.5-1.5c-0.6-0.9-0.7-1.8-0.7-2.6c0-0.2,0-0.5-0.1-0.6c-0.2-0.3-0.5-0.6-0.7-0.9
		c-0.3-0.5-0.7-0.9-1-1.4c-0.1-0.2-0.4-0.4-0.7-0.6c-0.5-0.4-1-0.9-1.5-1.5c-0.6-1-0.6-2-0.5-2.8c0-0.1,0-0.3,0-0.5
		c-0.1-0.1-0.3-0.1-0.4-0.2c-0.6-0.3-1.5-0.8-2.1-1.7c-0.2-0.3-0.4-0.6-0.7-1c-0.3-0.4-0.7-0.9-1-1.4c-0.4-0.6-0.6-1.3-0.7-1.9
		c-0.1-0.4-0.2-0.7-0.3-0.9c0,0-0.3-0.2-0.5-0.3c-0.6-0.4-1.4-0.9-1.8-1.7c-0.2-0.4-0.4-0.7-0.6-1.1c-0.3-0.5-0.6-1-0.9-1.5
		c-0.4-0.7-0.5-1.4-0.7-1.9c-0.1-0.4-0.2-0.7-0.3-0.9c-0.4-0.7-0.5-1.5-0.6-2.1c0-0.3-0.1-0.6-0.2-0.8c-0.1-0.1-0.4-0.2-0.5-0.3
		c-0.6-0.4-1.5-0.9-2-1.8c-0.6-1.2-0.4-2.4-0.2-3.2c0-0.1,0-0.2,0-0.3c-0.4-0.5-1-0.8-1.3-1c-0.5-0.2-1.4-0.5-2.3-0.5
		c-0.4,0-0.9,0-1.3-0.1c-0.3,0-0.8-0.1-1-0.1c-0.2,0.1-0.5,0.4-0.6,0.6c-0.3,0.3-0.6,0.6-1,0.9c-0.1,0.1-0.1,0.4-0.2,0.6
		c-0.1,0.4-0.3,0.9-0.5,1.3c-0.2,0.3-0.3,0.6-0.5,0.9c-0.1,0.2-0.3,0.5-0.4,0.6c0,0.2,0.1,0.4,0.2,0.9c0.1,0.3,0.2,0.7,0.4,1.2
		c0.1,0.1,0.3,0.3,0.4,0.4c0.5,0.5,1.2,1.1,1.5,2.1c0.3,0.9,0.1,1.7,0,2.4c0,0.2-0.1,0.6-0.1,0.7c0.1,0.3,0.2,0.6,0.4,1
		c0.2,0.5,0.4,1.1,0.6,1.7c0.3,1-0.1,1.9-0.3,2.6c0,0.1-0.1,0.3-0.1,0.4c0.1,0.1,0.2,0.2,0.3,0.4c0.4,0.5,1,1.2,1.2,2.2
		c0.2,1.1-0.3,2.1-0.6,2.8c0,0,0,0.1-0.1,0.1c0,0,0.1,0.1,0.1,0.1c0.7,0.5,1.7,1.3,1.9,2.5c0,0.1,0.2,0.4,0.3,0.7
		c0.3,0.5,0.7,1.2,0.8,2c0.1,0.9-0.1,1.6-0.2,2.2c-0.1,0.2-0.1,0.6-0.1,0.7c0.1,0.8-0.1,1.6-0.2,2.2c0,0.2-0.1,0.4-0.1,0.6
		c0.1,0.1,0.2,0.2,0.3,0.4c0.5,0.6,1.2,1.4,1.3,2.5c0.1,0.7-0.1,1.4-0.2,2c-0.1,0.3-0.1,0.7-0.1,0.9c0.1,0.9-0.2,1.7-0.4,2.3
		c-0.1,0.2-0.2,0.5-0.2,0.6c0,0.7-0.1,1.4-0.2,1.9c-0.1,0.3-0.1,0.7-0.1,0.9c0,0.4,0.1,0.8,0.1,1.2c0.1,0.5,0.1,1,0.1,1.6
		c0,0.1,0.2,0.4,0.3,0.5c0.3,0.6,0.8,1.4,0.8,2.4c0,0.1,0.1,0.5,0.2,0.7c0.2,0.6,0.5,1.3,0.5,2.1c0,0.9-0.4,1.7-0.6,2.3
		c-0.1,0.2-0.2,0.5-0.3,0.6c0,0.7-0.2,1.3-0.3,1.9c-0.1,0.4-0.2,0.7-0.2,1c0,0.8-0.3,1.5-0.5,2.1c-0.1,0.3-0.2,0.5-0.2,0.7
		c0,0.1,0.1,0.4,0.2,0.6c0.3,0.6,0.7,1.5,0.6,2.5c-0.1,0.6-0.2,1.2-0.3,1.8c-0.1,0.4-0.2,0.7-0.2,1.1c-0.1,0.6-0.3,1.2-0.4,1.8
		c-0.1,0.4-0.2,0.7-0.3,1.1c-0.2,0.8-0.5,1.5-0.8,2c-0.1,0.1-0.2,0.3-0.3,0.5c0.1,0.1,0.2,0.3,0.2,0.4c0.5,0.8,1.1,1.9,0.8,3.2
		c-0.2,0.9-0.8,1.5-1.2,2.1c-0.2,0.2-0.4,0.5-0.4,0.6c-0.3,0.9-0.9,1.6-1.4,2c-0.2,0.2-0.4,0.4-0.4,0.5c-0.2,0.6-0.6,1.2-0.9,1.7
		c-0.2,0.3-0.4,0.5-0.5,0.8c0,0.1,0,0.4,0,0.6c0.1,0.7,0.1,1.7-0.4,2.6c-0.6,1.1-1.7,1.5-2.6,1.8c0,0-0.1,0-0.1,0c0,0.1,0,0.1,0,0.2
		c0.1,0.9,0.3,2.1-0.4,3.1c-0.7,0.9-1.7,1.3-2.4,1.5c-0.2,0-0.4,0.1-0.5,0.2c-0.1,0.2-0.2,0.4-0.3,0.6c-0.3,0.6-0.6,1.2-1.2,1.8
		c-0.8,0.8-1.7,1-2.4,1.1c-0.2,0-0.4,0.1-0.5,0.1c-0.1,0.1-0.2,0.3-0.3,0.5c-0.3,0.6-0.7,1.4-1.5,2c-0.2,0.1-0.4,0.4-0.7,0.6
		c-0.4,0.4-0.9,0.9-1.6,1.3c-0.9,0.5-1.8,0.5-2.5,0.5c-0.2,0-0.5,0-0.6,0c-0.1,0-0.3,0.3-0.5,0.4c-0.5,0.4-1.1,1-2,1.3
		c-0.8,0.3-1.6,0.3-2.2,0.3c-0.2,0-0.4,0-0.5,0c-0.1,0.1-0.2,0.3-0.3,0.4c-0.5,0.8-1.3,2-2.6,2.2c-1.1,0.2-2-0.3-2.7-0.6
		c-0.2-0.1-0.4-0.2-0.6-0.3c-1,0.1-2,0.1-2.9,0.1c-1,0-1.8-0.4-2.4-0.7c-0.1-0.1-0.3-0.2-0.5-0.2c-0.1,0.1-0.3,0.2-0.4,0.2
		c-0.7,0.4-1.7,0.9-2.9,0.7c-0.3-0.1-0.7-0.1-1-0.1c-0.6-0.1-1.4-0.2-2.1-0.4l-0.3-0.1c-0.8-0.3-1.8-0.6-2.6-1
		c-1.1-0.5-1.6-1.5-1.9-2.3c-0.1-0.1-0.1-0.2-0.2-0.4c-0.1,0-0.3,0-0.4,0c-0.8,0-1.9-0.1-2.8-0.8c-0.8-0.7-1.2-1.6-1.4-2.2
		c-0.1-0.2-0.2-0.5-0.3-0.6c-0.6-0.5-0.9-1.2-1.2-1.8c-0.1-0.3-0.3-0.6-0.4-0.7c-0.2-0.2-0.4-0.4-0.5-0.6c-0.4-0.5-0.9-1-1.3-1.7
		c-0.1-0.1-0.3-0.4-0.6-0.6c-0.5-0.4-1-1-1.4-1.7c-0.5-0.9-0.9-1.8-1.2-2.7l-0.2-0.5c-0.3-0.7-0.6-1.5-0.8-2.3l-0.2-0.6
		c-0.2-0.7-0.4-1.4-0.6-2.2c-0.1-0.7-0.2-1.3-0.2-1.9c0-0.3,0-0.7-0.1-1c-0.1-0.8,0-1.5,0.1-2.1c0.1-0.4,0.1-0.7,0.1-0.9
		c-0.1-0.8,0.2-1.6,0.3-2.1c0.1-0.2,0.1-0.4,0.1-0.5c-0.1-0.1-0.2-0.2-0.3-0.3c-0.6-0.7-1.3-1.6-1.3-2.8c0-0.6,0.1-1.2,0.2-1.8
		c0.1-0.4,0.1-0.7,0.2-1.1c0.1-0.6,0.2-1.2,0.4-1.8c0.1-0.3,0.2-0.6,0.2-0.9c0-0.1-0.1-0.3-0.2-0.5c-0.3-0.7-0.7-1.6-0.5-2.6
		c0.2-1.3,1.3-2,2.1-2.5c0.1,0,0.1-0.1,0.2-0.1c0-0.1,0-0.1-0.1-0.2c-0.2-0.7-0.6-1.6-0.3-2.7c0.3-1.1,1.2-1.8,1.8-2.3
		c0.1-0.1,0.3-0.2,0.4-0.3c0.2-0.5,0.4-1,0.6-1.4c0.1-0.3,0.2-0.5,0.3-0.7c0-0.1-0.1-0.3-0.2-0.4c-0.3-0.7-0.6-1.8-0.3-2.9
		c0-0.1,0-0.4-0.1-0.6c-0.1-0.7-0.2-1.6,0.1-2.6c0.3-0.7,0.6-1.4,0.9-2l0.3-0.6c0.4-0.8,1-1.4,1.5-1.8c0.2-0.2,0.4-0.4,0.5-0.5
		c0.5-1,1.5-1.5,2.2-1.9c0.1,0,0.2-0.1,0.3-0.1c0-0.1,0-0.2-0.1-0.3c-0.2-0.9-0.5-2.1,0.2-3.2c0.2-0.3,0.4-0.7,0.6-1.1
		c0.3-0.5,0.6-1.1,0.9-1.6c0.4-0.7,0.9-1.1,1.4-1.6c0.3-0.3,0.6-0.5,0.7-0.7c0.6-0.9,1.5-1.3,2.1-1.7c0.1-0.1,0.4-0.2,0.5-0.2
		c0-0.2,0-0.4,0.1-0.5c0.1-0.7,0.1-1.7,0.7-2.5c0.3-0.5,0.7-1,1.1-1.4c0.3-0.3,0.5-0.6,0.8-1c0.7-0.9,1.6-1.2,2.4-1.5
		c0.2-0.1,0.4-0.1,0.6-0.2c0.2-0.2,0.3-0.5,0.5-0.8c0.3-0.5,0.5-1.1,1-1.6c0-0.1,0.1-0.4,0.1-0.6c0.1-0.7,0.3-1.7,1-2.5
		c0.5-0.6,1.2-1,1.7-1.3c0.3-0.2,0.6-0.4,0.8-0.6c0.1-0.1,0.2-0.4,0.3-0.7c0.2-0.7,0.5-1.5,1.2-2.2c0.6-0.6,1.4-1,2-1.2
		c0.3-0.1,0.6-0.3,0.8-0.4c1-0.8,2.1-0.9,2.9-1c0.1,0,0.2,0,0.3,0c0.1-0.2,0.1-0.6,0.2-0.8c0.1-0.4,0.1-0.9,0.4-1.4
		c0-0.1,0-0.2-0.1-0.3c-0.1-0.4-0.3-1.1-0.3-1.8c0-1,0.4-1.8,0.8-2.4c0-0.1,0.1-0.2,0.1-0.2c-0.2-0.2-0.5-0.4-0.6-0.6
		c-0.3-0.2-0.6-0.5-0.8-0.7c-0.5-0.5-1.1-0.9-1.7-1.2c-0.6-0.2-1.2-0.5-1.8-0.5c0,0,0,0,0,0c-0.4,0.4-0.9,0.9-1.8,1.2l-0.4,0.1
		c-0.4,0.1-0.9,0.3-1.5,0.5c-0.6,0.3-1.3,0.4-1.8,0.5c-0.4,0.1-0.8,0.2-1.1,0.3c-0.6,0.2-1.1,0.4-1.6,0.5c-0.4,0.1-0.8,0.2-1.2,0.4
		c-0.6,0.3-1.2,0.4-1.8,0.5c-0.4,0.1-0.8,0.2-1.1,0.3c-0.8,0.3-1.6,0.3-2.2,0.3c-0.3,0-0.6,0-0.8,0c-0.1,0-0.3,0.3-0.4,0.5
		c-0.5,0.5-1.1,1.1-1.9,1.5c-0.4,0.2-0.8,0.3-1.2,0.5c-0.5,0.2-1,0.4-1.5,0.6c-1,0.3-1.9,0.2-2.6,0.1c-0.2,0-0.4-0.1-0.6-0.1
		c-0.1,0.1-0.3,0.3-0.4,0.4c-0.5,0.5-1.1,1.1-2,1.4c-0.6,0.2-1.2,0.3-1.7,0.4c-0.4,0.1-0.8,0.2-1.1,0.3c-0.9,0.3-1.8,0.1-2.5,0
		c-0.2,0-0.4-0.1-0.6-0.1c-0.1,0.1-0.3,0.3-0.4,0.4c-0.5,0.5-1.1,1.2-2,1.5c-0.1,0.1-0.3,0.3-0.4,0.4c-0.5,0.6-1.2,1.3-2.2,1.6
		c-1.2,0.3-2.2-0.2-3-0.6c-0.1,0-0.1-0.1-0.2-0.1c0,0.1-0.1,0.1-0.1,0.2c-0.5,0.7-1.2,1.6-2.4,1.9c-1.4,0.3-2.5-0.5-3.3-1.2
		c0,0,0,0-0.1,0c-0.5,0.7-1.2,1.8-2.5,2c-1.5,0.3-2.8-0.5-3.6-1.1c0,0.1-0.1,0.1-0.1,0.2c-0.2,0.5-0.6,1.1-1.4,1.6
		c-0.4,0.3-0.9,0.4-1.4,0.6c-0.2,0.1-0.4,0.2-0.6,0.2c0,0.2,0.1,0.5,0.1,0.6c0.1,0.5,0.2,1,0.2,1.5l0,0.2c0,0.6,0,1.1,0.1,1.5
		c0.2,0.7,0.3,1.4,0.3,1.9c0,0.1,0,0.2,0,0.3c0.1,0,0.3,0.1,0.4,0.1c0.5,0.1,1,0.2,1.5,0.5c0.4,0.2,0.9,0.4,1.3,0.4
		c0.1,0,0.1-0.1,0.2-0.1c0.5-0.4,1.3-1,2.4-1.2c0.2,0,0.5-0.2,0.9-0.3c0.5-0.2,1-0.4,1.6-0.6c1.1-0.3,2.2,0.2,2.9,0.6
		c0.1,0.1,0.2,0.1,0.4,0.2c0.1-0.1,0.2-0.2,0.2-0.2c0.5-0.4,1.1-1,2-1.3c0.9-0.3,1.8-0.1,2.5,0.1c0.1,0,0.2,0,0.3,0.1
		c0-0.1,0.1-0.2,0.1-0.2c0.4-0.8,1-1.9,2.2-2.3c1.2-0.4,2.3,0.1,3.1,0.5c0,0,0.1,0,0.1,0.1c0,0,0,0,0-0.1c0.4-0.7,1-1.6,2.1-2
		c0.9-0.3,1.7-0.2,2.4-0.2c0.2,0,0.5,0.1,0.7,0c0.9-0.3,1.8-0.2,2.5,0c0,0,0.1,0,0.1,0c0-0.1,0-0.2,0.1-0.2c0.3-1,0.7-2.3,2-2.9
		c0.9-0.4,1.9-0.2,2.5-0.2c0.2,0,0.4,0.1,0.6,0.1c0.8-0.3,1.6-0.3,2.3-0.2c0.1,0,0.2,0,0.2,0c0-0.1,0.1-0.2,0.1-0.3
		c0.3-0.9,0.7-2.2,1.9-2.8c1-0.4,1.9-0.3,2.6-0.2c0.2,0,0.4,0,0.5,0.1l0.8-0.4c0.6-0.3,1.3-0.6,1.8-0.9l2.2,3.3
		c0.1-0.1,0.1-0.1,0.1-0.1c-0.1,0.1-0.2,0.5-0.3,0.7c-0.3,0.7-0.6,1.6-1.3,2.2c-0.9,0.8-2.1,0.8-3,0.8c-0.1,0-0.2,0-0.3,0
		c0,0.1-0.1,0.2-0.1,0.3c-0.2,0.6-0.5,1.4-1.1,2.1c-0.4,0.4-0.9,0.8-1.3,1.1c-0.3,0.2-0.6,0.5-0.8,0.7c-0.1,0.1-0.2,0.4-0.3,0.7
		c-0.2,0.6-0.5,1.2-1,1.8c-0.3,0.3-0.6,0.7-0.9,1c-0.3,0.4-0.7,0.7-0.9,1c-0.8,0.9-1.9,1.2-2.7,1.3c-0.1,0-0.2,0-0.4,0.1
		c0,0.1,0,0.3-0.1,0.4c-0.1,0.6-0.2,1.3-0.6,2c0,0.1,0,0.4,0,0.5c0,0.8,0.1,1.8-0.5,2.7c-0.7,1.1-2,1.3-3,1.5c-0.1,0-0.2,0-0.3,0.1
		c0,0.1,0,0.2,0,0.2c0,0.7-0.1,1.5-0.6,2.3c-0.5,0.9-1.5,1.4-2.1,1.7c0,0,0,0,0,0c0,0.1,0,0.1,0.1,0.1c0.4,0.9,0.9,2.2,0.3,3.4
		c-0.3,0.6-0.7,1.1-1,1.5c-0.2,0.3-0.5,0.6-0.6,0.8c-0.5,1.1-1.5,1.6-2.2,1.9c-0.1,0.1-0.2,0.1-0.4,0.2c0,0.1,0,0.3,0,0.5
		c0,0.6,0.1,1.3-0.2,2.1c0,0.1,0.1,0.4,0.1,0.5c0.2,0.7,0.4,1.6,0,2.6c-0.3,1-1.1,1.6-1.7,2c-0.1,0.1-0.3,0.3-0.4,0.3
		c-0.3,0.9-1,1.5-1.5,1.9c-0.1,0.1-0.3,0.3-0.4,0.4c-0.1,0.3-0.1,0.6-0.1,1c0,0.5-0.1,1.1-0.2,1.7c0,0.2,0,0.5,0,0.9
		c0,0.6,0.1,1.2-0.1,2c-0.1,0.3-0.1,0.7-0.1,1.1c0,0.5,0,1.1-0.1,1.6c-0.1,0.6-0.3,1.1-0.4,1.5c-0.1,0.4-0.2,0.8-0.3,1.2
		c-0.1,0.8-0.4,1.4-0.7,2c-0.1,0.2-0.3,0.6-0.3,0.7c0,0.2,0.1,0.6,0.1,0.9c0.1,0.6,0.3,1.2,0.2,1.9c0,0.8-0.3,1.4-0.5,2
		c0,0.1-0.1,0.3-0.1,0.4c0.1,0.1,0.3,0.2,0.4,0.3c0.8,0.6,1.9,1.5,2,2.9c0,1-0.4,1.9-0.8,2.5c-0.1,0.2-0.2,0.4-0.3,0.5
		c0,0.9-0.3,1.7-0.6,2.3c0,0.1-0.1,0.2-0.2,0.4c0.1,0.1,0.2,0.2,0.3,0.3c0.6,0.5,1.3,1.3,1.6,2.3c0.2,1.2-0.3,2.2-0.7,3
		c0,0,0,0,0.1,0c0.9,0.4,2,1,2.4,2.2c0.4,1.3-0.2,2.4-0.6,3.3c0,0.1-0.1,0.1-0.1,0.2c0.1,0,0.1,0.1,0.2,0.1c0.6,0.4,1.4,0.9,1.8,1.8
		c0.3,0.6,0.7,1.2,1.1,1.9l0.3,0.5c0.2,0.4,0.5,0.8,0.9,1.2c0.3,0.3,0.5,0.7,0.8,1c0.3,0.4,0.5,0.8,0.7,1.2c0.2,0.4,0.5,0.8,0.7,1.1
		c0.3,0.4,0.6,0.8,0.9,1.2c0.3,0.4,0.5,0.8,0.8,1c0.3,0.3,0.5,0.5,0.8,0.8c0.4,0.4,0.8,0.9,1.2,1.2c0.2,0.1,0.6,0.3,0.9,0.5
		c0.5,0.2,1,0.4,1.6,0.8c0.8,0.6,1.2,1.4,1.5,2.1c0,0,0,0.1,0,0.1c0.1,0,0.1,0,0.2-0.1c1-0.4,2.2-0.9,3.4-0.4
		c0.9,0.4,1.4,1.1,1.8,1.6c0.1,0.1,0.2,0.2,0.3,0.3c0.1,0,0.3-0.1,0.4-0.1c0.7-0.2,1.6-0.5,2.6-0.2c0.3,0.1,0.6,0.2,0.9,0.2
		c0.6,0.2,1.1,0.3,1.7,0.4c1.4,0.3,2,1.5,2.6,2.4c0.1,0.1,0.1,0.2,0.2,0.3c0.1,0,0.1-0.1,0.2-0.1
		C207.6,134.7,208.3,134.5,209.1,134.5z M193.1,131L193.1,131L193.1,131z M209.6,124.9L209.6,124.9L209.6,124.9z M218.1,122.7
		C218.1,122.7,218.1,122.7,218.1,122.7C218.1,122.7,218.1,122.7,218.1,122.7z M206.6,121.9L206.6,121.9L206.6,121.9z M198.2,121.5
		L198.2,121.5L198.2,121.5z M202.1,120.7C202.1,120.7,202.1,120.7,202.1,120.7S202.1,120.7,202.1,120.7z M197.4,117.7L197.4,117.7
		L197.4,117.7z M238.1,109.2L238.1,109.2L238.1,109.2z M240.9,104.4L240.9,104.4L240.9,104.4z M258.3,103.5L258.3,103.5L258.3,103.5
		z M175.6,102.4L175.6,102.4L175.6,102.4z M176.5,100L176.5,100L176.5,100z M176.5,99.8C176.5,99.8,176.5,99.8,176.5,99.8
		C176.5,99.8,176.5,99.8,176.5,99.8z M246.8,83.7L246.8,83.7L246.8,83.7z M250,80.9L250,80.9L250,80.9z M291.5,80.2L291.5,80.2
		L291.5,80.2z M288.3,80.1L288.3,80.1L288.3,80.1z M189.6,77.2L189.6,77.2L189.6,77.2z M177.6,74.9L177.6,74.9L177.6,74.9z
		 M274.8,73.6L274.8,73.6L274.8,73.6z M179.5,72.5C179.5,72.5,179.5,72.5,179.5,72.5L179.5,72.5z M291.8,71.2L291.8,71.2L291.8,71.2
		z M247.5,69.7L247.5,69.7L247.5,69.7z M285.9,68.5C285.9,68.5,285.9,68.5,285.9,68.5C285.9,68.5,285.9,68.5,285.9,68.5z
		 M285.8,68.3L285.8,68.3L285.8,68.3z M181.4,67.1C181.4,67.1,181.4,67.1,181.4,67.1C181.4,67.1,181.4,67.1,181.4,67.1z M181.5,66.9
		L181.5,66.9L181.5,66.9z M250.3,66.6L250.3,66.6L250.3,66.6z M192.3,66.6L192.3,66.6L192.3,66.6z M181.4,64.5L181.4,64.5
		L181.4,64.5z M265.6,62.8L265.6,62.8L265.6,62.8z M265.5,62.6C265.5,62.6,265.5,62.6,265.5,62.6C265.5,62.6,265.5,62.6,265.5,62.6z
		 M195.1,62.3L195.1,62.3L195.1,62.3z M263.1,57.8L263.1,57.8L263.1,57.8z M184.9,56.6L184.9,56.6L184.9,56.6z M197.9,56.4
		L197.9,56.4L197.9,56.4z M247.4,55.9L247.4,55.9L247.4,55.9z M259.1,52.9c0.1,0.1,0.2,0.3,0.4,0.4c0,0,0.1,0.1,0.1,0.1
		c0-0.1-0.1-0.2-0.1-0.3C259.4,53.1,259.2,53,259.1,52.9C259.1,52.9,259.1,52.9,259.1,52.9z M187.7,52.2L187.7,52.2L187.7,52.2z
		 M201.1,52.1L201.1,52.1L201.1,52.1z M260.5,49.1L260.5,49.1L260.5,49.1z M187.9,48.6L187.9,48.6L187.9,48.6z M204.5,47.1
		L204.5,47.1L204.5,47.1z M206.1,45L206.1,45L206.1,45z M245.3,44.7C245.3,44.7,245.3,44.7,245.3,44.7
		C245.3,44.7,245.3,44.7,245.3,44.7z M168.4,44.4L168.4,44.4L168.4,44.4z M185.6,39.5L185.6,39.5L185.6,39.5z M244,38.9L244,38.9
		L244,38.9z M246.3,35.8L246.3,35.8L246.3,35.8z M159,35.4L159,35.4L159,35.4z M194.6,32.6C194.6,32.6,194.6,32.6,194.6,32.6
		C194.6,32.6,194.6,32.6,194.6,32.6z M174,31.1L174,31.1L174,31.1z M174.7,30.9L174.7,30.9L174.7,30.9z M202.3,29.1
		C202.3,29.1,202.3,29.1,202.3,29.1L202.3,29.1z M182.8,27.9L182.8,27.9L182.8,27.9z M222.6,27.1L222.6,27.1L222.6,27.1z
		 M190.9,25.6L190.9,25.6L190.9,25.6z M222.5,23.5L222.5,23.5L222.5,23.5z M252.6,19.1L252.6,19.1L252.6,19.1z"/>
</g>
<path class="st1" d="M277.4,16.1c4.3,5.3,6.1,8.5,6.1,10.6c0,2.3-2.2,4.3-4.8,4.3c-1.8,0-3.2-0.8-4.2-2.7c-2.3-4.2-4.8-7.6-7.3-10.1
	c-1.3-1.3-1.8-2.3-1.8-3.5c0-2.5,2.2-4.6,4.6-4.6C272.1,10.1,273.7,11.4,277.4,16.1z"/>
<path class="st1" d="M291.8,5.5c4.5,5,7.1,8.8,7.1,10.8c0,2.5-2.3,4.8-4.8,4.8c-1.8,0-2.8-0.7-4.5-3.2c-3.2-4.6-5.8-8-8.1-10.5
	c-1-0.8-1.3-1.8-1.3-3c0-2.3,2-4.3,4.3-4.3C286.5,0.2,287.8,1.2,291.8,5.5z"/>
<path class="st0" d="M353.8,82.2c0,4-4.8,13.6-11.3,22.6c-8,11.3-12.9,16.1-16.6,16.1c-3.5,0-7-3.5-7-7c0-2.3,0.2-2.8,4-6.5
	c7.3-7.3,14.1-16.9,18.4-26.4c1.5-3.2,3.7-4.8,6.1-4.8C350.6,76.2,353.8,79.2,353.8,82.2z"/>
<g>
	<path class="st0" d="M384.1,58.2c0.3,0.8,1.1,1.6,1.5,2.5c0.4,0.8-0.1,2.2,0.4,3.1c0.4,0.8,2.2,1,2.7,1.9c0.5,0.8,1,1.6,1.6,2.4
		c0.5,0.8,0.7,1.8,1.3,2.6c0.6,0.8,0.3,2.2,0.9,3c0.6,0.8,1.1,1.7,1.7,2.4c0.7,0.8,2.3,0.7,2.9,1.3c0.7,0.7,1.1,1.6,1.7,2.3
		c0.6,0.7,1.2,1.5,1.7,2.3c0.6,0.7,1,1.7,1.5,2.4c0.6,0.8,1.4,1.3,1.9,2.1c0.5,0.8,1.3,1.5,1.7,2.3c0.5,0.8,0.9,1.7,1.3,2.6
		c0.4,0.9,0,2.1,0.4,2.9c0.4,0.9,1.2,1.6,1.5,2.5c0.3,0.9,0.8,1.8,1,2.7c0.2,0.9-0.3,2-0.2,2.9c0.1,0.9,0.8,1.8,0.9,2.8
		c0.1,0.9,0.4,1.9,0.4,2.9c0,1,0,2-0.1,3c-0.1,1,0,2-0.2,3c-0.2,1-1.4,1.7-1.6,2.6c-0.3,0.9,0.2,2.2-0.1,3.1
		c-0.4,0.9-1.8,1.3-2.3,2.2c-0.5,0.9-0.9,1.7-1.5,2.5c-0.6,0.8-0.9,1.8-1.5,2.5c-0.7,0.7-1,1.9-1.7,2.5c-0.7,0.6-1.5,1.3-2.3,1.9
		c-0.8,0.5-1.8,0.9-2.7,1.4c-0.9,0.4-2.2-0.1-3.1,0.2c-0.9,0.3-1.6,1.5-2.5,1.7c-0.9,0.2-2,0-3,0.2c-0.9,0.2-1.9-0.1-2.9,0
		c-1,0.1-1.9-0.2-2.9-0.2c-1,0-1.9,0.2-2.8,0.2c-1-0.1-2,1.1-2.9,1c-1-0.1-1.8-0.7-2.8-0.9c-0.9-0.2-1.8-0.9-2.7-1.1
		c-0.9-0.2-1.9-0.4-2.7-0.6c-0.9-0.3-2,0-2.9-0.4c-0.9-0.4-1.9-0.6-2.7-1c-0.9-0.5-1.3-1.6-2.1-2.1c-0.8-0.6-1.4-1.3-2-1.9
		c-0.7-0.7-1.5-1.3-1.9-2.1c-0.4-0.9-1.1-1.8-1.1-2.7c0-1.1,0.4-2.2,0.9-3.1c0.5-0.9,1.7-1.2,2.5-1.8c0.8-0.5,1.6-1.3,2.7-1.3
		c0.9,0,1.5,0.2,2.3,0.6c0.5,0.2,0.9,1,1.8,1.5c0.7,0.4,1.8,0.3,2.7,0.7c0.8,0.3,1.3,1.6,2.2,1.9c0.8,0.3,2.1-0.6,3-0.4
		c0.9,0.2,1.5,1.7,2.4,1.8c0.9,0.2,1.9,0.1,2.8,0.2c0.9,0.1,1.9-1.2,2.8-1.2c1,0,1.9,0.5,2.8,0.4c1-0.1,1.7-0.7,2.6-1
		c0.9-0.3,1.8-0.5,2.6-0.9c0.8-0.5,1.3-1.2,2-1.9c0.7-0.7,1.2-1.3,1.7-2.1c0.5-0.8,1.2-1.4,1.6-2.3c0.3-0.9,0-1.8,0.1-2.8
		c0.1-0.9,0.9-1.7,0.9-2.7c0-1,0-2-0.1-3c-0.1-1,0-2-0.2-3c-0.2-0.9-1.1-1.7-1.4-2.7c-0.3-0.9-0.9-1.7-1.3-2.6
		c-0.4-0.9-0.2-2-0.7-2.9c-0.4-0.9-1-1.7-1.5-2.6c-0.5-0.8-0.2-2.2-0.8-3c-0.5-0.8-1.5-1.3-2.1-2.1c-0.6-0.8-1-1.7-1.6-2.5
		c-0.6-0.8-1.8-1-2.5-1.8c-0.7-0.8-1.5-1.4-2.2-2.2c-0.6-0.8-1.3-1.6-1.9-2.4c-0.6-0.8-1.1-1.7-1.7-2.6c-0.6-0.9-0.7-2-1.2-2.9
		c-0.5-0.9-1.5-1.5-2-2.4c-0.5-0.9-0.7-2-1.1-2.9c-0.4-1-1.3-1.8-1.6-2.7c-0.4-1,0.3-2.3,0.1-3.2c-0.3-1.1-1.3-2-1.3-2.9
		c0-1.2,1.3-1.9,1.8-2.7c0.6-0.9,0.9-1.8,1.9-2.2c0.9-0.4,1.9-1,3.1-1c1.2,0,1.8,1.1,2.5,1.6c0.7,0.5,1.4,0.9,2,2
		C383.2,56.2,383.7,57,384.1,58.2z"/>
	<path class="st0" d="M377,137.4c-0.1,0-0.2,0-0.4,0c-0.8-0.1-1.4-0.3-2-0.6c-0.3-0.1-0.7-0.3-0.9-0.3c-0.8-0.1-1.5-0.5-2-0.8
		c-0.3-0.2-0.6-0.3-0.8-0.3c-0.3-0.1-0.6-0.1-0.9-0.2c-0.6-0.1-1.3-0.3-1.9-0.5c-0.2-0.1-0.5-0.1-0.8-0.1c-0.6,0-1.4,0-2.2-0.3
		c-0.3-0.1-0.7-0.2-1-0.4c-0.6-0.2-1.3-0.4-1.9-0.8c-0.9-0.5-1.4-1.1-1.8-1.7c-0.1-0.2-0.4-0.5-0.5-0.5c-0.8-0.6-1.4-1.2-2-1.8
		l-0.3-0.3c-0.2-0.2-0.4-0.3-0.5-0.5c-0.6-0.6-1.3-1.2-1.7-2.1c-0.1-0.2-0.2-0.3-0.3-0.5c-0.5-0.9-1-1.9-1-3.2c0-1.7,0.7-3.2,1.1-4
		c0.6-1.2,1.8-1.8,2.6-2.2c0.2-0.1,0.4-0.2,0.6-0.3c0.2-0.1,0.3-0.2,0.5-0.3c0.8-0.5,1.8-1.3,3.3-1.3c1.3,0,2.1,0.3,3.2,0.8
		c0.5,0.3,0.9,0.6,1.2,0.9c0.2,0.2,0.5,0.5,0.8,0.7c0.1,0,0.4,0.1,0.7,0.1c0.5,0.1,1.2,0.2,1.8,0.5c0.8,0.3,1.3,0.9,1.7,1.4
		c0.1,0.1,0.2,0.2,0.3,0.3c0.1,0,0.2-0.1,0.3-0.1c0.7-0.2,1.6-0.5,2.6-0.3c1,0.2,1.7,1,2.2,1.5c0.1,0.1,0.2,0.3,0.3,0.3
		c0.4,0,0.8,0.1,1.2,0.1c0.3,0,0.7,0,1,0c0.1-0.1,0.3-0.2,0.4-0.3c0.6-0.4,1.4-0.9,2.4-0.9c0.7,0,1.3,0.1,1.8,0.3
		c0.2,0.1,0.6,0.1,0.7,0.1c0.3,0,0.7-0.2,1.1-0.4c0.3-0.2,0.7-0.3,1.1-0.5c0.3-0.1,0.6-0.2,0.9-0.3c0.5-0.1,0.9-0.3,1.3-0.5
		c0.3-0.2,0.6-0.5,1-0.9c0.2-0.2,0.4-0.5,0.6-0.7c0.5-0.5,0.9-1,1.4-1.8c0.3-0.4,0.5-0.8,0.8-1.1c0.3-0.3,0.5-0.6,0.6-0.9
		c0-0.1,0-0.5,0-0.8c0-0.5,0-1,0-1.6c0.1-0.7,0.4-1.2,0.6-1.7c0.1-0.2,0.3-0.6,0.3-0.7v-0.3c0-0.9,0-1.7-0.1-2.5
		c0-0.4-0.1-0.9-0.1-1.4c0-0.5,0-1-0.1-1.4c0-0.1-0.3-0.5-0.4-0.7c-0.3-0.5-0.7-1.1-0.9-1.8c-0.1-0.3-0.3-0.7-0.5-1.1
		c-0.2-0.4-0.5-0.9-0.7-1.4c-0.3-0.6-0.4-1.3-0.4-1.8c-0.1-0.4-0.1-0.8-0.2-1c-0.2-0.5-0.5-1-0.9-1.5c-0.2-0.3-0.4-0.6-0.6-0.9
		c-0.4-0.8-0.5-1.6-0.6-2.2c0-0.3-0.1-0.6-0.1-0.7c-0.1-0.1-0.4-0.4-0.7-0.6c-0.4-0.4-1-0.8-1.4-1.4c-0.3-0.4-0.6-0.9-0.8-1.3
		c-0.2-0.4-0.5-0.8-0.7-1.1c-0.1-0.1-0.4-0.3-0.6-0.4c-0.5-0.3-1.2-0.7-1.8-1.4c-0.2-0.2-0.5-0.5-0.8-0.8c-0.4-0.4-1-0.9-1.4-1.4
		l-0.5-0.7c-0.5-0.6-0.9-1.2-1.4-1.8c-0.4-0.6-0.8-1.2-1.2-1.8c-0.2-0.3-0.3-0.5-0.5-0.8c-0.4-0.7-0.7-1.4-0.9-2
		c-0.1-0.4-0.2-0.7-0.3-0.9c-0.1-0.2-0.4-0.5-0.7-0.8c-0.5-0.5-1-1-1.4-1.7c-0.4-0.7-0.6-1.3-0.8-1.9c-0.1-0.4-0.2-0.8-0.4-1
		c-0.1-0.3-0.4-0.6-0.6-1c-0.4-0.5-0.8-1.1-1.1-1.8c-0.4-1.1-0.2-2.1-0.1-2.9c0-0.2,0.1-0.5,0.1-0.6c0-0.1-0.3-0.5-0.5-0.8
		c-0.4-0.7-0.9-1.5-0.9-2.5c0-1.6,1-2.6,1.7-3.3c0.2-0.2,0.4-0.4,0.4-0.5c0.1-0.1,0.2-0.3,0.3-0.4c0.5-0.8,1.1-2,2.6-2.6
		c0.2-0.1,0.4-0.2,0.5-0.3c0.8-0.4,2-1,3.3-1c1.7,0,2.7,1,3.3,1.6c0.2,0.2,0.3,0.3,0.4,0.4l0.2,0.2c0.7,0.5,1.6,1.1,2.3,2.5l0.1,0.2
		c0.4,0.7,0.8,1.6,1.3,2.7l0,0.1c0.1,0.2,0.3,0.5,0.5,0.8c0.3,0.4,0.6,0.9,0.9,1.5c0.4,0.8,0.4,1.6,0.3,2.3c0,0.2,0,0.4,0,0.5
		c0.1,0.1,0.3,0.1,0.4,0.2c0.7,0.3,1.7,0.8,2.2,1.7c0.3,0.5,0.6,0.9,0.9,1.4c0.2,0.3,0.4,0.6,0.6,1c0.3,0.5,0.6,1.1,0.8,1.6
		c0.2,0.4,0.3,0.7,0.5,1c0.5,0.8,0.7,1.6,0.8,2.3c0,0.2,0.1,0.6,0.1,0.7c0.2,0.3,0.5,0.7,0.7,1c0.3,0.4,0.5,0.8,0.8,1.1
		c0.1,0.1,0.4,0.1,0.6,0.2c0.7,0.2,1.6,0.4,2.2,1.1c0.5,0.5,0.9,1.1,1.2,1.6c0.2,0.3,0.4,0.6,0.6,0.8c0.4,0.5,0.8,1,1.1,1.5
		c0.2,0.3,0.4,0.6,0.7,0.9c0.4,0.5,0.8,1.1,1,1.6c0.2,0.3,0.4,0.6,0.6,0.9c0.2,0.2,0.4,0.5,0.7,0.7c0.4,0.4,0.9,0.9,1.3,1.5
		c0.2,0.3,0.4,0.6,0.7,0.9c0.4,0.4,0.8,0.9,1.1,1.5c0.5,0.8,0.9,1.7,1.3,2.5l0.1,0.2c0.4,0.9,0.4,1.8,0.4,2.4c0,0.2,0,0.6,0,0.7
		c0.1,0.2,0.3,0.4,0.5,0.7c0.4,0.5,0.8,1.1,1,1.9c0.1,0.3,0.2,0.6,0.4,1c0.2,0.5,0.5,1.2,0.7,1.9c0.2,0.9,0.1,1.7,0,2.3
		c0,0.2-0.1,0.6-0.1,0.8c0,0.2,0.2,0.5,0.3,0.8c0.2,0.6,0.5,1.3,0.6,2.1c0,0.3,0.1,0.6,0.2,1c0.1,0.6,0.2,1.3,0.2,2v0.4
		c0,0.9,0,1.8-0.1,2.8c0,0.3,0,0.7,0,1.1c0,0.6,0,1.4-0.1,2.1c-0.2,1-0.8,1.8-1.3,2.3c-0.1,0.2-0.4,0.4-0.4,0.5c0,0.1,0,0.4,0,0.7
		c0.1,0.7,0.1,1.6-0.2,2.5c-0.4,1-1.3,1.6-1.9,2c-0.2,0.1-0.5,0.3-0.5,0.4l-0.1,0.2c-0.4,0.8-0.9,1.6-1.4,2.4
		c-0.2,0.2-0.3,0.5-0.5,0.8c-0.3,0.6-0.6,1.2-1.2,1.8c-0.1,0.1-0.3,0.5-0.5,0.7c-0.3,0.6-0.7,1.3-1.4,1.9l-0.4,0.3
		c-0.6,0.6-1.4,1.2-2.2,1.7c-0.7,0.5-1.4,0.8-2.1,1.1c-0.2,0.1-0.5,0.2-0.7,0.4c-1,0.5-1.9,0.4-2.7,0.3c-0.2,0-0.6,0-0.7,0
		c0,0-0.3,0.3-0.5,0.4c-0.5,0.5-1.2,1.1-2.2,1.3c-0.8,0.2-1.5,0.2-2.1,0.2c-0.4,0-0.7,0-1,0c-0.7,0.1-1.4,0.1-2.1,0
		c-0.4,0-0.7-0.1-1,0c-0.7,0.1-1.4,0-2-0.1c-0.8-0.1-1.4-0.1-2.1,0c-0.5,0.1-1.1,0.1-1.7,0.1c-0.1,0-0.4,0.2-0.5,0.3
		C378.7,136.9,378,137.4,377,137.4z M376.9,133.4L376.9,133.4L376.9,133.4z M362.2,118.3c-0.2,0-0.6,0.3-0.9,0.5
		c-0.2,0.2-0.5,0.3-0.7,0.5c-0.3,0.2-0.6,0.4-1,0.5c-0.3,0.1-0.8,0.4-0.9,0.5c-0.4,0.8-0.6,1.6-0.6,2.1c0,0.2,0.3,0.9,0.6,1.3
		c0.1,0.2,0.2,0.4,0.3,0.6c0.1,0.3,0.5,0.6,0.9,1c0.2,0.2,0.4,0.4,0.6,0.6l0.4,0.4c0.5,0.5,0.9,0.9,1.4,1.3c0.6,0.4,1,0.9,1.3,1.3
		c0.2,0.2,0.4,0.6,0.6,0.6c0.3,0.2,0.8,0.3,1.3,0.5c0.4,0.1,0.8,0.3,1.2,0.4c0.1,0,0.5,0,0.8,0.1c0.6,0,1.3,0,2,0.3
		c0.5,0.1,1,0.3,1.6,0.4c0.3,0.1,0.7,0.1,1,0.2c0.7,0.2,1.2,0.5,1.7,0.7c0.3,0.2,0.6,0.3,0.8,0.4c0.6,0.1,1.2,0.3,1.7,0.5
		c0.3,0.1,0.6,0.2,0.8,0.3c0.1-0.1,0.3-0.2,0.5-0.2c0.6-0.3,1.5-0.8,2.5-0.7c0.4,0,0.8,0,1.2-0.1c0.9-0.1,2.1-0.1,3,0
		c0.5,0.1,0.8,0.1,1.2,0.1c0.6,0,1.1,0,1.6,0c0.4,0,0.8,0.1,1.1,0c0.6-0.1,1.2-0.1,1.7-0.1c0.4,0,0.8,0,1.1-0.1
		c0.1,0,0.3-0.3,0.5-0.4c0.5-0.4,1-0.9,1.8-1.2c0.9-0.3,1.7-0.2,2.4-0.2c0.2,0,0.5,0,0.6,0c0.2-0.1,0.5-0.2,0.7-0.3
		c0.6-0.3,1.2-0.6,1.7-0.9c0.6-0.4,1.2-0.9,1.8-1.4l0.4-0.3c0.1-0.1,0.3-0.5,0.5-0.8c0.3-0.5,0.6-1,1-1.6c0.2-0.2,0.4-0.6,0.6-1
		c0.2-0.4,0.5-0.9,0.8-1.3c0.4-0.6,0.8-1.3,1.2-2l0.2-0.3c0.4-0.8,1.1-1.3,1.7-1.7c0.1-0.1,0.3-0.2,0.5-0.3c0-0.1,0-0.4,0-0.6
		c-0.1-0.6-0.1-1.4,0.1-2.2c0.2-0.8,0.8-1.5,1.2-2c0.2-0.2,0.4-0.5,0.4-0.6c0-0.3,0.1-0.8,0.1-1.3c0-0.5,0-0.9,0-1.4
		c0.1-0.7,0.1-1.6,0.1-2.4v-0.4c0-0.4-0.1-0.8-0.2-1.3c-0.1-0.4-0.2-0.9-0.2-1.4c0-0.2-0.2-0.5-0.3-0.8c-0.2-0.5-0.4-1.1-0.5-1.8
		c-0.1-0.8,0-1.5,0.1-2c0-0.2,0.1-0.6,0.1-0.8c-0.1-0.3-0.3-0.7-0.4-1.2c-0.2-0.4-0.4-0.9-0.5-1.4c-0.1-0.2-0.3-0.5-0.5-0.7
		c-0.3-0.4-0.7-0.9-0.9-1.6c-0.3-0.8-0.3-1.5-0.3-2.2c0-0.2,0-0.6,0-0.7l-0.1-0.2c-0.4-0.7-0.7-1.5-1.1-2.2c-0.2-0.3-0.4-0.6-0.7-1
		c-0.3-0.4-0.6-0.8-0.9-1.2c-0.1-0.2-0.4-0.5-0.7-0.8c-0.4-0.4-0.8-0.7-1.2-1.3c-0.3-0.4-0.6-0.9-0.8-1.3c-0.2-0.4-0.4-0.8-0.7-1.1
		c-0.3-0.3-0.5-0.7-0.8-1c-0.3-0.4-0.6-0.8-0.9-1.2c-0.4-0.4-0.7-0.9-1-1.3c-0.2-0.3-0.4-0.6-0.6-0.8c-0.1,0-0.4-0.1-0.5-0.1
		c-0.8-0.2-1.8-0.5-2.6-1.4c-0.4-0.5-0.8-1-1.1-1.5c-0.2-0.3-0.4-0.6-0.7-1c-0.6-0.8-0.7-1.7-0.8-2.4c0-0.2-0.1-0.6-0.1-0.7
		c-0.4-0.6-0.6-1.2-0.9-1.7c-0.1-0.4-0.3-0.7-0.4-0.9c-0.2-0.3-0.4-0.6-0.6-0.9c-0.3-0.5-0.6-1-0.9-1.5c-0.1-0.1-0.4-0.2-0.5-0.3
		c-0.7-0.3-1.7-0.8-2.2-1.8c-0.5-0.9-0.5-1.9-0.5-2.6c0-0.2,0-0.5,0-0.6c-0.1-0.2-0.3-0.5-0.5-0.8c-0.3-0.5-0.7-1.1-1-1.7
		c-0.4-0.9-0.7-1.6-1.1-2.3l-0.1-0.2c-0.3-0.6-0.6-0.8-1.1-1.1l-0.3-0.2c-0.4-0.3-0.6-0.6-0.9-0.8c-0.2-0.2-0.4-0.4-0.5-0.5
		c-0.4,0-0.9,0.3-1.5,0.6c-0.2,0.1-0.5,0.2-0.7,0.3c-0.2,0.1-0.3,0.3-0.7,0.9c-0.1,0.2-0.2,0.4-0.3,0.5c-0.3,0.5-0.7,0.9-1,1.2
		c-0.1,0.1-0.3,0.3-0.5,0.5c0.1,0.1,0.2,0.3,0.2,0.4c0.3,0.5,0.7,1.2,0.9,2c0.2,0.8,0.1,1.6-0.1,2.3c-0.1,0.3-0.1,0.7-0.1,0.8
		c0.1,0.2,0.3,0.5,0.6,0.9c0.3,0.5,0.7,1,1,1.6c0.2,0.5,0.4,1,0.6,1.5c0.2,0.5,0.3,0.9,0.5,1.3c0.1,0.2,0.4,0.5,0.7,0.7
		c0.4,0.4,0.9,0.9,1.3,1.6c0.4,0.6,0.6,1.2,0.7,1.8c0.1,0.4,0.2,0.8,0.4,1c0.2,0.3,0.4,0.5,0.5,0.8c0.4,0.6,0.7,1.1,1.1,1.7
		c0.4,0.6,0.8,1.1,1.3,1.6l0.6,0.7c0.2,0.3,0.6,0.6,0.9,0.9c0.4,0.3,0.8,0.7,1.2,1.2c0.1,0.1,0.5,0.3,0.7,0.5
		c0.6,0.3,1.3,0.7,1.8,1.4c0.4,0.5,0.8,1.1,1,1.6c0.2,0.4,0.4,0.7,0.6,1c0.1,0.2,0.4,0.4,0.7,0.7c0.5,0.4,1,0.9,1.5,1.5
		c0.5,0.8,0.6,1.7,0.7,2.4c0,0.2,0.1,0.6,0.1,0.7c0.2,0.3,0.3,0.5,0.5,0.8c0.4,0.6,0.7,1.2,1,1.8c0.4,0.8,0.5,1.6,0.6,2.2
		c0,0.3,0.1,0.7,0.2,0.9c0.1,0.3,0.3,0.6,0.5,0.9c0.3,0.5,0.6,1.1,0.9,1.8c0.1,0.2,0.3,0.5,0.4,0.8c0.4,0.5,0.8,1.2,1,2.1
		c0.2,0.8,0.2,1.5,0.2,2.2c0,0.3,0,0.7,0.1,1c0.1,1,0.1,2,0.1,2.9v0.3c0,1-0.4,1.8-0.6,2.4c-0.1,0.2-0.2,0.5-0.3,0.6
		c0,0.2,0,0.5,0,0.8c0,0.6,0.1,1.5-0.2,2.3c-0.3,0.9-0.8,1.5-1.3,2.1c-0.2,0.2-0.4,0.4-0.5,0.6c-0.6,1-1.2,1.7-1.9,2.5
		c-0.2,0.2-0.3,0.4-0.5,0.5c-0.5,0.5-1,1.2-1.8,1.7c-0.8,0.5-1.5,0.7-2.2,0.9c-0.2,0.1-0.5,0.1-0.7,0.2c-0.2,0.1-0.5,0.2-0.7,0.3
		c-0.6,0.3-1.3,0.6-2.2,0.8c-0.9,0.1-1.7,0-2.3-0.2c-0.2-0.1-0.5-0.1-0.7-0.1c-0.1,0.1-0.3,0.2-0.4,0.2c-0.7,0.4-1.6,1-2.7,0.9
		c-0.3,0-0.6,0-1,0c-0.6,0-1.3,0-2-0.2c-1.1-0.2-1.9-1-2.4-1.5c-0.1-0.1-0.2-0.2-0.2-0.2c-0.1,0-0.2,0.1-0.3,0.1
		c-0.7,0.2-1.7,0.5-2.7,0.2c-1-0.3-1.6-1.1-2.1-1.6c-0.1-0.1-0.3-0.3-0.4-0.4c-0.2-0.1-0.5-0.1-0.8-0.2c-0.6-0.1-1.4-0.2-2.1-0.7
		c-0.7-0.4-1.2-0.9-1.5-1.2c-0.1-0.1-0.2-0.2-0.2-0.2C362.9,118.4,362.7,118.3,362.2,118.3z M396.1,130.6
		C396.1,130.6,396.1,130.6,396.1,130.6C396.1,130.6,396.1,130.6,396.1,130.6z M382.6,123.4L382.6,123.4L382.6,123.4z M379.4,120.7
		L379.4,120.7L379.4,120.7z M377.4,120.6L377.4,120.6L377.4,120.6z M407.2,118.6L407.2,118.6L407.2,118.6z"/>
</g>
<path class="st1" d="M404.9,20.4c3.5,2.2,3.5,2.2,3.8,2.3c2.3,1.8,3.8,4.6,3.8,7.3c0,3.7-2,6.3-6.3,8.5c-7,3.5-13.8,6-16.4,6
	c-3,0-5.1-2.2-5.1-4.8c0-2.2,1.2-3.5,3.5-4.3c5.8-1.8,8.6-3.2,8.6-4.5c0-0.8-0.7-1.5-3-2.5c-9.1-4.6-14.1-6.8-21.2-9.6
	c-3.3-1.2-4.8-2.8-4.8-5.1c0-3.3,2.7-6,5.8-6C378,7.6,396.4,15.1,404.9,20.4z"/>
<path class="st0" d="M435.1,72.2c12,13.3,22.6,31.4,22.6,38.2c0,4.3-2.8,7.1-7.1,7.1c-2,0-4-1.2-5.1-3c-0.3-0.5-0.3-0.5-1.7-3.7
	C436.9,95.8,430.9,86,424,78.5c-1.2-1.3-1.7-2.7-1.7-4c0-3.2,3.2-6,6.6-6C431.1,68.6,432.6,69.4,435.1,72.2z"/>
<g>
	<path class="st0" d="M527,81.1c0.8-0.6,1.4-1.2,2.2-1.7c0.8-0.6,1.7-1,2.5-1.5c0.8-0.5,1.4-1.5,2.2-2c0.8-0.5,1.8-0.7,2.7-1.1
		c0.8-0.5,1.4-1.6,2.2-2c0.9-0.4,2.1-0.2,2.9-0.6c0.9-0.4,2.2,0.3,3.1,0c0.9-0.3,1.3-2,2.2-2.3c0.9-0.3,1.8-0.6,2.8-0.9
		c0.9-0.3,1.8-1,2.7-1.2c0.9-0.2,2,0,2.9-0.2c0.9-0.2,2.1,0.7,3,0.6c0.9-0.2,1.7-1.6,2.7-1.8c1-0.1,2,0.4,2.9,0.3
		c1-0.1,1.9-0.8,2.9-0.8c1,0,1.9,1.3,2.9,1.3c1,0,2-1.2,3-1.2c1,0,2-0.1,3,0c1,0.1,2,0.6,2.9,0.8c1,0.2,1.8,1.2,2.7,1.4
		c1,0.2,1.7,1,2.7,1.3c1,0.3,2.5-1.2,3.4-0.9c0.9,0.4,1.9,0.8,2.8,1.2c0.9,0.4,1.2,2,2.1,2.5c0.9,0.5,1.6,1.1,2.4,1.7
		c0.8,0.6,2.4,0.3,3.1,0.9c0.7,0.7,0.1,2.6,0.8,3.3c0.6,0.8,2.5,0.6,3,1.5c0.5,0.8,0.4,2.1,0.8,3c0.4,0.9,0.5,1.9,0.8,2.8
		c0.3,0.9,0,2,0.2,2.9c0.2,0.9,1.3,1.8,1.4,2.7c0.1,1,0.7,2,0.7,3c0,1-0.4,1.9-0.5,2.9c-0.1,0.9-1.4,1.7-1.5,2.6
		c-0.2,0.9,0.8,2.1,0.6,3c-0.2,0.9-0.1,2-0.4,2.9c-0.3,0.9-2.3,1.1-2.7,1.9c-0.4,0.8,0.6,2.5,0.1,3.3c-0.5,0.8-2.6,0.5-3.2,1.3
		c-0.5,0.8-0.6,1.8-1.3,2.5c-0.6,0.7-0.8,1.8-1.4,2.5c-0.7,0.7-1.6,1.1-2.3,1.7c-0.7,0.6-1.7,0.8-2.5,1.4c-0.7,0.6-1.7,0.8-2.4,1.3
		c-0.8,0.5-0.9,2-1.7,2.5c-0.8,0.5-2,0.1-2.9,0.6c-0.9,0.5-1.8,0.7-2.8,1.2c-0.9,0.4-1.6,1.3-2.6,1.7c-0.9,0.4-1.5,1.6-2.5,1.9
		c-0.9,0.4-2.1,0-3.1,0.3c-0.9,0.3-2.2-0.2-3.1,0.1c-1,0.3-1.4,2.3-2.4,2.5c-1,0.3-2.1,0.2-3.1,0.4c-0.9,0.2-2.2-0.8-3.2-0.6
		c-0.9,0.2-1.7,1.6-2.7,1.8c-1,0.2-2.1-0.3-3.1-0.1c-1,0.2-2-0.1-3,0c-1,0.2-1.9,0.9-2.9,1c-1,0.2-2.1-0.3-3.1-0.2
		c-1,0.1-1.9,0.9-2.9,1.1c-1.1,0.1-2,0.6-3,0.7c-1.2,0.1-2.2-0.7-3-0.7c-1.2,0-2.5,0.7-3.4,0.2c-0.9-0.6-2.3-1.4-2.8-2.4
		c-0.4-0.9,0.4-2.4,0.4-3.6c0-1.3-0.5-2.6-0.2-3.3c0.4-0.9,1.5-1.6,2.7-2c0.8-0.3,1.8-1.3,3.1-1.5c0.9-0.1,2.2,1.4,3.4,1.3
		c0.9-0.1,1.8-0.7,2.8-0.8c0.9-0.1,1.8-0.6,2.8-0.8c0.9-0.1,1.8-0.8,2.7-1c0.9-0.2,2,0.6,3,0.4c0.9-0.2,1.9-0.5,2.8-0.7
		c0.9-0.2,2,0,2.9-0.2c0.9-0.2,1.9-0.2,2.8-0.5c0.9-0.2,1.8-0.6,2.7-0.9c0.9-0.3,1.8-0.9,2.7-1.2c0.9-0.3,1.9-0.4,2.8-0.7
		c0.9-0.3,1.9-0.4,2.8-0.8c0.9-0.4,1.6-1.3,2.4-1.6c0.9-0.4,1.5-1.3,2.3-1.7c0.9-0.5,2.1-0.2,2.9-0.7c0.9-0.5,1.8-0.9,2.6-1.4
		c0.8-0.6,1-1.9,1.7-2.5c0.8-0.6,1.6-1.1,2.2-1.8c0.7-0.7,1.3-1.4,1.8-2.2c0.6-0.8,1.8-1.2,2.2-2.1c0.4-0.9-0.4-2.2-0.1-3.2
		c0.3-0.9,1.3-1.6,1.5-2.6c0.1-0.9,0.2-1.9,0.2-2.9c0-1-1-1.8-1.1-2.7c-0.1-1,0-1.9-0.2-2.7c-0.3-0.9,0.3-2.2-0.1-3
		c-0.4-0.9-1.8-1.1-2.4-1.8c-0.6-0.7-0.3-2.4-1-3c-0.7-0.6-2.1-0.4-2.9-0.9c-0.8-0.4-1.4-1.5-2.4-1.8c-0.9-0.3-2.1,0.4-3,0.2
		c-0.9-0.2-1.7-1.4-2.6-1.6c-0.9-0.1-2,1.1-3,1.1c-0.9-0.1-1.8-0.6-2.8-0.6c-1,0-1.9,0.9-2.8,0.9c-1,0-1.9-0.4-2.9-0.4
		c-1,0.1-1.9,0.1-2.9,0.2c-1,0.1-1.8,0.9-2.7,1c-0.9,0.2-2.1-0.6-3-0.4c-0.9,0.2-1.6,1.2-2.6,1.5c-0.9,0.3-1.7,0.8-2.6,1.1
		c-0.9,0.3-2.1-0.1-3,0.3c-0.9,0.4-1.3,1.8-2.1,2.2c-0.9,0.4-2.1,0.1-2.9,0.6c-0.8,0.5-1.5,1.2-2.3,1.7c-0.8,0.5-2.1,0.2-2.9,0.8
		c-0.8,0.5-1.7,1-2.4,1.6c-0.8,0.6-1,1.8-1.8,2.4c-0.7,0.6-2.1,0.5-2.8,1.2c-0.7,0.6-0.7,2.1-1.4,2.7c-0.8,0.8-2.1,0.8-2.8,1.4
		c-0.9,0.8-1.4,1.7-2.2,2.1c-1,0.5-1.9,0.8-2.8,0.8c-1,0-2.2,0.2-3.1-0.3c-0.9-0.5-1.9-1.2-2.4-2.1c-0.6-0.8-1.5-1.7-1.7-2.9
		c-0.1-0.8,0.5-1.9,0.5-3.2c0-0.9-0.5-1.9-0.5-3.1c0-0.9,0-1.9,0-2.9c0-0.9,1.5-1.8,1.5-2.8c0-0.9,0.1-1.9,0.2-2.9
		c0.1-0.9-0.9-2-0.8-3c0.1-0.9,0.2-1.9,0.3-2.9c0.1-0.9,0.7-1.8,0.8-2.8c0.1-0.9-0.1-1.9,0-2.9c0.1-0.9,1.1-1.8,1.2-2.8
		c0.1-0.9,0.1-1.9,0.2-2.9c0.1-0.9,0.5-1.9,0.6-2.8c0.1-0.9-0.4-2-0.2-3c0.2-0.9,1-1.8,1.2-2.8c0.2-0.9-1.1-2.1-1-3.1
		c0.2-0.9,2-1.6,2.2-2.6c0.2-0.9-0.4-2-0.2-3c0.2-0.9,0.8-1.8,1-2.8c0.2-0.9,0.7-1.8,0.9-2.8c0.2-0.9-1.7-2.3-1.5-3.3
		c0.2-1.2,2.1-1.8,2.5-2.7c0.6-1.1,1.3-1.4,2.2-1.9c0.9-0.5,1.5-1.7,2.8-1.7c1.1,0,2.4,0.2,3.4,0.7c1,0.5,1.8,1.6,2.4,2.5
		c0.6,0.9,0.5,2.1,0.5,3.2c0,0.6,0.4,0.9,0,2.4c-0.1,0.6,0.3,1.5,0,2.6c-0.2,0.9-0.9,1.7-1.1,2.6c-0.2,0.9-1.4,1.6-1.6,2.6
		c-0.2,0.9-0.2,1.9-0.4,2.8c-0.2,0.9,0.6,2,0.4,3c-0.2,0.9,0.2,1.9,0.1,2.9c-0.2,0.9-1,1.8-1.1,2.7c-0.1,0.9-1.2,1.7-1.3,2.7
		c-0.1,0.9,0.8,2,0.6,3c-0.1,0.9-1.3,1.8-1.4,2.7c-0.1,1,0.6,2,0.5,2.9c-0.1,1-0.6,1.9-0.6,2.8c-0.1,1-0.9,1.9-1,2.8
		c-0.1,1,0.7,2,0.7,2.9c-0.1,1,0.8,2.2,0.8,3.1C527.7,80.6,526.5,80.5,527,81.1z"/>
	<path class="st0" d="M539.7,138.2c-0.9,0-1.7-0.3-2.3-0.5c-0.2-0.1-0.5-0.2-0.6-0.2c-0.2,0-0.6,0.1-0.9,0.2
		c-0.9,0.2-2.2,0.5-3.4-0.2c-1.4-0.8-2.9-1.8-3.6-3.3c-0.5-1.2-0.2-2.4,0-3.4c0.1-0.4,0.2-0.8,0.2-1.1c0-0.4-0.1-0.8-0.1-1.2
		c-0.2-0.9-0.3-1.9,0.1-2.9c0.6-1.3,1.8-2.4,3.9-3.1c0.1,0,0.4-0.2,0.6-0.3c0.7-0.4,1.6-1,2.9-1.2c1.2-0.2,2.1,0.4,2.8,0.8
		c0.2,0.1,0.6,0.3,0.8,0.4c0.2,0,0.5-0.2,0.8-0.3c0.5-0.2,1.1-0.5,1.9-0.5c0.3,0,0.6-0.2,1-0.3c0.5-0.2,1.1-0.4,1.7-0.5
		c0.2,0,0.5-0.2,0.9-0.3c0.5-0.2,1.1-0.5,1.8-0.6c0.9-0.2,1.7,0.1,2.4,0.3c0.2,0.1,0.5,0.2,0.6,0.2c0.4-0.1,0.8-0.2,1.3-0.3
		c0.5-0.1,0.9-0.3,1.4-0.4c0.7-0.1,1.3-0.1,1.8-0.1c0.4,0,0.8,0,1-0.1c0.6-0.1,1.1-0.2,1.6-0.3c0.4-0.1,0.9-0.1,1.2-0.2
		c0.4-0.1,0.9-0.3,1.3-0.4c0.5-0.2,0.9-0.3,1.4-0.5c0.3-0.1,0.6-0.3,1-0.5c0.5-0.2,1-0.5,1.6-0.7c0.5-0.2,1-0.3,1.5-0.4
		c0.5-0.1,0.9-0.2,1.2-0.3c0.5-0.2,1.1-0.3,1.6-0.4c0.4-0.1,0.9-0.2,1.2-0.3c0.2-0.1,0.5-0.3,0.8-0.5c0.4-0.4,0.9-0.8,1.6-1.1
		c0.2-0.1,0.5-0.3,0.8-0.6c0.4-0.4,0.9-0.8,1.5-1.1c0.7-0.4,1.5-0.5,2.1-0.5c0.2,0,0.6-0.1,0.7-0.1c0.4-0.2,0.8-0.4,1.2-0.6
		c0.5-0.2,0.9-0.4,1.2-0.7c0-0.1,0.2-0.4,0.3-0.6c0.3-0.6,0.6-1.2,1.3-1.8c0.3-0.3,0.7-0.5,1-0.8c0.4-0.3,0.8-0.6,1-0.8
		c0.7-0.7,1.2-1.4,1.7-2c0.4-0.6,1-1,1.5-1.4c0.1-0.1,0.3-0.2,0.4-0.3c0-0.1-0.1-0.3-0.1-0.4c-0.2-0.7-0.3-1.6,0-2.5
		c0.2-0.8,0.7-1.3,1-1.8c0.1-0.2,0.3-0.4,0.4-0.6c0.1-0.7,0.1-1.5,0.1-2.5c0,0-0.2-0.3-0.3-0.5c-0.3-0.5-0.7-1.2-0.8-2
		c-0.1-0.5-0.1-0.9-0.1-1.3c0-0.5,0-0.8-0.1-1.1c-0.2-0.8-0.1-1.5-0.1-2.1c0-0.1,0-0.3,0-0.4c-0.1-0.1-0.3-0.2-0.4-0.2
		c-0.5-0.3-1.2-0.6-1.7-1.3c-0.6-0.8-0.8-1.7-0.9-2.4c0-0.1,0-0.2-0.1-0.4c-0.1,0-0.3-0.1-0.5-0.1c-0.6-0.1-1.3-0.2-2-0.6
		c-0.6-0.3-1.1-0.8-1.5-1.2c-0.2-0.2-0.4-0.4-0.5-0.5c-0.1,0-0.4,0.1-0.5,0.1c-0.7,0.2-1.5,0.3-2.4,0.1c-0.9-0.2-1.5-0.7-2.1-1.2
		c-0.1-0.1-0.2-0.2-0.3-0.3c-0.1,0.1-0.2,0.1-0.3,0.2c-0.6,0.4-1.5,0.9-2.6,0.8c-0.7,0-1.3-0.2-1.8-0.4c-0.3-0.1-0.7-0.2-0.9-0.2
		c-0.1,0-0.4,0.2-0.6,0.3c-0.6,0.3-1.3,0.6-2.1,0.7c-0.7,0-1.4-0.1-1.9-0.2c-0.3-0.1-0.7-0.2-0.9-0.1c-0.4,0-0.9,0.1-1.3,0.1
		c-0.5,0-1,0-1.5,0.1c-0.2,0-0.5,0.2-0.8,0.3c-0.5,0.2-1.1,0.5-1.8,0.7c-0.9,0.2-1.8-0.1-2.4-0.2c-0.2,0-0.4-0.1-0.6-0.1
		c-0.1,0.1-0.4,0.3-0.5,0.4c-0.5,0.4-1.1,0.8-1.9,1.1c-0.4,0.1-0.8,0.3-1.2,0.5c-0.4,0.2-0.9,0.4-1.3,0.6c-0.8,0.3-1.6,0.3-2.2,0.3
		c-0.2,0-0.4,0-0.6,0c-0.1,0.1-0.2,0.3-0.3,0.4c-0.4,0.6-0.9,1.3-1.8,1.8c-0.8,0.4-1.5,0.4-2.1,0.5c-0.2,0-0.6,0-0.7,0.1
		c-0.3,0.2-0.6,0.4-1,0.7c-0.4,0.3-0.8,0.6-1.2,0.9c-0.8,0.5-1.6,0.6-2.2,0.6c-0.2,0-0.6,0.1-0.7,0.1c-0.3,0.2-0.6,0.4-1,0.6
		c-0.5,0.3-0.9,0.6-1.3,0.9c-0.1,0.1-0.2,0.4-0.3,0.6c-0.3,0.6-0.7,1.3-1.4,1.8c-0.7,0.6-1.5,0.8-2.1,0.9c-0.2,0-0.4,0.1-0.6,0.2
		c-0.1,0.1-0.1,0.4-0.2,0.5c-0.2,0.6-0.5,1.5-1.2,2.2c-0.8,0.7-1.7,1-2.4,1.3c-0.2,0.1-0.5,0.2-0.6,0.2c-0.3,0.2-0.5,0.5-0.8,0.8
		c-0.4,0.5-1,1.1-1.7,1.5c-1.3,0.7-2.5,1-3.7,1c-0.2,0-0.3,0-0.5,0c-1,0-2.3,0.1-3.5-0.6c-1-0.5-2.3-1.4-3.2-2.8
		c-0.1-0.1-0.2-0.2-0.3-0.4c-0.6-0.8-1.4-1.8-1.7-3.3c-0.1-0.8,0.1-1.5,0.2-2.2c0.1-0.5,0.2-0.9,0.2-1.3c0-0.2-0.1-0.5-0.2-0.8
		c-0.1-0.6-0.3-1.4-0.3-2.3v-0.4c0-0.8,0-1.7,0-2.6c0-1.1,0.7-2,1.2-2.6c0.1-0.1,0.3-0.4,0.4-0.5c0-0.6,0.1-1.1,0.1-1.7l0.1-1
		c0-0.1-0.2-0.4-0.2-0.6c-0.3-0.6-0.7-1.5-0.6-2.5c0.1-0.6,0.1-1.1,0.2-1.7c0-0.4,0.1-0.8,0.1-1.2c0.1-0.7,0.3-1.4,0.5-1.9
		c0.1-0.4,0.3-0.7,0.3-1c0-0.3,0-0.7,0-1.1c0-0.6-0.1-1.2,0-1.9c0.1-0.9,0.5-1.6,0.9-2.1c0.1-0.2,0.3-0.5,0.4-0.7
		c0-0.3,0.1-0.7,0.1-1.2c0-0.5,0-1.1,0.1-1.7c0.1-0.6,0.2-1.1,0.4-1.6c0.1-0.4,0.2-0.8,0.3-1.2c0-0.1,0-0.5-0.1-0.8
		c-0.1-0.6-0.2-1.4-0.1-2.2c0.1-0.8,0.5-1.5,0.8-2c0.1-0.2,0.2-0.4,0.3-0.6c-0.1-0.1-0.2-0.3-0.2-0.4c-0.4-0.7-0.9-1.7-0.7-2.8
		c0.2-1.2,1.1-1.9,1.8-2.5c0.1-0.1,0.3-0.2,0.4-0.3c0-0.2-0.1-0.4-0.1-0.5c-0.1-0.6-0.3-1.4-0.1-2.2c0.1-0.7,0.4-1.3,0.7-1.8
		c0.2-0.4,0.3-0.7,0.4-0.9c0.1-0.6,0.3-1.2,0.5-1.7c0.1-0.3,0.2-0.5,0.3-0.7c-0.1-0.1-0.2-0.3-0.3-0.4c-0.6-0.8-1.4-1.9-1.1-3.2
		c0.3-1.5,1.5-2.3,2.3-2.9c0.2-0.1,0.4-0.3,0.5-0.4c0.8-1.4,1.8-2,2.7-2.5l0.2-0.1c0.1-0.1,0.3-0.3,0.5-0.4c0.7-0.6,1.7-1.6,3.3-1.6
		c1.2,0,2.9,0.2,4.3,0.9c1.1,0.6,2.1,1.6,3.1,3.1c0.9,1.3,0.9,2.7,0.8,3.9l0,0.5c0,0,0,0,0,0.1c0.1,0.6,0.2,1.4-0.1,2.7
		c0,0.1,0,0.2,0,0.3c0.1,0.6,0.2,1.5,0,2.5c-0.1,0.6-0.4,1.1-0.7,1.6c-0.2,0.3-0.3,0.7-0.4,0.9c-0.2,0.9-0.7,1.6-1.2,2.1
		c-0.1,0.2-0.4,0.4-0.4,0.5c-0.1,0.3-0.1,0.8-0.2,1.2c-0.1,0.5-0.1,1-0.2,1.5c0,0,0.1,0.3,0.2,0.5c0.2,0.6,0.4,1.5,0.3,2.4
		c0,0.2,0,0.5,0,0.9c0.1,0.6,0.1,1.2,0,2c-0.1,0.8-0.5,1.4-0.8,2c-0.1,0.2-0.3,0.6-0.3,0.7c-0.1,0.9-0.6,1.6-1,2.1
		c-0.1,0.1-0.2,0.4-0.3,0.5c0,0.1,0.1,0.4,0.2,0.5c0.2,0.6,0.6,1.5,0.4,2.4c-0.1,1-0.7,1.7-1.1,2.3c-0.1,0.1-0.2,0.3-0.3,0.4
		c0,0.1,0.1,0.4,0.2,0.6c0.2,0.6,0.5,1.4,0.4,2.3c-0.1,0.7-0.2,1.2-0.4,1.7c-0.1,0.4-0.2,0.7-0.2,1c-0.1,0.8-0.4,1.5-0.7,2.1
		c-0.1,0.2-0.3,0.6-0.3,0.7c0,0.1,0.1,0.4,0.2,0.6c0.2,0.6,0.5,1.4,0.5,2.3c0,0,0,0,0,0.1c0.2-0.1,0.3-0.2,0.5-0.3
		c0.3-0.2,0.7-0.4,1-0.6c0.2-0.1,0.4-0.4,0.7-0.7c0.4-0.4,0.9-1,1.6-1.4c0.6-0.4,1.2-0.6,1.8-0.8c0.4-0.1,0.7-0.3,1-0.4
		c0.1-0.1,0.3-0.4,0.5-0.5c0.4-0.5,1-1.1,1.8-1.5c0.8-0.4,1.6-0.4,2.2-0.5c0.3,0,0.7-0.1,0.8-0.1c1-0.4,2-0.3,2.7-0.2
		c0.1,0,0.3,0,0.4,0.1c0.1-0.1,0.2-0.2,0.2-0.3c0.4-0.7,1-1.6,2.2-2c0.9-0.3,1.9-0.6,2.8-0.9c0.2-0.1,0.6-0.2,0.9-0.4
		c0.5-0.3,1.1-0.6,1.9-0.8c0.7-0.2,1.4-0.2,2-0.2c0.4,0,0.8,0,1,0c1-0.2,1.9,0.1,2.6,0.3c0.1,0,0.3,0.1,0.4,0.1
		c0.1-0.1,0.2-0.2,0.3-0.3c0.6-0.5,1.4-1.3,2.5-1.4c0.8-0.1,1.5,0,2.1,0.2c0.3,0.1,0.7,0.1,0.9,0.1c0.2,0,0.5-0.2,0.8-0.3
		c0.6-0.2,1.3-0.5,2.2-0.6c1.1,0,2,0.5,2.6,1c0.1,0.1,0.3,0.2,0.4,0.2c0.1-0.1,0.3-0.2,0.4-0.2c0.6-0.4,1.5-0.9,2.6-0.9
		c0.4,0,0.8,0,1.2,0c0.6,0,1.2,0,1.9,0c0.8,0.1,1.4,0.3,2,0.5c0.4,0.1,0.7,0.2,1,0.3c1,0.1,1.7,0.6,2.3,1c0.2,0.1,0.5,0.3,0.6,0.4
		c0.8,0.2,1.5,0.6,2,0.9c0.2,0.1,0.3,0.2,0.5,0.3c0.2-0.1,0.4-0.2,0.5-0.2c0.9-0.4,2-1,3.3-0.5c0.9,0.3,1.9,0.8,2.9,1.3
		c1,0.5,1.6,1.4,2,2.1c0.1,0.2,0.3,0.4,0.3,0.5c0.7,0.4,1.3,0.9,2,1.4l0.4,0.3c0.1,0,0.4,0.1,0.6,0.1c0.8,0.1,1.9,0.2,2.7,1
		c1,0.9,1,2.2,1,3.1c0,0.1,0,0.2,0,0.4c0.1,0,0.2,0.1,0.3,0.1c0.8,0.2,2,0.6,2.7,1.6c0.5,0.8,0.6,1.6,0.8,2.3
		c0.1,0.3,0.1,0.7,0.2,0.9c0.3,0.7,0.5,1.5,0.7,2.1c0.1,0.3,0.2,0.6,0.3,1c0.3,0.8,0.2,1.6,0.2,2.3c0,0.4,0,0.7,0,0.9
		c0,0.1,0.2,0.4,0.3,0.5c0.4,0.6,0.9,1.4,1,2.4c0,0.2,0.1,0.5,0.2,0.9c0.2,0.6,0.5,1.4,0.5,2.3c0,0.8-0.2,1.5-0.3,2.1
		c-0.1,0.4-0.2,0.7-0.2,0.9c-0.1,1.1-0.8,1.9-1.2,2.5c-0.1,0.1-0.2,0.2-0.3,0.3c0,0.1,0.1,0.3,0.1,0.4c0.3,0.7,0.6,1.7,0.4,2.8
		c-0.1,0.2-0.1,0.6-0.1,0.9c0,0.6-0.1,1.4-0.4,2.1c-0.5,1.2-1.6,1.8-2.4,2.1c-0.1,0-0.1,0-0.2,0.1c0,0.1,0,0.1,0,0.2
		c0.2,0.9,0.5,2.1-0.2,3.2c-0.7,1.2-2,1.4-2.9,1.6c-0.1,0-0.3,0.1-0.5,0.1c-0.1,0.1-0.1,0.3-0.2,0.4c-0.2,0.6-0.5,1.3-1,1.9
		c-0.1,0.1-0.2,0.4-0.3,0.7c-0.3,0.6-0.6,1.3-1.2,1.9c-0.5,0.5-1.1,0.9-1.5,1.2c-0.3,0.2-0.6,0.4-0.8,0.6c-0.6,0.5-1.2,0.8-1.8,1
		c-0.3,0.1-0.6,0.3-0.8,0.4c-0.6,0.4-1.1,0.7-1.7,0.9c-0.3,0.1-0.6,0.3-0.8,0.4c-0.1,0.1-0.2,0.3-0.2,0.5c-0.3,0.7-0.8,1.6-1.7,2.1
		c-0.8,0.5-1.7,0.5-2.4,0.6c-0.2,0-0.6,0-0.7,0.1c-0.6,0.3-1.1,0.5-1.7,0.7c-0.4,0.1-0.8,0.3-1.1,0.5c-0.2,0.1-0.5,0.3-0.8,0.6
		c-0.5,0.4-1.1,0.9-1.8,1.2c-0.1,0.1-0.4,0.3-0.5,0.5c-0.5,0.5-1.1,1.1-2,1.5c-0.8,0.3-1.6,0.3-2.3,0.3c-0.3,0-0.7,0-0.9,0
		c-0.9,0.3-1.7,0.2-2.4,0.1c-0.2,0-0.4,0-0.6,0c-0.1,0.1-0.2,0.3-0.3,0.4c-0.5,0.8-1.1,1.8-2.4,2.1c-0.7,0.2-1.4,0.2-2,0.3
		c-0.4,0-0.8,0.1-1.1,0.1c-1.1,0.3-1.9-0.1-2.7-0.3c-0.2-0.1-0.4-0.1-0.6-0.2c-0.1,0.1-0.3,0.2-0.4,0.3c-0.6,0.5-1.3,1.2-2.4,1.4
		c-0.8,0.2-1.6,0.1-2.2,0c-0.3,0-0.7-0.1-0.9-0.1c-0.7,0.1-1.4,0.1-2,0.1c-0.4,0-0.8,0-1.1,0c-0.2,0-0.6,0.2-0.9,0.4
		c-0.6,0.3-1.2,0.5-2,0.7c-0.8,0.1-1.6,0-2.2-0.1c-0.3-0.1-0.7-0.1-0.9-0.1c-0.2,0-0.6,0.2-0.9,0.4c-0.6,0.3-1.2,0.6-2.1,0.7
		c-0.4,0-0.8,0.2-1.2,0.3c-0.5,0.2-1.2,0.4-1.8,0.4C539.9,138.2,539.8,138.2,539.7,138.2z M536.9,133.5c0.7,0,1.3,0.2,1.8,0.4
		c0.4,0.1,0.8,0.3,1,0.3c0.2,0,0.6-0.1,1-0.2c0.6-0.2,1.2-0.4,1.9-0.4c0.1,0,0.5-0.2,0.7-0.3c0.6-0.3,1.3-0.6,2.1-0.7
		c0.8-0.1,1.5,0,2.1,0.1c0.4,0.1,0.8,0.1,1,0.1c0.2,0,0.6-0.2,0.9-0.3c0.6-0.2,1.2-0.5,1.9-0.7c0.7-0.1,1.4-0.1,1.9,0
		c0.4,0,0.8,0,1.1,0c0.8-0.1,1.6,0,2.2,0c0.3,0,0.6,0.1,0.8,0.1c0.1-0.1,0.4-0.3,0.5-0.4c0.5-0.5,1.2-1.1,2.2-1.3
		c1.1-0.2,2.1,0.1,2.8,0.4c0.2,0.1,0.4,0.1,0.5,0.2c0.6-0.1,1.2-0.2,1.7-0.2c0.3,0,0.7,0,0.9-0.1c0.1-0.1,0.2-0.3,0.3-0.5
		c0.5-0.7,1.1-1.7,2.3-2.1c0.9-0.3,1.7-0.2,2.4-0.1c0.2,0,0.6,0.1,0.7,0c0.8-0.3,1.6-0.3,2.2-0.3c0.3,0,0.7,0,0.8,0
		c0.1-0.1,0.4-0.3,0.6-0.5c0.5-0.5,1-1,1.9-1.4c0.2-0.1,0.5-0.3,0.9-0.6c0.4-0.4,1-0.8,1.6-1.1c0.5-0.2,0.9-0.4,1.4-0.6
		c0.5-0.2,0.9-0.3,1.3-0.5c0.8-0.4,1.6-0.5,2.2-0.5c0.1,0,0.3,0,0.5,0c0.1-0.1,0.1-0.3,0.2-0.4c0.3-0.6,0.7-1.5,1.5-2
		c0.5-0.3,1-0.6,1.4-0.8c0.4-0.2,0.7-0.3,0.9-0.5c0.5-0.4,1.1-0.6,1.6-0.9c0.3-0.1,0.7-0.3,0.8-0.4c0.4-0.4,0.9-0.7,1.2-0.9
		c0.4-0.2,0.7-0.5,0.9-0.7c0.1-0.1,0.3-0.5,0.4-0.7c0.2-0.5,0.5-1.1,1-1.7c0.1-0.1,0.2-0.5,0.4-0.8c0.2-0.5,0.4-1.1,0.8-1.6
		c0.7-1,1.9-1.2,2.8-1.4c-0.2-0.8-0.4-1.8,0.1-2.8c0.5-1.1,1.5-1.5,2.3-1.9c0.1-0.1,0.3-0.1,0.4-0.2c0-0.2,0.1-0.5,0.1-0.7
		c0-0.5,0.1-1,0.2-1.5c0-0.1-0.1-0.3-0.2-0.5c-0.2-0.6-0.6-1.5-0.4-2.5c0.2-1,0.8-1.7,1.2-2.2c0.1-0.1,0.3-0.3,0.3-0.4
		c0.1-0.5,0.2-1,0.3-1.4c0.1-0.4,0.2-0.8,0.2-1.1c0-0.2-0.1-0.6-0.3-1c-0.2-0.5-0.4-1.1-0.4-1.8c0,0-0.2-0.3-0.4-0.5
		c-0.4-0.5-0.8-1.2-1-2c-0.1-0.7-0.1-1.3-0.1-1.8c0-0.3,0-0.7,0-0.9c-0.1-0.4-0.2-0.8-0.3-1.3c-0.1-0.5-0.2-1-0.4-1.4
		c-0.3-0.6-0.4-1.3-0.5-1.9c0-0.2-0.1-0.5-0.1-0.7c-0.1,0-0.3-0.1-0.5-0.1c-0.7-0.2-1.8-0.5-2.5-1.3c-0.7-0.9-0.8-1.9-0.8-2.8
		c0-0.1,0-0.2,0-0.3c-0.1,0-0.2,0-0.2,0c-0.7-0.1-1.7-0.2-2.5-0.8l-0.5-0.4c-0.6-0.4-1.1-0.8-1.6-1.2c-0.8-0.5-1.3-1.3-1.6-1.9
		c-0.1-0.2-0.3-0.4-0.4-0.5c-0.8-0.4-1.5-0.7-2.1-0.9c-0.1,0.1-0.3,0.2-0.5,0.2c-0.8,0.4-1.9,0.9-3.1,0.6c-0.7-0.2-1.3-0.6-1.7-0.8
		c-0.3-0.2-0.6-0.4-0.8-0.4c-0.8-0.2-1.5-0.6-2-1c-0.2-0.1-0.5-0.4-0.6-0.4c-0.6-0.1-1.2-0.3-1.7-0.5c-0.4-0.1-0.8-0.3-1.1-0.3
		c-0.4,0-0.9,0-1.4,0c-0.4,0-0.9,0-1.3,0c-0.1,0.1-0.3,0.2-0.5,0.3c-0.6,0.4-1.5,0.9-2.5,0.9c-1.1,0-1.9-0.6-2.5-1
		c-0.1-0.1-0.3-0.2-0.4-0.3c-0.2,0.1-0.5,0.2-0.7,0.2c-0.5,0.2-1.2,0.5-2,0.6c-0.7,0.1-1.4-0.1-2-0.2c-0.3,0-0.5-0.1-0.7-0.1
		c-0.1,0.1-0.3,0.2-0.4,0.3c-0.5,0.5-1.3,1.2-2.4,1.4c-1,0.2-1.8-0.1-2.5-0.4c-0.2-0.1-0.4-0.2-0.6-0.2c-0.6,0.1-1.2,0.1-1.7,0.1
		c-0.4,0-0.8,0-1,0.1c-0.2,0.1-0.6,0.2-0.9,0.4c-0.5,0.3-1,0.6-1.7,0.7c-0.8,0.2-1.7,0.5-2.5,0.8c-0.1,0.1-0.2,0.3-0.3,0.4
		c-0.4,0.6-1,1.5-2,1.9c-0.9,0.4-1.9,0.2-2.6,0.1c-0.2,0-0.4-0.1-0.6-0.1c-0.7,0.3-1.4,0.3-1.9,0.4c-0.3,0-0.7,0.1-0.8,0.1
		c-0.1,0.1-0.3,0.3-0.5,0.5c-0.4,0.5-0.9,1.1-1.6,1.5c-0.5,0.3-1.1,0.5-1.6,0.7c-0.4,0.1-0.8,0.3-1.1,0.4c-0.2,0.1-0.4,0.4-0.7,0.7
		c-0.4,0.4-0.8,0.9-1.4,1.3c-0.4,0.2-0.8,0.5-1.2,0.7c-0.4,0.3-0.9,0.5-1.2,0.8c-0.4,0.3-0.8,0.6-1.2,1c-0.3,0.2-0.6,0.5-0.9,0.7
		l-1.5,1.2l-1.2-1.5c-0.7-0.8-0.6-1.6-0.5-1.9c0.1-0.6,0.4-1,0.7-1.2c0,0,0,0,0,0c-0.3-0.7-0.6-1.5-0.5-2.5c0,0-0.1-0.3-0.2-0.5
		c-0.2-0.6-0.6-1.4-0.5-2.4c0.1-0.8,0.4-1.5,0.7-2.1c0.1-0.2,0.3-0.6,0.3-0.7c0.1-0.7,0.2-1.3,0.4-1.8c0.1-0.4,0.2-0.7,0.3-1
		c0-0.1-0.1-0.4-0.2-0.6c-0.2-0.6-0.5-1.4-0.4-2.3c0.1-1,0.7-1.8,1.1-2.3c0.1-0.1,0.2-0.3,0.3-0.4c0-0.1-0.1-0.3-0.2-0.5
		c-0.2-0.6-0.6-1.5-0.4-2.5c0.1-0.9,0.6-1.6,1-2.2c0.1-0.2,0.3-0.5,0.3-0.6c0.1-0.8,0.5-1.4,0.8-2c0.1-0.2,0.3-0.6,0.3-0.7
		c0-0.2,0-0.6,0-0.9c-0.1-0.6-0.1-1.3,0-2c0-0.1-0.1-0.4-0.2-0.6c-0.2-0.7-0.4-1.5-0.3-2.4c0.1-0.4,0.1-0.8,0.2-1.2
		c0.1-0.5,0.1-1.1,0.2-1.6c0.2-1,0.8-1.7,1.2-2.2c0.1-0.1,0.3-0.4,0.4-0.5c0.2-0.7,0.5-1.3,0.7-1.8c0.2-0.3,0.3-0.6,0.4-0.8
		c0.1-0.2,0-0.5,0-0.9c-0.1-0.5-0.2-1.1,0-1.7c0.1-0.6,0.1-0.8,0.1-1c0-0.2-0.1-0.5-0.1-0.9l0-0.5c0-0.6,0-1.3-0.2-1.6
		c-0.8-1.2-1.4-1.6-1.7-1.8c-0.5-0.3-1.4-0.4-2.5-0.4c0,0-0.3,0.3-0.5,0.5c-0.3,0.3-0.7,0.7-1.2,1l-0.3,0.1c-0.7,0.4-0.9,0.6-1.2,1
		c-0.4,0.8-1.1,1.2-1.7,1.7c-0.1,0.1-0.3,0.2-0.4,0.3c0.1,0.1,0.1,0.1,0.2,0.2c0.6,0.8,1.3,1.8,1.1,3.2c-0.1,0.6-0.3,1.2-0.5,1.7
		c-0.1,0.4-0.3,0.8-0.3,1.1c-0.1,0.7-0.4,1.3-0.7,1.9c-0.2,0.3-0.3,0.7-0.3,0.9c0,0.1,0.1,0.5,0.1,0.8c0.1,0.6,0.2,1.4,0.1,2.2
		c-0.2,1.2-1.1,2-1.8,2.5c-0.1,0-0.1,0.1-0.2,0.1c0,0.1,0.1,0.2,0.1,0.2c0.4,0.7,0.9,1.7,0.7,2.8c-0.1,0.8-0.5,1.5-0.8,2
		c-0.1,0.2-0.3,0.6-0.3,0.7c0,0.2,0,0.5,0.1,0.9c0.1,0.6,0.2,1.3,0.1,2.1c-0.1,0.6-0.2,1.1-0.4,1.6c-0.1,0.4-0.2,0.8-0.3,1.2
		c-0.1,0.4-0.1,0.8-0.1,1.3c0,0.5,0,1-0.1,1.6c-0.1,0.9-0.6,1.6-0.9,2.2c-0.1,0.2-0.3,0.5-0.3,0.6c0,0.3,0,0.7,0,1.1
		c0,0.5,0.1,1.1,0,1.7c-0.1,0.7-0.3,1.4-0.5,1.9c-0.1,0.3-0.3,0.7-0.3,0.9c0,0.4-0.1,0.8-0.1,1.2c-0.1,0.5-0.1,1.1-0.2,1.6
		c0,0,0.2,0.3,0.3,0.5c0.3,0.6,0.6,1.4,0.6,2.4l-0.1,1.1c0,0.6-0.1,1.2-0.1,1.8c-0.1,1.1-0.7,2-1.2,2.6c-0.1,0.1-0.2,0.3-0.3,0.4
		c0,0.8,0,1.5,0,2.3v0.4c0,0.4,0.1,0.9,0.2,1.4c0.1,0.5,0.3,1.1,0.3,1.7c0,0.9-0.2,1.8-0.4,2.4c-0.1,0.2-0.1,0.5-0.1,0.6
		c0.1,0.4,0.5,0.9,0.8,1.4c0.2,0.2,0.4,0.4,0.5,0.7c0.3,0.5,1,1.1,1.8,1.5c0.3,0.1,0.9,0.1,1.5,0.1c0.8,0,1.3,0.1,2.5-0.6
		c0.1-0.1,0.4-0.4,0.6-0.6c0.3-0.4,0.7-0.8,1.3-1.2c0.6-0.5,1.2-0.7,1.8-0.9c0.3-0.1,0.7-0.2,0.8-0.3c0.1-0.1,0.2-0.4,0.2-0.6
		c0.2-0.7,0.5-1.6,1.3-2.2c0.7-0.6,1.6-0.9,2.2-1c0.2-0.1,0.6-0.1,0.7-0.2c0,0,0.2-0.4,0.3-0.6c0.3-0.6,0.7-1.3,1.5-1.9
		c0.5-0.4,1.1-0.7,1.6-1c0.3-0.2,0.6-0.4,0.9-0.6c0.8-0.6,1.7-0.7,2.4-0.7c0.2,0,0.6-0.1,0.7-0.1c0.2-0.1,0.5-0.4,0.8-0.6
		c0.4-0.3,0.9-0.7,1.5-1.1c0.8-0.5,1.6-0.5,2.3-0.6c0.2,0,0.5,0,0.6-0.1c0.1-0.1,0.2-0.3,0.3-0.5c0.4-0.6,1-1.4,1.9-1.8
		c0.9-0.4,1.7-0.3,2.4-0.3c0.2,0,0.6,0,0.7,0c0.3-0.1,0.7-0.3,1-0.4c0.5-0.2,1.1-0.5,1.7-0.7c0.1,0,0.4-0.3,0.6-0.4
		c0.5-0.4,1.2-0.9,2.1-1.1c1-0.3,1.9,0,2.6,0.2c0.2,0.1,0.5,0.2,0.6,0.2c0.1,0,0.4-0.2,0.7-0.3c0.5-0.3,1.2-0.6,2-0.7
		c0.7-0.1,1.3-0.1,1.9-0.2c0.4,0,0.7,0,1.1-0.1c0.8-0.1,1.5,0.1,2.1,0.2c0.3,0.1,0.7,0.2,0.9,0.1c0.1,0,0.4-0.2,0.6-0.3
		c0.6-0.3,1.4-0.7,2.3-0.7c0.8,0,1.5,0.2,2.1,0.4c0.2,0.1,0.5,0.2,0.7,0.2c0.1-0.1,0.4-0.2,0.5-0.3c0.7-0.4,1.6-0.9,2.7-0.8
		c1.1,0.1,1.9,0.8,2.5,1.3c0.1,0.1,0.3,0.2,0.4,0.3c0.1,0,0.4-0.1,0.6-0.1c0.7-0.2,1.6-0.4,2.6,0c1,0.3,1.6,1,2.1,1.5
		c0.2,0.2,0.4,0.4,0.5,0.5c0.1,0.1,0.5,0.1,0.8,0.2c0.7,0.1,1.7,0.3,2.5,0.9c1,0.8,1.2,2.1,1.3,2.9c0,0.2,0.1,0.4,0.1,0.5
		c0.1,0.1,0.3,0.2,0.4,0.2c0.7,0.4,1.6,0.9,2.1,1.9c0.5,1,0.4,1.9,0.3,2.7c0,0.2-0.1,0.6,0,0.7c0.2,0.8,0.2,1.5,0.2,2.1
		c0,0.3,0,0.6,0,0.9c0,0,0.2,0.3,0.3,0.5c0.3,0.6,0.8,1.4,0.8,2.5c0,1.2,0,2.2-0.2,3.2c-0.2,1-0.7,1.8-1.2,2.4
		c-0.1,0.1-0.3,0.3-0.3,0.5c0,0.1,0.1,0.4,0.1,0.5c0.2,0.8,0.4,1.9-0.1,3c-0.4,0.9-1.2,1.4-1.8,1.9c-0.2,0.2-0.5,0.4-0.6,0.5
		c-0.6,0.8-1.2,1.5-2,2.4c-0.5,0.6-1.1,1-1.6,1.3c-0.3,0.2-0.5,0.4-0.8,0.6c0,0.1-0.2,0.3-0.3,0.5c-0.3,0.6-0.7,1.5-1.6,2.1
		c-0.6,0.4-1.2,0.7-1.7,1c-0.3,0.2-0.7,0.3-1,0.5c-0.8,0.5-1.6,0.6-2.2,0.6c-0.3,0-0.7,0.1-0.8,0.1c-0.2,0.1-0.4,0.3-0.6,0.5
		c-0.5,0.4-1,0.9-1.8,1.2c-0.1,0.1-0.4,0.3-0.7,0.5c-0.5,0.4-1.1,0.9-1.9,1.2c-0.6,0.2-1.2,0.4-1.7,0.5c-0.4,0.1-0.8,0.2-1.1,0.3
		c-0.6,0.2-1.1,0.3-1.7,0.5c-0.4,0.1-0.8,0.2-1.2,0.3c-0.3,0.1-0.6,0.3-0.9,0.4c-0.5,0.3-1.1,0.6-1.8,0.8c-0.4,0.1-0.7,0.2-1.1,0.4
		c-0.5,0.2-1.1,0.4-1.7,0.5c-0.6,0.2-1.2,0.2-1.7,0.3c-0.4,0.1-0.8,0.1-1.2,0.2c-0.7,0.2-1.3,0.2-1.9,0.2c-0.4,0-0.8,0-1,0.1
		c-0.4,0.1-0.8,0.2-1.2,0.3c-0.5,0.1-1.1,0.3-1.7,0.4c-0.9,0.2-1.8-0.1-2.4-0.3c-0.2-0.1-0.5-0.2-0.6-0.2c-0.1,0-0.5,0.2-0.8,0.3
		c-0.5,0.2-1.2,0.5-1.9,0.6c-0.3,0-0.6,0.2-1,0.3c-0.5,0.2-1.1,0.4-1.8,0.5c-0.2,0-0.6,0.2-0.9,0.3c-0.5,0.2-1.2,0.5-2,0.5
		c-1.3,0.1-2.4-0.5-3.1-1c-0.1-0.1-0.3-0.2-0.4-0.2c-0.3,0.1-0.7,0.3-1.1,0.6c-0.4,0.3-0.8,0.5-1.3,0.7c-1,0.4-1.4,0.7-1.5,0.9
		c0,0.2,0.1,0.5,0.1,0.7c0.1,0.5,0.2,1.2,0.2,1.9c0,0.8-0.2,1.5-0.3,2.1c-0.1,0.3-0.2,0.6-0.2,0.8c0.3,0.5,1.3,1,1.8,1.3
		c0.2,0,0.5-0.1,0.7-0.1C535.6,133.6,536.2,133.5,536.9,133.5z M532.6,132.7L532.6,132.7L532.6,132.7z M532.8,126.9L532.8,126.9
		L532.8,126.9z M540,122.1L540,122.1L540,122.1z M539.9,122.1C539.9,122.1,539.9,122.1,539.9,122.1
		C539.9,122.1,539.9,122.1,539.9,122.1z M601.9,104.2L601.9,104.2L601.9,104.2z M602,101.9C602,101.9,602,101.9,602,101.9
		C602,101.9,602,101.9,602,101.9z M602.9,96.6C602.9,96.7,602.9,96.7,602.9,96.6C602.9,96.7,602.9,96.7,602.9,96.6z M602.9,96.4
		L602.9,96.4L602.9,96.4z M526.5,93.5L526.5,93.5L526.5,93.5z M587.4,86.6L587.4,86.6L587.4,86.6z M600,80.9L600,80.9L600,80.9z
		 M574.9,78.9L574.9,78.9L574.9,78.9z M512.7,78.8L512.7,78.8L512.7,78.8z M578,76.6L578,76.6L578,76.6z M596.5,76.3L596.5,76.3
		L596.5,76.3z M589.2,71.4L589.2,71.4L589.2,71.4z M587.2,70.4C587.2,70.4,587.2,70.4,587.2,70.4L587.2,70.4z M555.6,69.5
		L555.6,69.5L555.6,69.5z M572.8,67.8L572.8,67.8L572.8,67.8z M566.7,67.8L566.7,67.8L566.7,67.8z M529.4,65.8L529.4,65.8
		L529.4,65.8z M530.2,60L530.2,60L530.2,60z M535.2,38.2L535.2,38.2L535.2,38.2z M521.3,36L521.3,36L521.3,36z"/>
</g>
<path class="st1" d="M557.8,25.6c0.7-0.5,1.2-1,1.2-1.5c0-2.2-8.5-6.5-20.4-10.3c-3-1-4.6-3-4.6-5.5c0-3.5,2.3-5.8,5.8-5.8
	c3.3,0,15.1,4.5,24.1,9.3c8.5,4.5,10.6,6.8,10.6,11.5c0,3.7-2.3,6.8-6.6,8.8c-7.1,3.2-8.3,3.7-10.3,3.7c-2.5,0-4.6-2.2-4.6-4.6
	c0-1.5,1-3,3.2-4.3L557.8,25.6z"/>
<path class="st0" d="M718.7,93c0,3.8-5.6,14.8-11.1,21.9c-5,6.6-9.8,9.6-15.1,9.6c-17.4,0-33-32.9-33-69.4c0-9.3,1.3-21.6,2.8-27.1
	c0.8-3.3,3-5.1,6-5.1c4.2,0,7,2.5,7,6.1c0,0.7,0,0.7-0.7,4.3c-1.2,6.6-1.8,15.3-1.8,22.9c0,14.9,2.7,28.6,7.6,39.5
	c4.2,9,8.5,14.1,12,14.1c3.8,0,9.1-7.1,13.6-18.6c1.3-3.7,3.2-5.1,6.1-5.1C715.8,86.2,718.7,89,718.7,93z M774.1,53
	c6,9.6,12.6,27.4,12.6,33.4c0,4.5-2.8,7.3-7.3,7.3c-4,0-5.6-1.5-6.6-6.3c-5.6-21.1-12.3-32.7-26.7-46.8c-1.8-1.8-2.7-3.3-2.7-5
	c0-3,3.3-6,6.5-6C754.7,29.5,766.8,41.2,774.1,53z"/>
</svg>
